G04 GENERATED BY PULSONIX 12.5 GERBER.DLL 9449*
G04 #@! TF.GenerationSoftware,Pulsonix,Pulsonix,12.5.9449*
G04 #@! TF.CreationDate,2025-01-20T21:22:03--1:00*
G04 #@! TF.Part,Single*
%FSLAX35Y35*%
%LPD*%
%MOMM*%
G04 #@! TF.FileFunction,Legend,Bot*
G04 #@! TF.FilePolarity,Positive*
G04 #@! TA.AperFunction,Profile*
%ADD10C,0.30000*%
G04 #@! TA.AperFunction,Material*
%ADD12C,0.20000*%
G04 #@! TD.AperFunction*
%ADD76C,0.45000*%
%ADD77C,0.10000*%
G04 #@! TD.AperFunction*
X0Y0D02*
D02*
D10*
X750000Y5925000D02*
X7150000D01*
G75*
G02*
X7450000Y5625000I0J-300000D01*
G01*
Y625000D01*
G75*
G02*
X7150000Y325000I-300000J0D01*
G01*
X750000D01*
G75*
G02*
X450000Y625000I0J300000D01*
G01*
Y5625000D01*
G75*
G02*
X750000Y5925000I300000J0D01*
G01*
D02*
D12*
X4331000Y3769500D02*
X3632500D01*
Y3071000D01*
X4331000D01*
Y3769500D01*
G36*
X4331000Y3769500D02*
X3632500D01*
Y3071000D01*
X4331000D01*
Y3769500D01*
G37*
X4350000Y5865000D02*
X3550000D01*
Y5293500D01*
X4350000D01*
Y5865000D01*
X4521500Y2563000D02*
X3378500D01*
Y1547000D01*
X4521500D01*
Y2563000D01*
X4977000Y785000D02*
Y5865000D01*
X2923000D01*
Y785000D01*
X4977000D01*
D02*
D76*
X4242735Y5690618D02*
X4242735Y5556147D01*
X4227794Y5526265D01*
X4197911Y5511324D01*
X4138147D01*
X4108264Y5526265D01*
X4093323Y5556147D01*
Y5690618D01*
X4036995Y5556147D02*
X4022054Y5526265D01*
X3992171Y5511324D01*
X3932407D01*
X3902524Y5526265D01*
X3887583Y5556147D01*
X3902524Y5586029D01*
X3932407Y5600971D01*
X3992171D01*
X4022054Y5615912D01*
X4036995Y5645794D01*
X4022054Y5675676D01*
X3992171Y5690618D01*
X3932407D01*
X3902524Y5675676D01*
X3887583Y5645794D01*
X3726667Y5600971D02*
X3696784Y5586029D01*
X3681843Y5556147D01*
X3696784Y5526265D01*
X3726667Y5511324D01*
X3831255D01*
Y5690618D01*
X3726667D01*
X3696784Y5675676D01*
X3681843Y5645794D01*
X3696784Y5615912D01*
X3726667Y5600971D01*
X3831255D01*
X4576618Y5574824D02*
X4516853Y5574824D01*
X4546735D02*
X4546735Y5754118D01*
X4576618Y5724235D01*
D02*
D77*
X4066675Y5897941D02*
X4036087Y5897941D01*
X4051381D02*
X4051381Y5989706D01*
X4066675D02*
X4036087Y5989706D01*
X3934304Y5913235D02*
X3941951Y5905588D01*
X3957246Y5897941D01*
X3980187D01*
X3995481Y5905588D01*
X4003128Y5913235D01*
X4010775Y5928529D01*
Y5959118D01*
X4003128Y5974412D01*
X3995481Y5982059D01*
X3980187Y5989706D01*
X3957246D01*
X3941951Y5982059D01*
X3934304Y5974412D01*
X3844299Y5897941D02*
X3905475Y5897941D01*
X3851946Y5951471D01*
X3844299Y5966765D01*
X3851946Y5982059D01*
X3867240Y5989706D01*
X3890181D01*
X3905475Y5982059D01*
X0Y0D02*
M02*
