G04 GENERATED BY PULSONIX 12.5 GERBER.DLL 9449*
G04 #@! TF.GenerationSoftware,Pulsonix,Pulsonix,12.5.9449*
G04 #@! TF.CreationDate,2025-01-20T21:22:03--1:00*
G04 #@! TF.Part,Single*
%FSLAX35Y35*%
%LPD*%
%MOMM*%
G04 #@! TF.FileFunction,Drillmap*
G04 #@! TF.FilePolarity,Positive*
G04 #@! TA.AperFunction,ComponentPad*
%ADD73C,2.00000*%
G04 #@! TA.AperFunction,ViaPad*
%ADD76C,0.30000*%
G04 #@! TD.AperFunction*
%ADD77C,0.10000*%
G04 #@! TA.AperFunction,ViaPad*
%ADD78C,0.40000*%
%ADD79C,3.10000*%
G04 #@! TA.AperFunction,ComponentPad*
%ADD80C,1.00000*%
%ADD81C,2.60000*%
%ADD82C,1.10000*%
%ADD83C,1.20000*%
%ADD84C,2.50000*%
G04 #@! TD.AperFunction*
X0Y0D02*
D02*
D73*
X5800000Y4185000D03*
Y5065000D03*
D02*
D76*
X545800Y1085000D03*
Y1545000D03*
Y2005000D03*
Y2465000D03*
Y2925000D03*
Y3385000D03*
Y3845000D03*
Y4305000D03*
Y4765000D03*
Y5225000D03*
X962008Y420800D03*
X1210000Y5829200D03*
X1422008Y420800D03*
X1670000Y5829200D03*
X1882008Y420800D03*
X2130000Y5829200D03*
X2342008Y420800D03*
X2590000Y5829200D03*
X3262008Y420800D03*
X3400000Y3775000D03*
Y3950000D03*
X3510000Y5829200D03*
X3600000Y925000D03*
Y1925000D03*
X3722008Y420800D03*
X3775000Y4275000D03*
X3950000D03*
X3970000Y5829200D03*
X4182008Y420800D03*
X4250000Y2100000D03*
Y2275000D03*
X4300000Y825000D03*
Y1025000D03*
X4430000Y5829200D03*
X4500000Y3175000D03*
X4642008Y420800D03*
X4650000Y3175000D03*
X5562008Y420800D03*
X5600000Y3275000D03*
Y3500000D03*
Y3700000D03*
X5810000Y5829200D03*
X6022008Y420800D03*
X6270000Y5829200D03*
X6482008Y420800D03*
X6730000Y5829200D03*
X6942008Y420800D03*
X7354200Y795558D03*
Y1255558D03*
Y1715558D03*
Y2175558D03*
Y2635558D03*
Y3095558D03*
Y3555558D03*
Y4015558D03*
Y4475558D03*
Y4935558D03*
Y5395558D03*
D02*
D77*
X565800Y1109706D02*
X606976Y1208529D01*
X648153Y1109706D01*
X582271Y1150882D02*
X631682Y1150882D01*
X761553Y1126176D02*
X753318Y1117941D01*
X736847Y1109706D01*
X712141D01*
X695671Y1117941D01*
X687435Y1126176D01*
X679200Y1142647D01*
Y1175588D01*
X687435Y1192059D01*
X695671Y1200294D01*
X712141Y1208529D01*
X736847D01*
X753318Y1200294D01*
X761553Y1192059D01*
X565800Y1569706D02*
X606976Y1668529D01*
X648153Y1569706D01*
X582271Y1610882D02*
X631682Y1610882D01*
X761553Y1586176D02*
X753318Y1577941D01*
X736847Y1569706D01*
X712141D01*
X695671Y1577941D01*
X687435Y1586176D01*
X679200Y1602647D01*
Y1635588D01*
X687435Y1652059D01*
X695671Y1660294D01*
X712141Y1668529D01*
X736847D01*
X753318Y1660294D01*
X761553Y1652059D01*
X565800Y2029706D02*
X606976Y2128529D01*
X648153Y2029706D01*
X582271Y2070882D02*
X631682Y2070882D01*
X761553Y2046176D02*
X753318Y2037941D01*
X736847Y2029706D01*
X712141D01*
X695671Y2037941D01*
X687435Y2046176D01*
X679200Y2062647D01*
Y2095588D01*
X687435Y2112059D01*
X695671Y2120294D01*
X712141Y2128529D01*
X736847D01*
X753318Y2120294D01*
X761553Y2112059D01*
X565800Y2489706D02*
X606976Y2588529D01*
X648153Y2489706D01*
X582271Y2530882D02*
X631682Y2530882D01*
X761553Y2506176D02*
X753318Y2497941D01*
X736847Y2489706D01*
X712141D01*
X695671Y2497941D01*
X687435Y2506176D01*
X679200Y2522647D01*
Y2555588D01*
X687435Y2572059D01*
X695671Y2580294D01*
X712141Y2588529D01*
X736847D01*
X753318Y2580294D01*
X761553Y2572059D01*
X565800Y2949706D02*
X606976Y3048529D01*
X648153Y2949706D01*
X582271Y2990882D02*
X631682Y2990882D01*
X761553Y2966176D02*
X753318Y2957941D01*
X736847Y2949706D01*
X712141D01*
X695671Y2957941D01*
X687435Y2966176D01*
X679200Y2982647D01*
Y3015588D01*
X687435Y3032059D01*
X695671Y3040294D01*
X712141Y3048529D01*
X736847D01*
X753318Y3040294D01*
X761553Y3032059D01*
X565800Y3409706D02*
X606976Y3508529D01*
X648153Y3409706D01*
X582271Y3450882D02*
X631682Y3450882D01*
X761553Y3426176D02*
X753318Y3417941D01*
X736847Y3409706D01*
X712141D01*
X695671Y3417941D01*
X687435Y3426176D01*
X679200Y3442647D01*
Y3475588D01*
X687435Y3492059D01*
X695671Y3500294D01*
X712141Y3508529D01*
X736847D01*
X753318Y3500294D01*
X761553Y3492059D01*
X565800Y3869706D02*
X606976Y3968529D01*
X648153Y3869706D01*
X582271Y3910882D02*
X631682Y3910882D01*
X761553Y3886176D02*
X753318Y3877941D01*
X736847Y3869706D01*
X712141D01*
X695671Y3877941D01*
X687435Y3886176D01*
X679200Y3902647D01*
Y3935588D01*
X687435Y3952059D01*
X695671Y3960294D01*
X712141Y3968529D01*
X736847D01*
X753318Y3960294D01*
X761553Y3952059D01*
X565800Y4329706D02*
X606976Y4428529D01*
X648153Y4329706D01*
X582271Y4370882D02*
X631682Y4370882D01*
X761553Y4346176D02*
X753318Y4337941D01*
X736847Y4329706D01*
X712141D01*
X695671Y4337941D01*
X687435Y4346176D01*
X679200Y4362647D01*
Y4395588D01*
X687435Y4412059D01*
X695671Y4420294D01*
X712141Y4428529D01*
X736847D01*
X753318Y4420294D01*
X761553Y4412059D01*
X565800Y4789706D02*
X606976Y4888529D01*
X648153Y4789706D01*
X582271Y4830882D02*
X631682Y4830882D01*
X761553Y4806176D02*
X753318Y4797941D01*
X736847Y4789706D01*
X712141D01*
X695671Y4797941D01*
X687435Y4806176D01*
X679200Y4822647D01*
Y4855588D01*
X687435Y4872059D01*
X695671Y4880294D01*
X712141Y4888529D01*
X736847D01*
X753318Y4880294D01*
X761553Y4872059D01*
X565800Y5249706D02*
X606976Y5348529D01*
X648153Y5249706D01*
X582271Y5290882D02*
X631682Y5290882D01*
X761553Y5266176D02*
X753318Y5257941D01*
X736847Y5249706D01*
X712141D01*
X695671Y5257941D01*
X687435Y5266176D01*
X679200Y5282647D01*
Y5315588D01*
X687435Y5332059D01*
X695671Y5340294D01*
X712141Y5348529D01*
X736847D01*
X753318Y5340294D01*
X761553Y5332059D01*
X910000Y682647D02*
X910000Y715588D01*
X918235Y732059D01*
X926471Y740294D01*
X942941Y748529D01*
X959412D01*
X975882Y740294D01*
X984118Y732059D01*
X992353Y715588D01*
Y682647D01*
X984118Y666176D01*
X975882Y657941D01*
X959412Y649706D01*
X942941D01*
X926471Y657941D01*
X918235Y666176D01*
X910000Y682647D01*
X967647Y674412D02*
X992353Y649706D01*
X910000Y5682647D02*
X910000Y5715588D01*
X918235Y5732059D01*
X926471Y5740294D01*
X942941Y5748529D01*
X959412D01*
X975882Y5740294D01*
X984118Y5732059D01*
X992353Y5715588D01*
Y5682647D01*
X984118Y5666176D01*
X975882Y5657941D01*
X959412Y5649706D01*
X942941D01*
X926471Y5657941D01*
X918235Y5666176D01*
X910000Y5682647D01*
X967647Y5674412D02*
X992353Y5649706D01*
X982008Y445506D02*
X1023184Y544329D01*
X1064361Y445506D01*
X998479Y486682D02*
X1047890Y486682D01*
X1177761Y461976D02*
X1169526Y453741D01*
X1153055Y445506D01*
X1128349D01*
X1111879Y453741D01*
X1103643Y461976D01*
X1095408Y478447D01*
Y511388D01*
X1103643Y527859D01*
X1111879Y536094D01*
X1128349Y544329D01*
X1153055D01*
X1169526Y536094D01*
X1177761Y527859D01*
X1230000Y5853906D02*
X1271176Y5952729D01*
X1312353Y5853906D01*
X1246471Y5895082D02*
X1295882Y5895082D01*
X1425753Y5870376D02*
X1417518Y5862141D01*
X1401047Y5853906D01*
X1376341D01*
X1359871Y5862141D01*
X1351635Y5870376D01*
X1343400Y5886847D01*
Y5919788D01*
X1351635Y5936259D01*
X1359871Y5944494D01*
X1376341Y5952729D01*
X1401047D01*
X1417518Y5944494D01*
X1425753Y5936259D01*
X1405000Y4399706D02*
X1437941Y4399706D01*
X1421471D02*
X1421471Y4498529D01*
X1405000D02*
X1437941Y4498529D01*
X1405000Y4649706D02*
X1437941Y4649706D01*
X1421471D02*
X1421471Y4748529D01*
X1405000D02*
X1437941Y4748529D01*
X1405000Y4899706D02*
X1437941Y4899706D01*
X1421471D02*
X1421471Y4998529D01*
X1405000D02*
X1437941Y4998529D01*
X1442008Y445506D02*
X1483184Y544329D01*
X1524361Y445506D01*
X1458479Y486682D02*
X1507890Y486682D01*
X1637761Y461976D02*
X1629526Y453741D01*
X1613055Y445506D01*
X1588349D01*
X1571879Y453741D01*
X1563643Y461976D01*
X1555408Y478447D01*
Y511388D01*
X1563643Y527859D01*
X1571879Y536094D01*
X1588349Y544329D01*
X1613055D01*
X1629526Y536094D01*
X1637761Y527859D01*
X1457000Y944529D02*
X1457000Y845706D01*
X1539353D01*
X1457000Y1198529D02*
X1457000Y1099706D01*
X1539353D01*
X1457000Y1452529D02*
X1457000Y1353706D01*
X1539353D01*
X1457000Y2344529D02*
X1457000Y2245706D01*
X1539353D01*
X1457000Y2598529D02*
X1457000Y2499706D01*
X1539353D01*
X1457000Y2852529D02*
X1457000Y2753706D01*
X1539353D01*
X1690000Y5853906D02*
X1731176Y5952729D01*
X1772353Y5853906D01*
X1706471Y5895082D02*
X1755882Y5895082D01*
X1885753Y5870376D02*
X1877518Y5862141D01*
X1861047Y5853906D01*
X1836341D01*
X1819871Y5862141D01*
X1811635Y5870376D01*
X1803400Y5886847D01*
Y5919788D01*
X1811635Y5936259D01*
X1819871Y5944494D01*
X1836341Y5952729D01*
X1861047D01*
X1877518Y5944494D01*
X1885753Y5936259D01*
X1701000Y845706D02*
X1742176Y944529D01*
X1783353Y845706D01*
X1717471Y886882D02*
X1766882Y886882D01*
X1814400Y845706D02*
X1814400Y944529D01*
X1896753D01*
X1880282Y895118D02*
X1814400Y895118D01*
X1701000Y2245706D02*
X1742176Y2344529D01*
X1783353Y2245706D01*
X1717471Y2286882D02*
X1766882Y2286882D01*
X1814400Y2245706D02*
X1814400Y2344529D01*
X1896753D01*
X1880282Y2295118D02*
X1814400Y2295118D01*
X1902008Y445506D02*
X1943184Y544329D01*
X1984361Y445506D01*
X1918479Y486682D02*
X1967890Y486682D01*
X2097761Y461976D02*
X2089526Y453741D01*
X2073055Y445506D01*
X2048349D01*
X2031879Y453741D01*
X2023643Y461976D01*
X2015408Y478447D01*
Y511388D01*
X2023643Y527859D01*
X2031879Y536094D01*
X2048349Y544329D01*
X2073055D01*
X2089526Y536094D01*
X2097761Y527859D01*
X2150000Y5853906D02*
X2191176Y5952729D01*
X2232353Y5853906D01*
X2166471Y5895082D02*
X2215882Y5895082D01*
X2345753Y5870376D02*
X2337518Y5862141D01*
X2321047Y5853906D01*
X2296341D01*
X2279871Y5862141D01*
X2271635Y5870376D01*
X2263400Y5886847D01*
Y5919788D01*
X2271635Y5936259D01*
X2279871Y5944494D01*
X2296341Y5952729D01*
X2321047D01*
X2337518Y5944494D01*
X2345753Y5936259D01*
X2209000Y845706D02*
X2250176Y944529D01*
X2291353Y845706D01*
X2225471Y886882D02*
X2274882Y886882D01*
X2322400Y845706D02*
X2322400Y944529D01*
X2404753D01*
X2388282Y895118D02*
X2322400Y895118D01*
X2209000Y2245706D02*
X2250176Y2344529D01*
X2291353Y2245706D01*
X2225471Y2286882D02*
X2274882Y2286882D01*
X2322400Y2245706D02*
X2322400Y2344529D01*
X2404753D01*
X2388282Y2295118D02*
X2322400Y2295118D01*
X2235000Y4049706D02*
X2276176Y4148529D01*
X2317353Y4049706D01*
X2251471Y4090882D02*
X2300882Y4090882D01*
X2348400Y4049706D02*
X2348400Y4148529D01*
X2430753D01*
X2414282Y4099118D02*
X2348400Y4099118D01*
Y4049706D02*
X2430753Y4049706D01*
X2235000Y5249706D02*
X2276176Y5348529D01*
X2317353Y5249706D01*
X2251471Y5290882D02*
X2300882Y5290882D01*
X2348400Y5249706D02*
X2348400Y5348529D01*
X2430753D01*
X2414282Y5299118D02*
X2348400Y5299118D01*
Y5249706D02*
X2430753Y5249706D01*
X2362008Y445506D02*
X2403184Y544329D01*
X2444361Y445506D01*
X2378479Y486682D02*
X2427890Y486682D01*
X2557761Y461976D02*
X2549526Y453741D01*
X2533055Y445506D01*
X2508349D01*
X2491879Y453741D01*
X2483643Y461976D01*
X2475408Y478447D01*
Y511388D01*
X2483643Y527859D01*
X2491879Y536094D01*
X2508349Y544329D01*
X2533055D01*
X2549526Y536094D01*
X2557761Y527859D01*
X2473000Y944529D02*
X2473000Y845706D01*
X2555353D01*
X2473000Y1198529D02*
X2473000Y1099706D01*
X2555353D01*
X2473000Y1452529D02*
X2473000Y1353706D01*
X2555353D01*
X2473000Y2344529D02*
X2473000Y2245706D01*
X2555353D01*
X2473000Y2598529D02*
X2473000Y2499706D01*
X2555353D01*
X2473000Y2852529D02*
X2473000Y2753706D01*
X2555353D01*
X2610000Y5853906D02*
X2651176Y5952729D01*
X2692353Y5853906D01*
X2626471Y5895082D02*
X2675882Y5895082D01*
X2805753Y5870376D02*
X2797518Y5862141D01*
X2781047Y5853906D01*
X2756341D01*
X2739871Y5862141D01*
X2731635Y5870376D01*
X2723400Y5886847D01*
Y5919788D01*
X2731635Y5936259D01*
X2739871Y5944494D01*
X2756341Y5952729D01*
X2781047D01*
X2797518Y5944494D01*
X2805753Y5936259D01*
X2855000Y4399706D02*
X2887941Y4399706D01*
X2871471D02*
X2871471Y4498529D01*
X2855000D02*
X2887941Y4498529D01*
X2855000Y4899706D02*
X2887941Y4899706D01*
X2871471D02*
X2871471Y4998529D01*
X2855000D02*
X2887941Y4998529D01*
X3030000Y626206D02*
X3071176Y725029D01*
X3112353Y626206D01*
X3046471Y667382D02*
X3095882Y667382D01*
X3143400Y626206D02*
X3184576Y725029D01*
X3225753Y626206D01*
X3159871Y667382D02*
X3209282Y667382D01*
X3116000Y936706D02*
X3148941Y936706D01*
X3132471D02*
X3132471Y1035529D01*
X3116000D02*
X3148941Y1035529D01*
X3116000Y1190706D02*
X3148941Y1190706D01*
X3132471D02*
X3132471Y1289529D01*
X3116000D02*
X3148941Y1289529D01*
X3116000Y1444706D02*
X3148941Y1444706D01*
X3132471D02*
X3132471Y1543529D01*
X3116000D02*
X3148941Y1543529D01*
X3116000Y1698706D02*
X3148941Y1698706D01*
X3132471D02*
X3132471Y1797529D01*
X3116000D02*
X3148941Y1797529D01*
X3116000Y1952706D02*
X3148941Y1952706D01*
X3132471D02*
X3132471Y2051529D01*
X3116000D02*
X3148941Y2051529D01*
X3116000Y2206706D02*
X3148941Y2206706D01*
X3132471D02*
X3132471Y2305529D01*
X3116000D02*
X3148941Y2305529D01*
X3116000Y2460706D02*
X3148941Y2460706D01*
X3132471D02*
X3132471Y2559529D01*
X3116000D02*
X3148941Y2559529D01*
X3116000Y2714706D02*
X3148941Y2714706D01*
X3132471D02*
X3132471Y2813529D01*
X3116000D02*
X3148941Y2813529D01*
X3116000Y2968706D02*
X3148941Y2968706D01*
X3132471D02*
X3132471Y3067529D01*
X3116000D02*
X3148941Y3067529D01*
X3116000Y3222706D02*
X3148941Y3222706D01*
X3132471D02*
X3132471Y3321529D01*
X3116000D02*
X3148941Y3321529D01*
X3116000Y3476706D02*
X3148941Y3476706D01*
X3132471D02*
X3132471Y3575529D01*
X3116000D02*
X3148941Y3575529D01*
X3116000Y3730706D02*
X3148941Y3730706D01*
X3132471D02*
X3132471Y3829529D01*
X3116000D02*
X3148941Y3829529D01*
X3116000Y3984706D02*
X3148941Y3984706D01*
X3132471D02*
X3132471Y4083529D01*
X3116000D02*
X3148941Y4083529D01*
X3116000Y4238706D02*
X3148941Y4238706D01*
X3132471D02*
X3132471Y4337529D01*
X3116000D02*
X3148941Y4337529D01*
X3116000Y4492706D02*
X3148941Y4492706D01*
X3132471D02*
X3132471Y4591529D01*
X3116000D02*
X3148941Y4591529D01*
X3116000Y4746706D02*
X3148941Y4746706D01*
X3132471D02*
X3132471Y4845529D01*
X3116000D02*
X3148941Y4845529D01*
X3116000Y5000706D02*
X3148941Y5000706D01*
X3132471D02*
X3132471Y5099529D01*
X3116000D02*
X3148941Y5099529D01*
X3116000Y5254706D02*
X3148941Y5254706D01*
X3132471D02*
X3132471Y5353529D01*
X3116000D02*
X3148941Y5353529D01*
X3116000Y5508706D02*
X3148941Y5508706D01*
X3132471D02*
X3132471Y5607529D01*
X3116000D02*
X3148941Y5607529D01*
X3116000Y5762706D02*
X3148941Y5762706D01*
X3132471D02*
X3132471Y5861529D01*
X3116000D02*
X3148941Y5861529D01*
X3282008Y445506D02*
X3323184Y544329D01*
X3364361Y445506D01*
X3298479Y486682D02*
X3347890Y486682D01*
X3477761Y461976D02*
X3469526Y453741D01*
X3453055Y445506D01*
X3428349D01*
X3411879Y453741D01*
X3403643Y461976D01*
X3395408Y478447D01*
Y511388D01*
X3403643Y527859D01*
X3411879Y536094D01*
X3428349Y544329D01*
X3453055D01*
X3469526Y536094D01*
X3477761Y527859D01*
X3420000Y3799706D02*
X3461176Y3898529D01*
X3502353Y3799706D01*
X3436471Y3840882D02*
X3485882Y3840882D01*
X3615753Y3816176D02*
X3607518Y3807941D01*
X3591047Y3799706D01*
X3566341D01*
X3549871Y3807941D01*
X3541635Y3816176D01*
X3533400Y3832647D01*
Y3865588D01*
X3541635Y3882059D01*
X3549871Y3890294D01*
X3566341Y3898529D01*
X3591047D01*
X3607518Y3890294D01*
X3615753Y3882059D01*
X3420000Y3974706D02*
X3461176Y4073529D01*
X3502353Y3974706D01*
X3436471Y4015882D02*
X3485882Y4015882D01*
X3615753Y3991176D02*
X3607518Y3982941D01*
X3591047Y3974706D01*
X3566341D01*
X3549871Y3982941D01*
X3541635Y3991176D01*
X3533400Y4007647D01*
Y4040588D01*
X3541635Y4057059D01*
X3549871Y4065294D01*
X3566341Y4073529D01*
X3591047D01*
X3607518Y4065294D01*
X3615753Y4057059D01*
X3530000Y5853906D02*
X3571176Y5952729D01*
X3612353Y5853906D01*
X3546471Y5895082D02*
X3595882Y5895082D01*
X3725753Y5870376D02*
X3717518Y5862141D01*
X3701047Y5853906D01*
X3676341D01*
X3659871Y5862141D01*
X3651635Y5870376D01*
X3643400Y5886847D01*
Y5919788D01*
X3651635Y5936259D01*
X3659871Y5944494D01*
X3676341Y5952729D01*
X3701047D01*
X3717518Y5944494D01*
X3725753Y5936259D01*
X3620000Y949706D02*
X3661176Y1048529D01*
X3702353Y949706D01*
X3636471Y990882D02*
X3685882Y990882D01*
X3815753Y966176D02*
X3807518Y957941D01*
X3791047Y949706D01*
X3766341D01*
X3749871Y957941D01*
X3741635Y966176D01*
X3733400Y982647D01*
Y1015588D01*
X3741635Y1032059D01*
X3749871Y1040294D01*
X3766341Y1048529D01*
X3791047D01*
X3807518Y1040294D01*
X3815753Y1032059D01*
X3620000Y1949706D02*
X3661176Y2048529D01*
X3702353Y1949706D01*
X3636471Y1990882D02*
X3685882Y1990882D01*
X3815753Y1966176D02*
X3807518Y1957941D01*
X3791047Y1949706D01*
X3766341D01*
X3749871Y1957941D01*
X3741635Y1966176D01*
X3733400Y1982647D01*
Y2015588D01*
X3741635Y2032059D01*
X3749871Y2040294D01*
X3766341Y2048529D01*
X3791047D01*
X3807518Y2040294D01*
X3815753Y2032059D01*
X3624000Y2866206D02*
X3656941Y2866206D01*
X3640471D02*
X3640471Y2965029D01*
X3624000D02*
X3656941Y2965029D01*
X3629000Y4966176D02*
X3637235Y4957941D01*
X3653706Y4949706D01*
X3670176Y4957941D01*
X3678412Y4966176D01*
Y5048529D01*
X3694882D01*
X3678412D02*
X3645471Y5048529D01*
X3742008Y445506D02*
X3783184Y544329D01*
X3824361Y445506D01*
X3758479Y486682D02*
X3807890Y486682D01*
X3937761Y461976D02*
X3929526Y453741D01*
X3913055Y445506D01*
X3888349D01*
X3871879Y453741D01*
X3863643Y461976D01*
X3855408Y478447D01*
Y511388D01*
X3863643Y527859D01*
X3871879Y536094D01*
X3888349Y544329D01*
X3913055D01*
X3929526Y536094D01*
X3937761Y527859D01*
X3795000Y4299706D02*
X3836176Y4398529D01*
X3877353Y4299706D01*
X3811471Y4340882D02*
X3860882Y4340882D01*
X3990753Y4316176D02*
X3982518Y4307941D01*
X3966047Y4299706D01*
X3941341D01*
X3924871Y4307941D01*
X3916635Y4316176D01*
X3908400Y4332647D01*
Y4365588D01*
X3916635Y4382059D01*
X3924871Y4390294D01*
X3941341Y4398529D01*
X3966047D01*
X3982518Y4390294D01*
X3990753Y4382059D01*
X3878000Y2866206D02*
X3910941Y2866206D01*
X3894471D02*
X3894471Y2965029D01*
X3878000D02*
X3910941Y2965029D01*
X3878000Y3299706D02*
X3910941Y3299706D01*
X3894471D02*
X3894471Y3398529D01*
X3878000D02*
X3910941Y3398529D01*
X3883000Y4966176D02*
X3891235Y4957941D01*
X3907706Y4949706D01*
X3924176Y4957941D01*
X3932412Y4966176D01*
Y5048529D01*
X3948882D01*
X3932412D02*
X3899471Y5048529D01*
X3970000Y4299706D02*
X4011176Y4398529D01*
X4052353Y4299706D01*
X3986471Y4340882D02*
X4035882Y4340882D01*
X4165753Y4316176D02*
X4157518Y4307941D01*
X4141047Y4299706D01*
X4116341D01*
X4099871Y4307941D01*
X4091635Y4316176D01*
X4083400Y4332647D01*
Y4365588D01*
X4091635Y4382059D01*
X4099871Y4390294D01*
X4116341Y4398529D01*
X4141047D01*
X4157518Y4390294D01*
X4165753Y4382059D01*
X3990000Y5853906D02*
X4031176Y5952729D01*
X4072353Y5853906D01*
X4006471Y5895082D02*
X4055882Y5895082D01*
X4185753Y5870376D02*
X4177518Y5862141D01*
X4161047Y5853906D01*
X4136341D01*
X4119871Y5862141D01*
X4111635Y5870376D01*
X4103400Y5886847D01*
Y5919788D01*
X4111635Y5936259D01*
X4119871Y5944494D01*
X4136341Y5952729D01*
X4161047D01*
X4177518Y5944494D01*
X4185753Y5936259D01*
X4132000Y2866206D02*
X4164941Y2866206D01*
X4148471D02*
X4148471Y2965029D01*
X4132000D02*
X4164941Y2965029D01*
X4132000Y3299706D02*
X4164941Y3299706D01*
X4148471D02*
X4148471Y3398529D01*
X4132000D02*
X4164941Y3398529D01*
X4137000Y4966176D02*
X4145235Y4957941D01*
X4161706Y4949706D01*
X4178176Y4957941D01*
X4186412Y4966176D01*
Y5048529D01*
X4202882D01*
X4186412D02*
X4153471Y5048529D01*
X4202008Y445506D02*
X4243184Y544329D01*
X4284361Y445506D01*
X4218479Y486682D02*
X4267890Y486682D01*
X4397761Y461976D02*
X4389526Y453741D01*
X4373055Y445506D01*
X4348349D01*
X4331879Y453741D01*
X4323643Y461976D01*
X4315408Y478447D01*
Y511388D01*
X4323643Y527859D01*
X4331879Y536094D01*
X4348349Y544329D01*
X4373055D01*
X4389526Y536094D01*
X4397761Y527859D01*
X4270000Y2124706D02*
X4311176Y2223529D01*
X4352353Y2124706D01*
X4286471Y2165882D02*
X4335882Y2165882D01*
X4465753Y2141176D02*
X4457518Y2132941D01*
X4441047Y2124706D01*
X4416341D01*
X4399871Y2132941D01*
X4391635Y2141176D01*
X4383400Y2157647D01*
Y2190588D01*
X4391635Y2207059D01*
X4399871Y2215294D01*
X4416341Y2223529D01*
X4441047D01*
X4457518Y2215294D01*
X4465753Y2207059D01*
X4270000Y2299706D02*
X4311176Y2398529D01*
X4352353Y2299706D01*
X4286471Y2340882D02*
X4335882Y2340882D01*
X4465753Y2316176D02*
X4457518Y2307941D01*
X4441047Y2299706D01*
X4416341D01*
X4399871Y2307941D01*
X4391635Y2316176D01*
X4383400Y2332647D01*
Y2365588D01*
X4391635Y2382059D01*
X4399871Y2390294D01*
X4416341Y2398529D01*
X4441047D01*
X4457518Y2390294D01*
X4465753Y2382059D01*
X4320000Y849706D02*
X4361176Y948529D01*
X4402353Y849706D01*
X4336471Y890882D02*
X4385882Y890882D01*
X4515753Y866176D02*
X4507518Y857941D01*
X4491047Y849706D01*
X4466341D01*
X4449871Y857941D01*
X4441635Y866176D01*
X4433400Y882647D01*
Y915588D01*
X4441635Y932059D01*
X4449871Y940294D01*
X4466341Y948529D01*
X4491047D01*
X4507518Y940294D01*
X4515753Y932059D01*
X4320000Y1049706D02*
X4361176Y1148529D01*
X4402353Y1049706D01*
X4336471Y1090882D02*
X4385882Y1090882D01*
X4515753Y1066176D02*
X4507518Y1057941D01*
X4491047Y1049706D01*
X4466341D01*
X4449871Y1057941D01*
X4441635Y1066176D01*
X4433400Y1082647D01*
Y1115588D01*
X4441635Y1132059D01*
X4449871Y1140294D01*
X4466341Y1148529D01*
X4491047D01*
X4507518Y1140294D01*
X4515753Y1132059D01*
X4386000Y2866206D02*
X4418941Y2866206D01*
X4402471D02*
X4402471Y2965029D01*
X4386000D02*
X4418941Y2965029D01*
X4391000Y4966176D02*
X4399235Y4957941D01*
X4415706Y4949706D01*
X4432176Y4957941D01*
X4440412Y4966176D01*
Y5048529D01*
X4456882D01*
X4440412D02*
X4407471Y5048529D01*
X4450000Y5853906D02*
X4491176Y5952729D01*
X4532353Y5853906D01*
X4466471Y5895082D02*
X4515882Y5895082D01*
X4645753Y5870376D02*
X4637518Y5862141D01*
X4621047Y5853906D01*
X4596341D01*
X4579871Y5862141D01*
X4571635Y5870376D01*
X4563400Y5886847D01*
Y5919788D01*
X4571635Y5936259D01*
X4579871Y5944494D01*
X4596341Y5952729D01*
X4621047D01*
X4637518Y5944494D01*
X4645753Y5936259D01*
X4520000Y3199706D02*
X4561176Y3298529D01*
X4602353Y3199706D01*
X4536471Y3240882D02*
X4585882Y3240882D01*
X4715753Y3216176D02*
X4707518Y3207941D01*
X4691047Y3199706D01*
X4666341D01*
X4649871Y3207941D01*
X4641635Y3216176D01*
X4633400Y3232647D01*
Y3265588D01*
X4641635Y3282059D01*
X4649871Y3290294D01*
X4666341Y3298529D01*
X4691047D01*
X4707518Y3290294D01*
X4715753Y3282059D01*
X4662008Y445506D02*
X4703184Y544329D01*
X4744361Y445506D01*
X4678479Y486682D02*
X4727890Y486682D01*
X4857761Y461976D02*
X4849526Y453741D01*
X4833055Y445506D01*
X4808349D01*
X4791879Y453741D01*
X4783643Y461976D01*
X4775408Y478447D01*
Y511388D01*
X4783643Y527859D01*
X4791879Y536094D01*
X4808349Y544329D01*
X4833055D01*
X4849526Y536094D01*
X4857761Y527859D01*
X4670000Y3199706D02*
X4711176Y3298529D01*
X4752353Y3199706D01*
X4686471Y3240882D02*
X4735882Y3240882D01*
X4865753Y3216176D02*
X4857518Y3207941D01*
X4841047Y3199706D01*
X4816341D01*
X4799871Y3207941D01*
X4791635Y3216176D01*
X4783400Y3232647D01*
Y3265588D01*
X4791635Y3282059D01*
X4799871Y3290294D01*
X4816341Y3298529D01*
X4841047D01*
X4857518Y3290294D01*
X4865753Y3282059D01*
X4894000Y936706D02*
X4926941Y936706D01*
X4910471D02*
X4910471Y1035529D01*
X4894000D02*
X4926941Y1035529D01*
X4894000Y1190706D02*
X4926941Y1190706D01*
X4910471D02*
X4910471Y1289529D01*
X4894000D02*
X4926941Y1289529D01*
X4894000Y1444706D02*
X4926941Y1444706D01*
X4910471D02*
X4910471Y1543529D01*
X4894000D02*
X4926941Y1543529D01*
X4894000Y1698706D02*
X4926941Y1698706D01*
X4910471D02*
X4910471Y1797529D01*
X4894000D02*
X4926941Y1797529D01*
X4894000Y1952706D02*
X4926941Y1952706D01*
X4910471D02*
X4910471Y2051529D01*
X4894000D02*
X4926941Y2051529D01*
X4894000Y2206706D02*
X4926941Y2206706D01*
X4910471D02*
X4910471Y2305529D01*
X4894000D02*
X4926941Y2305529D01*
X4894000Y2460706D02*
X4926941Y2460706D01*
X4910471D02*
X4910471Y2559529D01*
X4894000D02*
X4926941Y2559529D01*
X4894000Y2714706D02*
X4926941Y2714706D01*
X4910471D02*
X4910471Y2813529D01*
X4894000D02*
X4926941Y2813529D01*
X4894000Y2968706D02*
X4926941Y2968706D01*
X4910471D02*
X4910471Y3067529D01*
X4894000D02*
X4926941Y3067529D01*
X4894000Y3222706D02*
X4926941Y3222706D01*
X4910471D02*
X4910471Y3321529D01*
X4894000D02*
X4926941Y3321529D01*
X4894000Y3476706D02*
X4926941Y3476706D01*
X4910471D02*
X4910471Y3575529D01*
X4894000D02*
X4926941Y3575529D01*
X4894000Y3730706D02*
X4926941Y3730706D01*
X4910471D02*
X4910471Y3829529D01*
X4894000D02*
X4926941Y3829529D01*
X4894000Y3984706D02*
X4926941Y3984706D01*
X4910471D02*
X4910471Y4083529D01*
X4894000D02*
X4926941Y4083529D01*
X4894000Y4238706D02*
X4926941Y4238706D01*
X4910471D02*
X4910471Y4337529D01*
X4894000D02*
X4926941Y4337529D01*
X4894000Y4492706D02*
X4926941Y4492706D01*
X4910471D02*
X4910471Y4591529D01*
X4894000D02*
X4926941Y4591529D01*
X4894000Y4746706D02*
X4926941Y4746706D01*
X4910471D02*
X4910471Y4845529D01*
X4894000D02*
X4926941Y4845529D01*
X4894000Y5000706D02*
X4926941Y5000706D01*
X4910471D02*
X4910471Y5099529D01*
X4894000D02*
X4926941Y5099529D01*
X4894000Y5254706D02*
X4926941Y5254706D01*
X4910471D02*
X4910471Y5353529D01*
X4894000D02*
X4926941Y5353529D01*
X4894000Y5508706D02*
X4926941Y5508706D01*
X4910471D02*
X4910471Y5607529D01*
X4894000D02*
X4926941Y5607529D01*
X4894000Y5762706D02*
X4926941Y5762706D01*
X4910471D02*
X4910471Y5861529D01*
X4894000D02*
X4926941Y5861529D01*
X5130000Y626206D02*
X5171176Y725029D01*
X5212353Y626206D01*
X5146471Y667382D02*
X5195882Y667382D01*
X5243400Y626206D02*
X5284576Y725029D01*
X5325753Y626206D01*
X5259871Y667382D02*
X5309282Y667382D01*
X5475000Y5508706D02*
X5516176Y5607529D01*
X5557353Y5508706D01*
X5491471Y5549882D02*
X5540882Y5549882D01*
X5557000Y944529D02*
X5557000Y845706D01*
X5639353D01*
X5557000Y1198529D02*
X5557000Y1099706D01*
X5639353D01*
X5557000Y1452529D02*
X5557000Y1353706D01*
X5639353D01*
X5557000Y2344529D02*
X5557000Y2245706D01*
X5639353D01*
X5557000Y2598529D02*
X5557000Y2499706D01*
X5639353D01*
X5557000Y2852529D02*
X5557000Y2753706D01*
X5639353D01*
X5582008Y445506D02*
X5623184Y544329D01*
X5664361Y445506D01*
X5598479Y486682D02*
X5647890Y486682D01*
X5777761Y461976D02*
X5769526Y453741D01*
X5753055Y445506D01*
X5728349D01*
X5711879Y453741D01*
X5703643Y461976D01*
X5695408Y478447D01*
Y511388D01*
X5703643Y527859D01*
X5711879Y536094D01*
X5728349Y544329D01*
X5753055D01*
X5769526Y536094D01*
X5777761Y527859D01*
X5620000Y3299706D02*
X5661176Y3398529D01*
X5702353Y3299706D01*
X5636471Y3340882D02*
X5685882Y3340882D01*
X5815753Y3316176D02*
X5807518Y3307941D01*
X5791047Y3299706D01*
X5766341D01*
X5749871Y3307941D01*
X5741635Y3316176D01*
X5733400Y3332647D01*
Y3365588D01*
X5741635Y3382059D01*
X5749871Y3390294D01*
X5766341Y3398529D01*
X5791047D01*
X5807518Y3390294D01*
X5815753Y3382059D01*
X5620000Y3524706D02*
X5661176Y3623529D01*
X5702353Y3524706D01*
X5636471Y3565882D02*
X5685882Y3565882D01*
X5815753Y3541176D02*
X5807518Y3532941D01*
X5791047Y3524706D01*
X5766341D01*
X5749871Y3532941D01*
X5741635Y3541176D01*
X5733400Y3557647D01*
Y3590588D01*
X5741635Y3607059D01*
X5749871Y3615294D01*
X5766341Y3623529D01*
X5791047D01*
X5807518Y3615294D01*
X5815753Y3607059D01*
X5620000Y3724706D02*
X5661176Y3823529D01*
X5702353Y3724706D01*
X5636471Y3765882D02*
X5685882Y3765882D01*
X5815753Y3741176D02*
X5807518Y3732941D01*
X5791047Y3724706D01*
X5766341D01*
X5749871Y3732941D01*
X5741635Y3741176D01*
X5733400Y3757647D01*
Y3790588D01*
X5741635Y3807059D01*
X5749871Y3815294D01*
X5766341Y3823529D01*
X5791047D01*
X5807518Y3815294D01*
X5815753Y3807059D01*
X5801000Y845706D02*
X5842176Y944529D01*
X5883353Y845706D01*
X5817471Y886882D02*
X5866882Y886882D01*
X5914400Y845706D02*
X5914400Y944529D01*
X5996753D01*
X5980282Y895118D02*
X5914400Y895118D01*
X5801000Y2245706D02*
X5842176Y2344529D01*
X5883353Y2245706D01*
X5817471Y2286882D02*
X5866882Y2286882D01*
X5914400Y2245706D02*
X5914400Y2344529D01*
X5996753D01*
X5980282Y2295118D02*
X5914400Y2295118D01*
X5830000Y5853906D02*
X5871176Y5952729D01*
X5912353Y5853906D01*
X5846471Y5895082D02*
X5895882Y5895082D01*
X6025753Y5870376D02*
X6017518Y5862141D01*
X6001047Y5853906D01*
X5976341D01*
X5959871Y5862141D01*
X5951635Y5870376D01*
X5943400Y5886847D01*
Y5919788D01*
X5951635Y5936259D01*
X5959871Y5944494D01*
X5976341Y5952729D01*
X6001047D01*
X6017518Y5944494D01*
X6025753Y5936259D01*
X5905000Y4308529D02*
X5913235Y4209706D01*
X5946176Y4259118D01*
X5979118Y4209706D01*
X5987353Y4308529D01*
X5905000Y5188529D02*
X5913235Y5089706D01*
X5946176Y5139118D01*
X5979118Y5089706D01*
X5987353Y5188529D01*
X6042008Y445506D02*
X6083184Y544329D01*
X6124361Y445506D01*
X6058479Y486682D02*
X6107890Y486682D01*
X6237761Y461976D02*
X6229526Y453741D01*
X6213055Y445506D01*
X6188349D01*
X6171879Y453741D01*
X6163643Y461976D01*
X6155408Y478447D01*
Y511388D01*
X6163643Y527859D01*
X6171879Y536094D01*
X6188349Y544329D01*
X6213055D01*
X6229526Y536094D01*
X6237761Y527859D01*
X6290000Y5853906D02*
X6331176Y5952729D01*
X6372353Y5853906D01*
X6306471Y5895082D02*
X6355882Y5895082D01*
X6485753Y5870376D02*
X6477518Y5862141D01*
X6461047Y5853906D01*
X6436341D01*
X6419871Y5862141D01*
X6411635Y5870376D01*
X6403400Y5886847D01*
Y5919788D01*
X6411635Y5936259D01*
X6419871Y5944494D01*
X6436341Y5952729D01*
X6461047D01*
X6477518Y5944494D01*
X6485753Y5936259D01*
X6309000Y845706D02*
X6350176Y944529D01*
X6391353Y845706D01*
X6325471Y886882D02*
X6374882Y886882D01*
X6422400Y845706D02*
X6422400Y944529D01*
X6504753D01*
X6488282Y895118D02*
X6422400Y895118D01*
X6309000Y2245706D02*
X6350176Y2344529D01*
X6391353Y2245706D01*
X6325471Y2286882D02*
X6374882Y2286882D01*
X6422400Y2245706D02*
X6422400Y2344529D01*
X6504753D01*
X6488282Y2295118D02*
X6422400Y2295118D01*
X6502008Y445506D02*
X6543184Y544329D01*
X6584361Y445506D01*
X6518479Y486682D02*
X6567890Y486682D01*
X6697761Y461976D02*
X6689526Y453741D01*
X6673055Y445506D01*
X6648349D01*
X6631879Y453741D01*
X6623643Y461976D01*
X6615408Y478447D01*
Y511388D01*
X6623643Y527859D01*
X6631879Y536094D01*
X6648349Y544329D01*
X6673055D01*
X6689526Y536094D01*
X6697761Y527859D01*
X6555000Y4399706D02*
X6587941Y4399706D01*
X6571471D02*
X6571471Y4498529D01*
X6555000D02*
X6587941Y4498529D01*
X6555000Y4649706D02*
X6587941Y4649706D01*
X6571471D02*
X6571471Y4748529D01*
X6555000D02*
X6587941Y4748529D01*
X6555000Y4899706D02*
X6587941Y4899706D01*
X6571471D02*
X6571471Y4998529D01*
X6555000D02*
X6587941Y4998529D01*
X6573000Y944529D02*
X6573000Y845706D01*
X6655353D01*
X6573000Y1198529D02*
X6573000Y1099706D01*
X6655353D01*
X6573000Y1452529D02*
X6573000Y1353706D01*
X6655353D01*
X6573000Y2344529D02*
X6573000Y2245706D01*
X6655353D01*
X6573000Y2598529D02*
X6573000Y2499706D01*
X6655353D01*
X6573000Y2852529D02*
X6573000Y2753706D01*
X6655353D01*
X6750000Y5853906D02*
X6791176Y5952729D01*
X6832353Y5853906D01*
X6766471Y5895082D02*
X6815882Y5895082D01*
X6945753Y5870376D02*
X6937518Y5862141D01*
X6921047Y5853906D01*
X6896341D01*
X6879871Y5862141D01*
X6871635Y5870376D01*
X6863400Y5886847D01*
Y5919788D01*
X6871635Y5936259D01*
X6879871Y5944494D01*
X6896341Y5952729D01*
X6921047D01*
X6937518Y5944494D01*
X6945753Y5936259D01*
X6962008Y445506D02*
X7003184Y544329D01*
X7044361Y445506D01*
X6978479Y486682D02*
X7027890Y486682D01*
X7157761Y461976D02*
X7149526Y453741D01*
X7133055Y445506D01*
X7108349D01*
X7091879Y453741D01*
X7083643Y461976D01*
X7075408Y478447D01*
Y511388D01*
X7083643Y527859D01*
X7091879Y536094D01*
X7108349Y544329D01*
X7133055D01*
X7149526Y536094D01*
X7157761Y527859D01*
X7310000Y682647D02*
X7310000Y715588D01*
X7318235Y732059D01*
X7326471Y740294D01*
X7342941Y748529D01*
X7359412D01*
X7375882Y740294D01*
X7384118Y732059D01*
X7392353Y715588D01*
Y682647D01*
X7384118Y666176D01*
X7375882Y657941D01*
X7359412Y649706D01*
X7342941D01*
X7326471Y657941D01*
X7318235Y666176D01*
X7310000Y682647D01*
X7367647Y674412D02*
X7392353Y649706D01*
X7310000Y5682647D02*
X7310000Y5715588D01*
X7318235Y5732059D01*
X7326471Y5740294D01*
X7342941Y5748529D01*
X7359412D01*
X7375882Y5740294D01*
X7384118Y5732059D01*
X7392353Y5715588D01*
Y5682647D01*
X7384118Y5666176D01*
X7375882Y5657941D01*
X7359412Y5649706D01*
X7342941D01*
X7326471Y5657941D01*
X7318235Y5666176D01*
X7310000Y5682647D01*
X7367647Y5674412D02*
X7392353Y5649706D01*
X7374200Y820264D02*
X7415376Y919087D01*
X7456553Y820264D01*
X7390671Y861440D02*
X7440082Y861440D01*
X7569953Y836734D02*
X7561718Y828499D01*
X7545247Y820264D01*
X7520541D01*
X7504071Y828499D01*
X7495835Y836734D01*
X7487600Y853205D01*
Y886146D01*
X7495835Y902617D01*
X7504071Y910852D01*
X7520541Y919087D01*
X7545247D01*
X7561718Y910852D01*
X7569953Y902617D01*
X7374200Y1280264D02*
X7415376Y1379087D01*
X7456553Y1280264D01*
X7390671Y1321440D02*
X7440082Y1321440D01*
X7569953Y1296734D02*
X7561718Y1288499D01*
X7545247Y1280264D01*
X7520541D01*
X7504071Y1288499D01*
X7495835Y1296734D01*
X7487600Y1313205D01*
Y1346146D01*
X7495835Y1362617D01*
X7504071Y1370852D01*
X7520541Y1379087D01*
X7545247D01*
X7561718Y1370852D01*
X7569953Y1362617D01*
X7374200Y1740264D02*
X7415376Y1839087D01*
X7456553Y1740264D01*
X7390671Y1781440D02*
X7440082Y1781440D01*
X7569953Y1756734D02*
X7561718Y1748499D01*
X7545247Y1740264D01*
X7520541D01*
X7504071Y1748499D01*
X7495835Y1756734D01*
X7487600Y1773205D01*
Y1806146D01*
X7495835Y1822617D01*
X7504071Y1830852D01*
X7520541Y1839087D01*
X7545247D01*
X7561718Y1830852D01*
X7569953Y1822617D01*
X7374200Y2200264D02*
X7415376Y2299087D01*
X7456553Y2200264D01*
X7390671Y2241440D02*
X7440082Y2241440D01*
X7569953Y2216734D02*
X7561718Y2208499D01*
X7545247Y2200264D01*
X7520541D01*
X7504071Y2208499D01*
X7495835Y2216734D01*
X7487600Y2233205D01*
Y2266146D01*
X7495835Y2282617D01*
X7504071Y2290852D01*
X7520541Y2299087D01*
X7545247D01*
X7561718Y2290852D01*
X7569953Y2282617D01*
X7374200Y2660264D02*
X7415376Y2759087D01*
X7456553Y2660264D01*
X7390671Y2701440D02*
X7440082Y2701440D01*
X7569953Y2676734D02*
X7561718Y2668499D01*
X7545247Y2660264D01*
X7520541D01*
X7504071Y2668499D01*
X7495835Y2676734D01*
X7487600Y2693205D01*
Y2726146D01*
X7495835Y2742617D01*
X7504071Y2750852D01*
X7520541Y2759087D01*
X7545247D01*
X7561718Y2750852D01*
X7569953Y2742617D01*
X7374200Y3120264D02*
X7415376Y3219087D01*
X7456553Y3120264D01*
X7390671Y3161440D02*
X7440082Y3161440D01*
X7569953Y3136734D02*
X7561718Y3128499D01*
X7545247Y3120264D01*
X7520541D01*
X7504071Y3128499D01*
X7495835Y3136734D01*
X7487600Y3153205D01*
Y3186146D01*
X7495835Y3202617D01*
X7504071Y3210852D01*
X7520541Y3219087D01*
X7545247D01*
X7561718Y3210852D01*
X7569953Y3202617D01*
X7374200Y3580264D02*
X7415376Y3679087D01*
X7456553Y3580264D01*
X7390671Y3621440D02*
X7440082Y3621440D01*
X7569953Y3596734D02*
X7561718Y3588499D01*
X7545247Y3580264D01*
X7520541D01*
X7504071Y3588499D01*
X7495835Y3596734D01*
X7487600Y3613205D01*
Y3646146D01*
X7495835Y3662617D01*
X7504071Y3670852D01*
X7520541Y3679087D01*
X7545247D01*
X7561718Y3670852D01*
X7569953Y3662617D01*
X7374200Y4040264D02*
X7415376Y4139087D01*
X7456553Y4040264D01*
X7390671Y4081440D02*
X7440082Y4081440D01*
X7569953Y4056734D02*
X7561718Y4048499D01*
X7545247Y4040264D01*
X7520541D01*
X7504071Y4048499D01*
X7495835Y4056734D01*
X7487600Y4073205D01*
Y4106146D01*
X7495835Y4122617D01*
X7504071Y4130852D01*
X7520541Y4139087D01*
X7545247D01*
X7561718Y4130852D01*
X7569953Y4122617D01*
X7374200Y4500264D02*
X7415376Y4599087D01*
X7456553Y4500264D01*
X7390671Y4541440D02*
X7440082Y4541440D01*
X7569953Y4516734D02*
X7561718Y4508499D01*
X7545247Y4500264D01*
X7520541D01*
X7504071Y4508499D01*
X7495835Y4516734D01*
X7487600Y4533205D01*
Y4566146D01*
X7495835Y4582617D01*
X7504071Y4590852D01*
X7520541Y4599087D01*
X7545247D01*
X7561718Y4590852D01*
X7569953Y4582617D01*
X7374200Y4960264D02*
X7415376Y5059087D01*
X7456553Y4960264D01*
X7390671Y5001440D02*
X7440082Y5001440D01*
X7569953Y4976734D02*
X7561718Y4968499D01*
X7545247Y4960264D01*
X7520541D01*
X7504071Y4968499D01*
X7495835Y4976734D01*
X7487600Y4993205D01*
Y5026146D01*
X7495835Y5042617D01*
X7504071Y5050852D01*
X7520541Y5059087D01*
X7545247D01*
X7561718Y5050852D01*
X7569953Y5042617D01*
X7374200Y5420264D02*
X7415376Y5519087D01*
X7456553Y5420264D01*
X7390671Y5461440D02*
X7440082Y5461440D01*
X7569953Y5436734D02*
X7561718Y5428499D01*
X7545247Y5420264D01*
X7520541D01*
X7504071Y5428499D01*
X7495835Y5436734D01*
X7487600Y5453205D01*
Y5486146D01*
X7495835Y5502617D01*
X7504071Y5510852D01*
X7520541Y5519087D01*
X7545247D01*
X7561718Y5510852D01*
X7569953Y5502617D01*
D02*
D78*
X5450000Y5484000D03*
D02*
D79*
X750000Y625000D03*
Y5625000D03*
X7150000Y625000D03*
Y5625000D03*
D02*
D80*
X1350000Y4375000D03*
Y4625000D03*
Y4875000D03*
X1646000Y821000D03*
Y2221000D03*
X2154000Y821000D03*
Y2221000D03*
X2800000Y4375000D03*
Y4875000D03*
X3061000Y912000D03*
Y1166000D03*
Y1420000D03*
Y1674000D03*
Y1928000D03*
Y2182000D03*
Y2436000D03*
Y2690000D03*
Y2944000D03*
Y3198000D03*
Y3452000D03*
Y3706000D03*
Y3960000D03*
Y4214000D03*
Y4468000D03*
Y4722000D03*
Y4976000D03*
Y5230000D03*
Y5484000D03*
Y5738000D03*
X3569000Y2841500D03*
X3823000D03*
Y3275000D03*
X4077000Y2841500D03*
Y3275000D03*
X4331000Y2841500D03*
X4839000Y912000D03*
Y1166000D03*
Y1420000D03*
Y1674000D03*
Y1928000D03*
Y2182000D03*
Y2436000D03*
Y2690000D03*
Y2944000D03*
Y3198000D03*
Y3452000D03*
Y3706000D03*
Y3960000D03*
Y4214000D03*
Y4468000D03*
Y4722000D03*
Y4976000D03*
Y5230000D03*
Y5484000D03*
Y5738000D03*
X5746000Y821000D03*
Y2221000D03*
X6254000Y821000D03*
Y2221000D03*
X6500000Y4375000D03*
Y4625000D03*
Y4875000D03*
D02*
D81*
X2100000Y4025000D03*
Y5225000D03*
D02*
D82*
X3569000Y4925000D03*
X3823000D03*
X4077000D03*
X4331000D03*
D02*
D83*
X1392000Y821000D03*
Y1075000D03*
Y1329000D03*
Y2221000D03*
Y2475000D03*
Y2729000D03*
X2408000Y821000D03*
Y1075000D03*
Y1329000D03*
Y2221000D03*
Y2475000D03*
Y2729000D03*
X5492000Y821000D03*
Y1075000D03*
Y1329000D03*
Y2221000D03*
Y2475000D03*
Y2729000D03*
X6508000Y821000D03*
Y1075000D03*
Y1329000D03*
Y2221000D03*
Y2475000D03*
Y2729000D03*
D02*
D84*
X2900000Y601500D03*
X5000000D03*
X0Y0D02*
M02*
