G04 GENERATED BY PULSONIX 12.5 GERBER.DLL 9449*
G04 #@! TF.GenerationSoftware,Pulsonix,Pulsonix,12.5.9449*
G04 #@! TF.CreationDate,2025-01-20T21:22:03--1:00*
G04 #@! TF.Part,Single*
%FSLAX35Y35*%
%LPD*%
%MOMM*%
G04 #@! TF.FileFunction,Copper,L2,Bot*
G04 #@! TF.FilePolarity,Positive*
G04 #@! TA.AperFunction,OtherCopper,Copper*
%ADD14C,0.50000*%
%ADD15C,0.30000*%
G04 #@! TA.AperFunction,ViaPad*
%ADD17C,0.60000*%
%ADD18C,0.70000*%
G04 #@! TA.AperFunction,Conductor*
%ADD19C,0.63500*%
%ADD70C,0.40640*%
G04 #@! TA.AperFunction,ComponentPad*
%ADD23C,1.70000*%
%ADD26C,3.50000*%
%ADD27R,1.90500X1.90500*%
%AMT28*0 Octagon pad*4,1,8,0.39454,0.95250,-0.39454,0.95250,-0.95250,0.39454,-0.95250,-0.39454,-0.39454,-0.95250,0.39454,-0.95250,0.95250,-0.39454,0.95250,0.39454,0.39454,0.95250,0*%
%ADD28T28*%
%ADD72R,2.00000X2.00000*%
%ADD73C,2.00000*%
%ADD75C,3.25000*%
G04 #@! TD.AperFunction*
X0Y0D02*
D02*
D14*
X540800Y5625000D02*
Y625000D01*
G75*
G03*
X750000Y415800I209200J0D01*
G01*
X7150000D01*
G75*
G03*
X7359200Y625000I0J209200D01*
G01*
Y5625000D01*
G75*
G03*
X7150000Y5834200I-209200J0D01*
G01*
X4919191D01*
G75*
G02*
X4804306Y5617662I-80191J-96200D01*
G01*
X4782328Y5595684D01*
G75*
G02*
X4964240Y5484000I56672J-111684D01*
G01*
G75*
G02*
X4851562Y5359392I-125240J0D01*
G01*
G75*
G02*
Y5100608I-12562J-129392D01*
G01*
G75*
G02*
X4964240Y4976000I-12562J-124608D01*
G01*
G75*
G02*
X4713760I-125240J0D01*
G01*
G75*
G02*
X4826438Y5100608I125240J0D01*
G01*
G75*
G02*
X4710560Y5209921I12562J129392D01*
G01*
Y3980079D01*
G75*
G02*
X4826438Y4089392I128440J-20079D01*
G01*
G75*
G02*
X4713760Y4214000I12562J124608D01*
G01*
G75*
G02*
X4964240I125240J0D01*
G01*
G75*
G02*
X4851562Y4089392I-125240J0D01*
G01*
G75*
G02*
Y3830608I-12562J-129392D01*
G01*
G75*
G02*
X4964240Y3706000I-12562J-124608D01*
G01*
G75*
G02*
X4713760I-125240J0D01*
G01*
G75*
G02*
X4826438Y3830608I125240J0D01*
G01*
G75*
G02*
X4710560Y3939921I12562J129392D01*
G01*
Y3210583D01*
G75*
G02*
X4713911Y3204139I-60559J-35585D01*
G01*
G75*
G02*
X4964240Y3198000I125089J-6139D01*
G01*
G75*
G02*
X4951489Y3142943I-125240J0D01*
G01*
X5641133D01*
X6428010Y3929820D01*
Y4272518D01*
G75*
G02*
X6376630Y4396560I71990J102482D01*
G01*
X6249095Y4524095D01*
G75*
G02*
X6228010Y4575279I50905J50905D01*
G01*
Y5129180D01*
X5945180Y5412010D01*
X5471875D01*
G75*
G02*
X5374760Y5484000I-21875J71990D01*
G01*
G75*
G02*
X5471875Y5555990I75240J0D01*
G01*
X5974721D01*
G75*
G02*
X6025905Y5534905I279J-71990D01*
G01*
X6350905Y5209905D01*
G75*
G02*
X6371990Y5158721I-50905J-50905D01*
G01*
Y4897659D01*
G75*
G02*
X6630000Y4875000I128010J-22659D01*
G01*
G75*
G02*
X6525722Y4747570I-130000J0D01*
G01*
G75*
G02*
X6507750Y4500000I-25722J-122570D01*
G01*
G75*
G02*
X6571990Y4272518I-7750J-125000D01*
G01*
Y3900279D01*
G75*
G02*
X6550905Y3849095I-71990J-279D01*
G01*
X5721858Y3020048D01*
G75*
G02*
X5670674Y2998963I-50905J50905D01*
G01*
X4951535D01*
G75*
G02*
X4851562Y2819392I-112535J-54963D01*
G01*
G75*
G02*
Y2560608I-12562J-129392D01*
G01*
G75*
G02*
X4964240Y2436000I-12562J-124608D01*
G01*
G75*
G02*
X4713760I-125240J0D01*
G01*
G75*
G02*
X4826438Y2560608I125240J0D01*
G01*
G75*
G02*
Y2819392I12562J129392D01*
G01*
G75*
G02*
X4726465Y2998963I12562J124608D01*
G01*
X4281048D01*
G75*
G02*
X4230034Y3020158I0J71990D01*
G01*
X4148990Y3101202D01*
Y3095779D01*
G75*
G02*
X4127905Y3044595I-71990J-279D01*
G01*
X4046205Y2962895D01*
G75*
G02*
X4202240Y2841500I30795J-121395D01*
G01*
G75*
G02*
X3951760I-125240J0D01*
G01*
G75*
G02*
X3955605Y2872295I125240J0D01*
G01*
X3946370Y2863060D01*
G75*
G02*
X3948240Y2841500I-123370J-21562D01*
G01*
G75*
G02*
X3698392Y2828938I-125240J0D01*
G01*
G75*
G02*
X3439000Y2841500I-129392J12562D01*
G01*
G75*
G02*
X3698392Y2854062I130000J0D01*
G01*
G75*
G02*
X3844560Y2964870I124608J-12562D01*
G01*
X4005010Y3125320D01*
Y3172518D01*
G75*
G02*
Y3377482I71990J102482D01*
G01*
Y3676180D01*
X3182395Y4498795D01*
G75*
G02*
X3186240Y4468000I-121395J-30795D01*
G01*
G75*
G02*
X2935760I-125240J0D01*
G01*
G75*
G02*
X3091795Y4589395I125240J0D01*
G01*
X3082560Y4598630D01*
G75*
G02*
X2935760Y4722000I-21560J123370D01*
G01*
G75*
G02*
X3186240I125240J0D01*
G01*
G75*
G02*
X3184370Y4700440I-125240J2D01*
G01*
X4127905Y3756905D01*
G75*
G02*
X4148990Y3705721I-50905J-50905D01*
G01*
Y3377482D01*
G75*
G02*
X4200370Y3253439I-71990J-102482D01*
G01*
X4310867Y3142943D01*
X4437502D01*
G75*
G02*
X4439440Y3210583I62498J32057D01*
G01*
Y4835096D01*
X4402274Y4797930D01*
G75*
G02*
X4370297Y4784750I-31820J31820D01*
G01*
X4291703D01*
G75*
G02*
X4259726Y4797930I-157J45000D01*
G01*
X4203930Y4853726D01*
G75*
G02*
X4200805Y4857193I31819J31822D01*
G01*
X4200704Y4857092D01*
X4144908Y4801296D01*
G75*
G02*
X4116403Y4789510I-28454J28454D01*
G01*
X4037597D01*
G75*
G02*
X4009092Y4801296I-51J40240D01*
G01*
X3953296Y4857092D01*
G75*
G02*
X3950000Y4860824I28455J28452D01*
G01*
G75*
G02*
X3946704Y4857092I-31751J24720D01*
G01*
X3890908Y4801296D01*
G75*
G02*
X3862403Y4789510I-28454J28454D01*
G01*
X3783597D01*
G75*
G02*
X3755092Y4801296I-51J40240D01*
G01*
X3704490Y4851898D01*
Y4829750D01*
G75*
G02*
X3664250Y4789510I-40240J0D01*
G01*
X3473750D01*
G75*
G02*
X3433510Y4829750I0J40240D01*
G01*
Y5020250D01*
G75*
G02*
X3473750Y5060490I40240J0D01*
G01*
X3664250D01*
G75*
G02*
X3704490Y5020250I0J-40240D01*
G01*
Y4998102D01*
X3755092Y5048704D01*
G75*
G02*
X3783597Y5060490I28454J-28454D01*
G01*
X3862403D01*
G75*
G02*
X3890908Y5048704I51J-40240D01*
G01*
X3946704Y4992908D01*
G75*
G02*
X3950000Y4989176I-28455J-28452D01*
G01*
G75*
G02*
X3953296Y4992908I31751J-24720D01*
G01*
X4009092Y5048704D01*
G75*
G02*
X4037597Y5060490I28454J-28454D01*
G01*
X4116403D01*
G75*
G02*
X4144908Y5048704I51J-40240D01*
G01*
X4200704Y4992908D01*
X4200805Y4992807D01*
G75*
G02*
X4203930Y4996274I34944J-28355D01*
G01*
X4259726Y5052070D01*
G75*
G02*
X4291703Y5065250I31820J-31820D01*
G01*
X4370297D01*
G75*
G02*
X4402274Y5052070I157J-45000D01*
G01*
X4439440Y5014904D01*
Y5399000D01*
G75*
G02*
X4457360Y5442004I60560J0D01*
G01*
X4718662Y5703306D01*
G75*
G02*
X4758809Y5834200I120338J34694D01*
G01*
X3141191D01*
G75*
G02*
X3186240Y5738000I-80191J-96200D01*
G01*
G75*
G02*
X2935760I-125240J0D01*
G01*
G75*
G02*
X2980809Y5834200I125240J0D01*
G01*
X750000D01*
G75*
G03*
X540800Y5625000I0J-209200D01*
G01*
X7345240Y625000D02*
G75*
G02*
X6954760I-195240J0D01*
G01*
G75*
G02*
X7345240I195240J0D01*
G01*
Y5625000D02*
G75*
G02*
X6954760I-195240J0D01*
G01*
G75*
G02*
X7345240I195240J0D01*
G01*
X4964240Y4468000D02*
G75*
G02*
X4713760I-125240J0D01*
G01*
G75*
G02*
X4964240I125240J0D01*
G01*
Y4722000D02*
G75*
G02*
X4713760I-125240J0D01*
G01*
G75*
G02*
X4964240I125240J0D01*
G01*
Y3452000D02*
G75*
G02*
X4713760I-125240J0D01*
G01*
G75*
G02*
X4964240I125240J0D01*
G01*
X6002740Y4185000D02*
G75*
G02*
X5597260I-202740J0D01*
G01*
G75*
G02*
X6002740I202740J0D01*
G01*
Y5065000D02*
G75*
G02*
X5597260I-202740J0D01*
G01*
G75*
G02*
X6002740I202740J0D01*
G01*
X6344240Y821000D02*
G75*
G02*
X6163760I-90240J0D01*
G01*
G75*
G02*
X6344240I90240J0D01*
G01*
Y2221000D02*
G75*
G02*
X6163760I-90240J0D01*
G01*
G75*
G02*
X6344240I90240J0D01*
G01*
X6438029Y948000D02*
G75*
G02*
X6443116Y1204673I69971J127000D01*
G01*
G75*
G02*
X6367760Y1329000I64884J124327D01*
G01*
G75*
G02*
X6648240I140240J0D01*
G01*
G75*
G02*
X6572884Y1204673I-140240J0D01*
G01*
G75*
G02*
X6577971Y948000I-64884J-129673D01*
G01*
G75*
G02*
X6653000Y821000I-69971J-127000D01*
G01*
G75*
G02*
X6363000I-145000J0D01*
G01*
G75*
G02*
X6438029Y948000I145000J0D01*
G01*
Y2348000D02*
G75*
G02*
X6443116Y2604673I69971J127000D01*
G01*
G75*
G02*
X6367760Y2729000I64884J124327D01*
G01*
G75*
G02*
X6648240I140240J0D01*
G01*
G75*
G02*
X6572884Y2604673I-140240J0D01*
G01*
G75*
G02*
X6577971Y2348000I-64884J-129673D01*
G01*
G75*
G02*
X6653000Y2221000I-69971J-127000D01*
G01*
G75*
G02*
X6363000I-145000J0D01*
G01*
G75*
G02*
X6438029Y2348000I145000J0D01*
G01*
X5427116Y950673D02*
G75*
G02*
X5409988Y1188760I64884J124327D01*
G01*
X5392000D01*
G75*
G02*
X5351760Y1229000I0J40240D01*
G01*
Y1429000D01*
G75*
G02*
X5392000Y1469240I40240J0D01*
G01*
X5592000D01*
G75*
G02*
X5632240Y1429000I0J-40240D01*
G01*
Y1229000D01*
G75*
G02*
X5592000Y1188760I-40240J0D01*
G01*
X5574012D01*
G75*
G02*
X5556884Y950673I-82012J-113760D01*
G01*
G75*
G02*
X5637000Y821000I-64884J-129673D01*
G01*
G75*
G02*
X5347000I-145000J0D01*
G01*
G75*
G02*
X5427116Y950673I145000J0D01*
G01*
Y2350673D02*
G75*
G02*
X5409988Y2588760I64884J124327D01*
G01*
X5392000D01*
G75*
G02*
X5351760Y2629000I0J40240D01*
G01*
Y2829000D01*
G75*
G02*
X5392000Y2869240I40240J0D01*
G01*
X5592000D01*
G75*
G02*
X5632240Y2829000I0J-40240D01*
G01*
Y2629000D01*
G75*
G02*
X5592000Y2588760I-40240J0D01*
G01*
X5574012D01*
G75*
G02*
X5556884Y2350673I-82012J-113760D01*
G01*
G75*
G02*
X5637000Y2221000I-64884J-129673D01*
G01*
G75*
G02*
X5347000I-145000J0D01*
G01*
G75*
G02*
X5427116Y2350673I145000J0D01*
G01*
X5836240Y821000D02*
G75*
G02*
X5655760I-90240J0D01*
G01*
G75*
G02*
X5836240I90240J0D01*
G01*
Y2221000D02*
G75*
G02*
X5655760I-90240J0D01*
G01*
G75*
G02*
X5836240I90240J0D01*
G01*
X4964240Y1674000D02*
G75*
G02*
X4851562Y1549392I-125240J0D01*
G01*
G75*
G02*
Y1290608I-12562J-129392D01*
G01*
G75*
G02*
X4964240Y1166000I-12562J-124608D01*
G01*
G75*
G02*
X4713760I-125240J0D01*
G01*
G75*
G02*
X4826438Y1290608I125240J0D01*
G01*
G75*
G02*
Y1549392I12562J129392D01*
G01*
G75*
G02*
X4713760Y1674000I12562J124608D01*
G01*
G75*
G02*
X4964240I125240J0D01*
G01*
Y912000D02*
G75*
G02*
X4713760I-125240J0D01*
G01*
G75*
G02*
X4964240I125240J0D01*
G01*
X5165240Y601500D02*
G75*
G02*
X4834760I-165240J0D01*
G01*
G75*
G02*
X5165240I165240J0D01*
G01*
X4964240Y1928000D02*
G75*
G02*
X4713760I-125240J0D01*
G01*
G75*
G02*
X4964240I125240J0D01*
G01*
Y2182000D02*
G75*
G02*
X4713760I-125240J0D01*
G01*
G75*
G02*
X4964240I125240J0D01*
G01*
X4456240Y2841500D02*
G75*
G02*
X4205760I-125240J0D01*
G01*
G75*
G02*
X4456240I125240J0D01*
G01*
X3948240Y3275000D02*
G75*
G02*
X3697760I-125240J0D01*
G01*
G75*
G02*
X3948240I125240J0D01*
G01*
X1324278Y4752430D02*
G75*
G02*
X1224760Y4875000I25722J122570D01*
G01*
G75*
G02*
X1475240I125240J0D01*
G01*
G75*
G02*
X1375722Y4752430I-125240J0D01*
G01*
G75*
G02*
Y4497570I-25722J-127430D01*
G01*
G75*
G02*
X1475240Y4375000I-25722J-122570D01*
G01*
G75*
G02*
X1224760I-125240J0D01*
G01*
G75*
G02*
X1324278Y4497570I125240J0D01*
G01*
G75*
G02*
Y4752430I25722J127430D01*
G01*
X1327116Y950673D02*
G75*
G02*
X1309988Y1188760I64884J124327D01*
G01*
X1292000D01*
G75*
G02*
X1251760Y1229000I0J40240D01*
G01*
Y1429000D01*
G75*
G02*
X1292000Y1469240I40240J0D01*
G01*
X1492000D01*
G75*
G02*
X1532240Y1429000I0J-40240D01*
G01*
Y1229000D01*
G75*
G02*
X1492000Y1188760I-40240J0D01*
G01*
X1474012D01*
G75*
G02*
X1456884Y950673I-82012J-113760D01*
G01*
G75*
G02*
X1537000Y821000I-64884J-129673D01*
G01*
G75*
G02*
X1247000I-145000J0D01*
G01*
G75*
G02*
X1327116Y950673I145000J0D01*
G01*
Y2350673D02*
G75*
G02*
X1309988Y2588760I64884J124327D01*
G01*
X1292000D01*
G75*
G02*
X1251760Y2629000I0J40240D01*
G01*
Y2829000D01*
G75*
G02*
X1292000Y2869240I40240J0D01*
G01*
X1492000D01*
G75*
G02*
X1532240Y2829000I0J-40240D01*
G01*
Y2629000D01*
G75*
G02*
X1492000Y2588760I-40240J0D01*
G01*
X1474012D01*
G75*
G02*
X1456884Y2350673I-82012J-113760D01*
G01*
G75*
G02*
X1537000Y2221000I-64884J-129673D01*
G01*
G75*
G02*
X1247000I-145000J0D01*
G01*
G75*
G02*
X1327116Y2350673I145000J0D01*
G01*
X1736240Y821000D02*
G75*
G02*
X1555760I-90240J0D01*
G01*
G75*
G02*
X1736240I90240J0D01*
G01*
Y2221000D02*
G75*
G02*
X1555760I-90240J0D01*
G01*
G75*
G02*
X1736240I90240J0D01*
G01*
X2320000Y4025000D02*
G75*
G02*
X1880000I-220000J0D01*
G01*
G75*
G02*
X2320000I220000J0D01*
G01*
X2244240Y821000D02*
G75*
G02*
X2063760I-90240J0D01*
G01*
G75*
G02*
X2244240I90240J0D01*
G01*
Y2221000D02*
G75*
G02*
X2063760I-90240J0D01*
G01*
G75*
G02*
X2244240I90240J0D01*
G01*
X2338029Y948000D02*
G75*
G02*
X2343116Y1204673I69971J127000D01*
G01*
G75*
G02*
X2267760Y1329000I64884J124327D01*
G01*
G75*
G02*
X2548240I140240J0D01*
G01*
G75*
G02*
X2472884Y1204673I-140240J0D01*
G01*
G75*
G02*
X2477971Y948000I-64884J-129673D01*
G01*
G75*
G02*
X2553000Y821000I-69971J-127000D01*
G01*
G75*
G02*
X2263000I-145000J0D01*
G01*
G75*
G02*
X2338029Y948000I145000J0D01*
G01*
Y2348000D02*
G75*
G02*
X2343116Y2604673I69971J127000D01*
G01*
G75*
G02*
X2267760Y2729000I64884J124327D01*
G01*
G75*
G02*
X2548240I140240J0D01*
G01*
G75*
G02*
X2472884Y2604673I-140240J0D01*
G01*
G75*
G02*
X2477971Y2348000I-64884J-129673D01*
G01*
G75*
G02*
X2553000Y2221000I-69971J-127000D01*
G01*
G75*
G02*
X2263000I-145000J0D01*
G01*
G75*
G02*
X2338029Y2348000I145000J0D01*
G01*
X2320000Y5225000D02*
G75*
G02*
X1880000I-220000J0D01*
G01*
G75*
G02*
X2320000I220000J0D01*
G01*
X2930000Y4875000D02*
G75*
G02*
X2670000I-130000J0D01*
G01*
G75*
G02*
X2930000I130000J0D01*
G01*
X2925240Y4375000D02*
G75*
G02*
X2674760I-125240J0D01*
G01*
G75*
G02*
X2925240I125240J0D01*
G01*
X3065240Y601500D02*
G75*
G02*
X2734760I-165240J0D01*
G01*
G75*
G02*
X3065240I165240J0D01*
G01*
X3048438Y1549392D02*
G75*
G02*
X2935760Y1674000I12562J124608D01*
G01*
G75*
G02*
X3186240I125240J0D01*
G01*
G75*
G02*
X3073562Y1549392I-125240J0D01*
G01*
G75*
G02*
Y1290608I-12562J-129392D01*
G01*
G75*
G02*
X3186240Y1166000I-12562J-124608D01*
G01*
G75*
G02*
X2935760I-125240J0D01*
G01*
G75*
G02*
X3048438Y1290608I125240J0D01*
G01*
G75*
G02*
Y1549392I12562J129392D01*
G01*
X3186240Y912000D02*
G75*
G02*
X2935760I-125240J0D01*
G01*
G75*
G02*
X3186240I125240J0D01*
G01*
X3048438Y2819392D02*
G75*
G02*
X2935760Y2944000I12562J124608D01*
G01*
G75*
G02*
X3186240I125240J0D01*
G01*
G75*
G02*
X3073562Y2819392I-125240J0D01*
G01*
G75*
G02*
Y2560608I-12562J-129392D01*
G01*
G75*
G02*
X3186240Y2436000I-12562J-124608D01*
G01*
G75*
G02*
X2935760I-125240J0D01*
G01*
G75*
G02*
X3048438Y2560608I125240J0D01*
G01*
G75*
G02*
Y2819392I12562J129392D01*
G01*
X3186240Y1928000D02*
G75*
G02*
X2935760I-125240J0D01*
G01*
G75*
G02*
X3186240I125240J0D01*
G01*
Y2182000D02*
G75*
G02*
X2935760I-125240J0D01*
G01*
G75*
G02*
X3186240I125240J0D01*
G01*
X3048438Y4089392D02*
G75*
G02*
X2935760Y4214000I12562J124608D01*
G01*
G75*
G02*
X3186240I125240J0D01*
G01*
G75*
G02*
X3073562Y4089392I-125240J0D01*
G01*
G75*
G02*
Y3830608I-12562J-129392D01*
G01*
G75*
G02*
X3186240Y3706000I-12562J-124608D01*
G01*
G75*
G02*
X2935760I-125240J0D01*
G01*
G75*
G02*
X3048438Y3830608I125240J0D01*
G01*
G75*
G02*
Y4089392I12562J129392D01*
G01*
X3186240Y3198000D02*
G75*
G02*
X2935760I-125240J0D01*
G01*
G75*
G02*
X3186240I125240J0D01*
G01*
Y3452000D02*
G75*
G02*
X2935760I-125240J0D01*
G01*
G75*
G02*
X3186240I125240J0D01*
G01*
X3048438Y5359392D02*
G75*
G02*
X2935760Y5484000I12562J124608D01*
G01*
G75*
G02*
X3186240I125240J0D01*
G01*
G75*
G02*
X3073562Y5359392I-125240J0D01*
G01*
G75*
G02*
Y5100608I-12562J-129392D01*
G01*
G75*
G02*
X3186240Y4976000I-12562J-124608D01*
G01*
G75*
G02*
X2935760I-125240J0D01*
G01*
G75*
G02*
X3048438Y5100608I125240J0D01*
G01*
G75*
G02*
Y5359392I12562J129392D01*
G01*
X945240Y625000D02*
G75*
G02*
X554760I-195240J0D01*
G01*
G75*
G02*
X945240I195240J0D01*
G01*
Y5625000D02*
G75*
G02*
X554760I-195240J0D01*
G01*
G75*
G02*
X945240I195240J0D01*
G01*
X540800Y4722000D02*
G36*
X540800Y4722000D02*
Y4468000D01*
X1266119D01*
G75*
G02*
X1324278Y4497570I83881J-93000D01*
G01*
G75*
G02*
X1220000Y4625000I25722J127430D01*
G01*
G75*
G02*
X1263449Y4722000I130000J0D01*
G01*
X540800D01*
G37*
Y4875000D02*
G36*
X540800Y4875000D02*
Y4722000D01*
X1263449D01*
G75*
G02*
X1324278Y4752430I86551J-97000D01*
G01*
G75*
G02*
X1224760Y4875000I25722J122570D01*
G01*
X540800D01*
G37*
Y1420000D02*
G36*
X540800Y1420000D02*
Y821000D01*
X1247000D01*
G75*
G02*
X1327116Y950673I145000J0D01*
G01*
G75*
G02*
X1251760Y1075000I64884J124327D01*
G01*
G75*
G02*
X1309988Y1188760I140240J0D01*
G01*
X1292000D01*
G75*
G02*
X1251760Y1229000I0J40240D01*
G01*
Y1420000D01*
X540800D01*
G37*
Y2841500D02*
G36*
X540800Y2841500D02*
Y2221000D01*
X1247000D01*
G75*
G02*
X1327116Y2350673I145000J0D01*
G01*
G75*
G02*
X1251760Y2475000I64884J124327D01*
G01*
G75*
G02*
X1309988Y2588760I140240J0D01*
G01*
X1292000D01*
G75*
G02*
X1251760Y2629000I0J40240D01*
G01*
Y2829000D01*
G75*
G02*
X1253751Y2841500I40240J-1D01*
G01*
X540800D01*
G37*
X1456884Y950673D02*
G36*
X1456884Y950673D02*
G75*
G02*
X1537000Y821000I-64884J-129673D01*
G01*
X1555760D01*
G75*
G02*
X1736240I90240J0D01*
G01*
X2063760D01*
G75*
G02*
X2244240I90240J0D01*
G01*
X2263000D01*
G75*
G02*
X2338029Y948000I145000J0D01*
G01*
G75*
G02*
X2263000Y1075000I69971J127000D01*
G01*
G75*
G02*
X2343116Y1204673I145000J0D01*
G01*
G75*
G02*
X2267760Y1329000I64884J124327D01*
G01*
G75*
G02*
X2301294Y1420000I140240J0D01*
G01*
X1532240D01*
Y1229000D01*
G75*
G02*
X1492000Y1188760I-40240J0D01*
G01*
X1474012D01*
G75*
G02*
X1532240Y1075000I-82012J-113760D01*
G01*
G75*
G02*
X1456884Y950673I-140240J0D01*
G01*
G37*
Y2350673D02*
G36*
X1456884Y2350673D02*
G75*
G02*
X1537000Y2221000I-64884J-129673D01*
G01*
X1555760D01*
G75*
G02*
X1736240I90240J0D01*
G01*
X2063760D01*
G75*
G02*
X2244240I90240J0D01*
G01*
X2263000D01*
G75*
G02*
X2338029Y2348000I145000J0D01*
G01*
G75*
G02*
X2263000Y2475000I69971J127000D01*
G01*
G75*
G02*
X2343116Y2604673I145000J0D01*
G01*
G75*
G02*
X2267760Y2729000I64884J124327D01*
G01*
G75*
G02*
X2324268Y2841500I140240J0D01*
G01*
X1530249D01*
G75*
G02*
X1532240Y2829000I-38249J-12501D01*
G01*
Y2629000D01*
G75*
G02*
X1492000Y2588760I-40240J0D01*
G01*
X1474012D01*
G75*
G02*
X1532240Y2475000I-82012J-113760D01*
G01*
G75*
G02*
X1456884Y2350673I-140240J0D01*
G01*
G37*
X540800Y5065000D02*
G36*
X540800Y5065000D02*
Y4875000D01*
X1224760D01*
G75*
G02*
X1475240I125240J0D01*
G01*
X2670000D01*
G75*
G02*
X2930000I130000J0D01*
G01*
X2986946D01*
G75*
G02*
X2935760Y4976000I74054J101000D01*
G01*
G75*
G02*
X2972886Y5065000I125240J0D01*
G01*
X2250997D01*
G75*
G02*
X1949003I-150997J160000D01*
G01*
X540800D01*
G37*
Y5625000D02*
G36*
X540800Y5625000D02*
X554760D01*
G75*
G02*
X945240I195240J0D01*
G01*
X3006999D01*
G75*
G02*
X2935760Y5738000I54001J113000D01*
G01*
G75*
G02*
X2980809Y5834200I125240J0D01*
G01*
X750000D01*
G75*
G03*
X540800Y5625000I0J-209200D01*
G01*
G37*
X1375722Y4497570D02*
G36*
X1375722Y4497570D02*
G75*
G02*
X1433881Y4468000I-25722J-122570D01*
G01*
X2716119D01*
G75*
G02*
X2883881I83881J-93000D01*
G01*
X2935760D01*
G75*
G02*
X3091795Y4589395I125240J0D01*
G01*
X3082560Y4598630D01*
G75*
G02*
X2935760Y4722000I-21560J123370D01*
G01*
X1436551D01*
G75*
G02*
X1480000Y4625000I-86551J-97000D01*
G01*
G75*
G02*
X1375722Y4497570I-130000J0D01*
G01*
G37*
X3182395Y4498795D02*
G36*
X3182395Y4498795D02*
G75*
G02*
X3186240Y4468000I-121395J-30795D01*
G01*
X3213190D01*
X3182395Y4498795D01*
G37*
X540800Y4468000D02*
G36*
X540800Y4468000D02*
Y4185000D01*
X1949003D01*
G75*
G02*
X2250997I150997J-160000D01*
G01*
X2939164D01*
G75*
G02*
X2935760Y4214000I121836J29001D01*
G01*
G75*
G02*
X3186240I125240J0D01*
G01*
G75*
G02*
X3182836Y4185000I-125240J1D01*
G01*
X3496190D01*
X3213190Y4468000D01*
X3186240D01*
G75*
G02*
X2935760I-125240J0D01*
G01*
X2883881D01*
G75*
G02*
X2925240Y4375000I-83881J-93000D01*
G01*
G75*
G02*
X2674760I-125240J0D01*
G01*
G75*
G02*
X2716119Y4468000I125240J0D01*
G01*
X1433881D01*
G75*
G02*
X1475240Y4375000I-83881J-93000D01*
G01*
G75*
G02*
X1224760I-125240J0D01*
G01*
G75*
G02*
X1266119Y4468000I125240J0D01*
G01*
X540800D01*
G37*
X3946370Y2863060D02*
G36*
X3946370Y2863060D02*
G75*
G02*
X3948240Y2841500I-123370J-21562D01*
G01*
X3951760D01*
G75*
G02*
X3955605Y2872295I125240J0D01*
G01*
X3946370Y2863060D01*
G37*
X540800Y3275000D02*
G36*
X540800Y3275000D02*
Y2841500D01*
X1253751D01*
G75*
G02*
X1292000Y2869240I38249J-12500D01*
G01*
X1492000D01*
G75*
G02*
X1530249Y2841500I0J-40240D01*
G01*
X2324268D01*
G75*
G02*
X2491732I83732J-112500D01*
G01*
X2989037D01*
G75*
G02*
X2935760Y2944000I71963J102501D01*
G01*
G75*
G02*
X3186240I125240J0D01*
G01*
G75*
G02*
X3132963Y2841500I-125240J1D01*
G01*
X3439000D01*
G75*
G02*
X3698392Y2854062I130000J0D01*
G01*
G75*
G02*
X3844560Y2964870I124608J-12562D01*
G01*
X4005010Y3125320D01*
Y3172518D01*
G75*
G02*
X3951760Y3275000I71990J102482D01*
G01*
X3948240D01*
G75*
G02*
X3697760I-125240J0D01*
G01*
X3159773D01*
G75*
G02*
X3186240Y3198000I-98773J-77000D01*
G01*
G75*
G02*
X2935760I-125240J0D01*
G01*
G75*
G02*
X2962227Y3275000I125240J0D01*
G01*
X540800D01*
G37*
Y3452000D02*
G36*
X540800Y3452000D02*
Y3275000D01*
X2962227D01*
G75*
G02*
X3159773I98773J-77000D01*
G01*
X3697760D01*
G75*
G02*
X3948240I125240J0D01*
G01*
X3951760D01*
G75*
G02*
X4005010Y3377482I125240J0D01*
G01*
Y3452000D01*
X3186240D01*
G75*
G02*
X2935760I-125240J0D01*
G01*
X540800D01*
G37*
Y4185000D02*
G36*
X540800Y4185000D02*
Y3452000D01*
X2935760D01*
G75*
G02*
X3186240I125240J0D01*
G01*
X4005010D01*
Y3676180D01*
X3496190Y4185000D01*
X3182836D01*
G75*
G02*
X3073562Y4089392I-121836J29000D01*
G01*
G75*
G02*
X3191000Y3960000I-12562J-129392D01*
G01*
G75*
G02*
X3073562Y3830608I-130000J0D01*
G01*
G75*
G02*
X3186240Y3706000I-12562J-124608D01*
G01*
G75*
G02*
X2935760I-125240J0D01*
G01*
G75*
G02*
X3048438Y3830608I125240J0D01*
G01*
G75*
G02*
X2931000Y3960000I12562J129392D01*
G01*
G75*
G02*
X3048438Y4089392I130000J0D01*
G01*
G75*
G02*
X2939164Y4185000I12562J124608D01*
G01*
X2250997D01*
G75*
G02*
X2320000Y4025000I-150997J-160000D01*
G01*
G75*
G02*
X1880000I-220000J0D01*
G01*
G75*
G02*
X1949003Y4185000I220000J0D01*
G01*
X540800D01*
G37*
X3135054Y4875000D02*
G36*
X3135054Y4875000D02*
X3433510D01*
Y5020250D01*
G75*
G02*
X3473750Y5060490I40240J0D01*
G01*
X3664250D01*
G75*
G02*
X3704490Y5020250I0J-40240D01*
G01*
Y4998102D01*
X3755092Y5048704D01*
G75*
G02*
X3783597Y5060490I28454J-28454D01*
G01*
X3862403D01*
G75*
G02*
X3890908Y5048704I51J-40240D01*
G01*
X3946704Y4992908D01*
G75*
G02*
X3950000Y4989176I-28455J-28452D01*
G01*
G75*
G02*
X3953296Y4992908I31751J-24720D01*
G01*
X4009092Y5048704D01*
G75*
G02*
X4037597Y5060490I28454J-28454D01*
G01*
X4116403D01*
G75*
G02*
X4144908Y5048704I51J-40240D01*
G01*
X4200704Y4992908D01*
X4200805Y4992807D01*
G75*
G02*
X4203930Y4996274I34944J-28355D01*
G01*
X4259726Y5052070D01*
G75*
G02*
X4286807Y5065000I31820J-31820D01*
G01*
X3149114D01*
G75*
G02*
X3186240Y4976000I-88114J-89000D01*
G01*
G75*
G02*
X3135054Y4875000I-125240J0D01*
G01*
G37*
X4200370Y3253439D02*
G36*
X4200370Y3253439D02*
X4310867Y3142943D01*
X4437502D01*
G75*
G02*
X4429760Y3175000I62498J32057D01*
G01*
G75*
G02*
X4439440Y3210583I70240J0D01*
G01*
Y3275000D01*
X4202240D01*
G75*
G02*
X4200370Y3253439I-125240J1D01*
G01*
G37*
X4148990Y3452000D02*
G36*
X4148990Y3452000D02*
Y3377482D01*
G75*
G02*
X4202240Y3275000I-71990J-102482D01*
G01*
X4439440D01*
Y3452000D01*
X4148990D01*
G37*
X3699810Y4185000D02*
G36*
X3699810Y4185000D02*
X4127905Y3756905D01*
G75*
G02*
X4148991Y3706000I-50905J-50906D01*
G01*
X4148990Y3705721D01*
Y3452000D01*
X4439440D01*
Y4185000D01*
X3699810D01*
G37*
X3416810Y4468000D02*
G36*
X3416810Y4468000D02*
X3699810Y4185000D01*
X4439440D01*
Y4468000D01*
X3416810D01*
G37*
X3184370Y4700440D02*
G36*
X3184370Y4700440D02*
X3416810Y4468000D01*
X4439440D01*
Y4722000D01*
X3186240D01*
G75*
G02*
X3184370Y4700440I-125240J2D01*
G01*
G37*
X1375722Y4752430D02*
G36*
X1375722Y4752430D02*
G75*
G02*
X1436551Y4722000I-25722J-127430D01*
G01*
X2935760D01*
G75*
G02*
X3186240I125240J0D01*
G01*
X4439440D01*
Y4835096D01*
X4402274Y4797930D01*
G75*
G02*
X4370297Y4784750I-31820J31820D01*
G01*
X4291703D01*
G75*
G02*
X4259726Y4797930I-157J45000D01*
G01*
X4203930Y4853726D01*
G75*
G02*
X4200805Y4857193I31819J31822D01*
G01*
X4200704Y4857092D01*
X4144908Y4801296D01*
G75*
G02*
X4116403Y4789510I-28454J28454D01*
G01*
X4037597D01*
G75*
G02*
X4009092Y4801296I-51J40240D01*
G01*
X3953296Y4857092D01*
G75*
G02*
X3950000Y4860824I28455J28452D01*
G01*
G75*
G02*
X3946704Y4857092I-31751J24720D01*
G01*
X3890908Y4801296D01*
G75*
G02*
X3862403Y4789510I-28454J28454D01*
G01*
X3783597D01*
G75*
G02*
X3755092Y4801296I-51J40240D01*
G01*
X3704490Y4851898D01*
Y4829750D01*
G75*
G02*
X3664250Y4789510I-40240J0D01*
G01*
X3473750D01*
G75*
G02*
X3433510Y4829750I0J40240D01*
G01*
Y4875000D01*
X3135054D01*
G75*
G02*
X2986946I-74054J101000D01*
G01*
X2930000D01*
G75*
G02*
X2670000I-130000J0D01*
G01*
X1475240D01*
G75*
G02*
X1375722Y4752430I-125240J0D01*
G01*
G37*
X4375193Y5065000D02*
G36*
X4375193Y5065000D02*
G75*
G02*
X4402274Y5052070I-4739J-44750D01*
G01*
X4439440Y5014904D01*
Y5065000D01*
X4375193D01*
G37*
X540800Y5625000D02*
G36*
X540800Y5625000D02*
Y5065000D01*
X1949003D01*
G75*
G02*
X1880000Y5225000I150997J160000D01*
G01*
G75*
G02*
X2320000I220000J0D01*
G01*
G75*
G02*
X2250997Y5065000I-220000J0D01*
G01*
X2972886D01*
G75*
G02*
X3048438Y5100608I88113J-89000D01*
G01*
G75*
G02*
X2931000Y5230000I12562J129392D01*
G01*
G75*
G02*
X3048438Y5359392I130000J0D01*
G01*
G75*
G02*
X2935760Y5484000I12562J124608D01*
G01*
G75*
G02*
X3186240I125240J0D01*
G01*
G75*
G02*
X3073562Y5359392I-125240J0D01*
G01*
G75*
G02*
X3191000Y5230000I-12562J-129392D01*
G01*
G75*
G02*
X3073562Y5100608I-130000J0D01*
G01*
G75*
G02*
X3149114Y5065000I-12561J-124608D01*
G01*
X4286807D01*
G75*
G02*
X4291703Y5065250I4739J-44750D01*
G01*
X4370297D01*
G75*
G02*
X4375193Y5065000I157J-45000D01*
G01*
X4439440D01*
Y5399000D01*
G75*
G02*
X4457360Y5442004I60560J0D01*
G01*
X4640356Y5625000D01*
X3115001D01*
G75*
G02*
X3006999I-54001J113000D01*
G01*
X945240D01*
G75*
G02*
X554760I-195240J0D01*
G01*
X540800D01*
G37*
X4710560Y3275000D02*
G36*
X4710560Y3275000D02*
Y3210583D01*
G75*
G02*
X4713911Y3204139I-60559J-35585D01*
G01*
G75*
G02*
X4740228Y3275000I125089J-6139D01*
G01*
X4710560D01*
G37*
X3115001Y5625000D02*
G36*
X3115001Y5625000D02*
X4640356D01*
X4718662Y5703306D01*
G75*
G02*
X4713760Y5738000I120338J34696D01*
G01*
G75*
G02*
X4758809Y5834200I125240J0D01*
G01*
X3141191D01*
G75*
G02*
X3186240Y5738000I-80191J-96200D01*
G01*
G75*
G02*
X3115001Y5625000I-125240J0D01*
G01*
G37*
X4710560Y5065000D02*
G36*
X4710560Y5065000D02*
Y4875000D01*
X4764946D01*
G75*
G02*
X4713760Y4976000I74054J101000D01*
G01*
G75*
G02*
X4750886Y5065000I125240J0D01*
G01*
X4710560D01*
G37*
X4046205Y2962895D02*
G36*
X4046205Y2962895D02*
G75*
G02*
X4202240Y2841500I30795J-121395D01*
G01*
X4205760D01*
G75*
G02*
X4456240I125240J0D01*
G01*
X4767037D01*
G75*
G02*
X4713760Y2944000I71963J102501D01*
G01*
G75*
G02*
X4726465Y2998963I125240J0D01*
G01*
X4281048D01*
G75*
G02*
X4230034Y3020158I0J71990D01*
G01*
X4148990Y3101202D01*
Y3095779D01*
X4148991Y3095500D01*
G75*
G02*
X4127905Y3044595I-71991J1D01*
G01*
X4046205Y2962895D01*
G37*
X4710560Y4185000D02*
G36*
X4710560Y4185000D02*
Y3980079D01*
G75*
G02*
X4826438Y4089392I128440J-20079D01*
G01*
G75*
G02*
X4717164Y4185000I12562J124608D01*
G01*
X4710560D01*
G37*
Y5209921D02*
G36*
X4710560Y5209921D02*
Y5065000D01*
X4750886D01*
G75*
G02*
X4826438Y5100608I88113J-89000D01*
G01*
G75*
G02*
X4710560Y5209921I12562J129392D01*
G01*
G37*
X2472884Y1204673D02*
G36*
X2472884Y1204673D02*
G75*
G02*
X2553000Y1075000I-64884J-129673D01*
G01*
G75*
G02*
X2477971Y948000I-145000J0D01*
G01*
G75*
G02*
X2553000Y821000I-69971J-127000D01*
G01*
X2974953D01*
G75*
G02*
X2935760Y912000I86047J91000D01*
G01*
G75*
G02*
X3186240I125240J0D01*
G01*
G75*
G02*
X3147047Y821000I-125240J0D01*
G01*
X4752953D01*
G75*
G02*
X4713760Y912000I86047J91000D01*
G01*
G75*
G02*
X4964240I125240J0D01*
G01*
G75*
G02*
X4925047Y821000I-125240J0D01*
G01*
X5347000D01*
G75*
G02*
X5427116Y950673I145000J0D01*
G01*
G75*
G02*
X5351760Y1075000I64884J124327D01*
G01*
G75*
G02*
X5409988Y1188760I140240J0D01*
G01*
X5392000D01*
G75*
G02*
X5351760Y1229000I0J40240D01*
G01*
Y1420000D01*
X4969000D01*
G75*
G02*
X4851562Y1290608I-130000J0D01*
G01*
G75*
G02*
X4964240Y1166000I-12562J-124608D01*
G01*
G75*
G02*
X4713760I-125240J0D01*
G01*
G75*
G02*
X4826438Y1290608I125240J0D01*
G01*
G75*
G02*
X4709000Y1420000I12562J129392D01*
G01*
X3191000D01*
G75*
G02*
X3073562Y1290608I-130000J0D01*
G01*
G75*
G02*
X3186240Y1166000I-12562J-124608D01*
G01*
G75*
G02*
X2935760I-125240J0D01*
G01*
G75*
G02*
X3048438Y1290608I125240J0D01*
G01*
G75*
G02*
X2931000Y1420000I12562J129392D01*
G01*
X2514706D01*
G75*
G02*
X2548240Y1329000I-106706J-91000D01*
G01*
G75*
G02*
X2472884Y1204673I-140240J0D01*
G01*
G37*
Y2604673D02*
G36*
X2472884Y2604673D02*
G75*
G02*
X2553000Y2475000I-64884J-129673D01*
G01*
G75*
G02*
X2477971Y2348000I-145000J0D01*
G01*
G75*
G02*
X2553000Y2221000I-69971J-127000D01*
G01*
X2941987D01*
G75*
G02*
X3180013I119013J-39000D01*
G01*
X4719987D01*
G75*
G02*
X4958013I119013J-39000D01*
G01*
X5347000D01*
G75*
G02*
X5427116Y2350673I145000J0D01*
G01*
G75*
G02*
X5351760Y2475000I64884J124327D01*
G01*
G75*
G02*
X5409988Y2588760I140240J0D01*
G01*
X5392000D01*
G75*
G02*
X5351760Y2629000I0J40240D01*
G01*
Y2829000D01*
G75*
G02*
X5353751Y2841500I40240J-1D01*
G01*
X4910963D01*
G75*
G02*
X4851562Y2819392I-71963J102500D01*
G01*
G75*
G02*
X4969000Y2690000I-12562J-129392D01*
G01*
G75*
G02*
X4851562Y2560608I-130000J0D01*
G01*
G75*
G02*
X4964240Y2436000I-12562J-124608D01*
G01*
G75*
G02*
X4713760I-125240J0D01*
G01*
G75*
G02*
X4826438Y2560608I125240J0D01*
G01*
G75*
G02*
X4709000Y2690000I12562J129392D01*
G01*
G75*
G02*
X4826438Y2819392I130000J0D01*
G01*
G75*
G02*
X4767037Y2841500I12562J124608D01*
G01*
X4456240D01*
G75*
G02*
X4205760I-125240J0D01*
G01*
X4202240D01*
G75*
G02*
X3951760I-125240J0D01*
G01*
X3948240D01*
G75*
G02*
X3698392Y2828938I-125240J0D01*
G01*
G75*
G02*
X3439000Y2841500I-129392J12562D01*
G01*
X3132963D01*
G75*
G02*
X3073562Y2819392I-71963J102500D01*
G01*
G75*
G02*
X3191000Y2690000I-12562J-129392D01*
G01*
G75*
G02*
X3073562Y2560608I-130000J0D01*
G01*
G75*
G02*
X3186240Y2436000I-12562J-124608D01*
G01*
G75*
G02*
X2935760I-125240J0D01*
G01*
G75*
G02*
X3048438Y2560608I125240J0D01*
G01*
G75*
G02*
X2931000Y2690000I12562J129392D01*
G01*
G75*
G02*
X3048438Y2819392I130000J0D01*
G01*
G75*
G02*
X2989037Y2841500I12562J124608D01*
G01*
X2491732D01*
G75*
G02*
X2548240Y2729000I-83732J-112500D01*
G01*
G75*
G02*
X2472884Y2604673I-140240J0D01*
G01*
G37*
X4913054Y4875000D02*
G36*
X4913054Y4875000D02*
X5729265D01*
G75*
G02*
X5597260Y5065000I70735J190000D01*
G01*
X4927114D01*
G75*
G02*
X4964240Y4976000I-88114J-89000D01*
G01*
G75*
G02*
X4913054Y4875000I-125240J0D01*
G01*
G37*
X4937773Y3275000D02*
G36*
X4937773Y3275000D02*
G75*
G02*
X4964240Y3198000I-98773J-77000D01*
G01*
G75*
G02*
X4951489Y3142943I-125240J0D01*
G01*
X5641133D01*
X5773190Y3275000D01*
X4937773D01*
G37*
X4710560Y3452000D02*
G36*
X4710560Y3452000D02*
Y3275000D01*
X4740228D01*
G75*
G02*
X4937773I98773J-77000D01*
G01*
X5773190D01*
X5950190Y3452000D01*
X4964240D01*
G75*
G02*
X4713760I-125240J0D01*
G01*
X4710560D01*
G37*
Y4875000D02*
G36*
X4710560Y4875000D02*
Y4722000D01*
X4713760D01*
G75*
G02*
X4964240I125240J0D01*
G01*
X6228010D01*
Y4875000D01*
X5870735D01*
G75*
G02*
X5729265I-70735J190000D01*
G01*
X4913054D01*
G75*
G02*
X4764946I-74054J101000D01*
G01*
X4710560D01*
G37*
X5870735D02*
G36*
X5870735Y4875000D02*
X6228010D01*
Y5065000D01*
X6002740D01*
G75*
G02*
X5870735Y4875000I-202740J0D01*
G01*
G37*
X4710560Y4722000D02*
G36*
X4710560Y4722000D02*
Y4468000D01*
X4713760D01*
G75*
G02*
X4964240I125240J0D01*
G01*
X6305190D01*
X6249095Y4524095D01*
G75*
G02*
X6228009Y4575000I50905J50906D01*
G01*
X6228010Y4575279D01*
Y4722000D01*
X4964240D01*
G75*
G02*
X4713760I-125240J0D01*
G01*
X4710560D01*
G37*
Y3939921D02*
G36*
X4710560Y3939921D02*
Y3452000D01*
X4713760D01*
G75*
G02*
X4964240I125240J0D01*
G01*
X5950190D01*
X6428010Y3929820D01*
Y4185000D01*
X6002740D01*
G75*
G02*
X5597260I-202740J0D01*
G01*
X4960836D01*
G75*
G02*
X4851562Y4089392I-121836J29000D01*
G01*
G75*
G02*
X4969000Y3960000I-12562J-129392D01*
G01*
G75*
G02*
X4851562Y3830608I-130000J0D01*
G01*
G75*
G02*
X4964240Y3706000I-12562J-124608D01*
G01*
G75*
G02*
X4713760I-125240J0D01*
G01*
G75*
G02*
X4826438Y3830608I125240J0D01*
G01*
G75*
G02*
X4710560Y3939921I12562J129392D01*
G01*
G37*
Y4468000D02*
G36*
X4710560Y4468000D02*
Y4185000D01*
X4717164D01*
G75*
G02*
X4713760Y4214000I121836J29001D01*
G01*
G75*
G02*
X4964240I125240J0D01*
G01*
G75*
G02*
X4960836Y4185000I-125240J1D01*
G01*
X5597260D01*
G75*
G02*
X6002740I202740J0D01*
G01*
X6428010D01*
Y4272518D01*
G75*
G02*
X6374760Y4375000I71990J102482D01*
G01*
G75*
G02*
X6376630Y4396560I125240J-2D01*
G01*
X6305190Y4468000D01*
X4964240D01*
G75*
G02*
X4713760I-125240J0D01*
G01*
X4710560D01*
G37*
X5556884Y950673D02*
G36*
X5556884Y950673D02*
G75*
G02*
X5637000Y821000I-64884J-129673D01*
G01*
X5655760D01*
G75*
G02*
X5836240I90240J0D01*
G01*
X6163760D01*
G75*
G02*
X6344240I90240J0D01*
G01*
X6363000D01*
G75*
G02*
X6438029Y948000I145000J0D01*
G01*
G75*
G02*
X6363000Y1075000I69971J127000D01*
G01*
G75*
G02*
X6443116Y1204673I145000J0D01*
G01*
G75*
G02*
X6367760Y1329000I64884J124327D01*
G01*
G75*
G02*
X6401294Y1420000I140240J0D01*
G01*
X5632240D01*
Y1229000D01*
G75*
G02*
X5592000Y1188760I-40240J0D01*
G01*
X5574012D01*
G75*
G02*
X5632240Y1075000I-82012J-113760D01*
G01*
G75*
G02*
X5556884Y950673I-140240J0D01*
G01*
G37*
Y2350673D02*
G36*
X5556884Y2350673D02*
G75*
G02*
X5637000Y2221000I-64884J-129673D01*
G01*
X5655760D01*
G75*
G02*
X5836240I90240J0D01*
G01*
X6163760D01*
G75*
G02*
X6344240I90240J0D01*
G01*
X6363000D01*
G75*
G02*
X6438029Y2348000I145000J0D01*
G01*
G75*
G02*
X6363000Y2475000I69971J127000D01*
G01*
G75*
G02*
X6443116Y2604673I145000J0D01*
G01*
G75*
G02*
X6367760Y2729000I64884J124327D01*
G01*
G75*
G02*
X6424268Y2841500I140240J0D01*
G01*
X5630249D01*
G75*
G02*
X5632240Y2829000I-38249J-12501D01*
G01*
Y2629000D01*
G75*
G02*
X5592000Y2588760I-40240J0D01*
G01*
X5574012D01*
G75*
G02*
X5632240Y2475000I-82012J-113760D01*
G01*
G75*
G02*
X5556884Y2350673I-140240J0D01*
G01*
G37*
X540800Y625000D02*
G36*
X540800Y625000D02*
G75*
G03*
X750000Y415800I209200J0D01*
G01*
X7150000D01*
G75*
G03*
X7359200Y625000I0J209200D01*
G01*
X7345240D01*
G75*
G02*
X6954760I-195240J0D01*
G01*
X5163560D01*
G75*
G02*
X5165240Y601500I-163560J-23503D01*
G01*
G75*
G02*
X4834760I-165240J0D01*
G01*
G75*
G02*
X4836440Y625000I165240J-3D01*
G01*
X3063560D01*
G75*
G02*
X3065240Y601500I-163560J-23503D01*
G01*
G75*
G02*
X2734760I-165240J0D01*
G01*
G75*
G02*
X2736440Y625000I165240J-3D01*
G01*
X945240D01*
G75*
G02*
X554760I-195240J0D01*
G01*
X540800D01*
G37*
Y821000D02*
G36*
X540800Y821000D02*
Y625000D01*
X554760D01*
G75*
G02*
X945240I195240J0D01*
G01*
X2736440D01*
G75*
G02*
X3063560I163560J-23500D01*
G01*
X4836440D01*
G75*
G02*
X5163560I163560J-23500D01*
G01*
X6954760D01*
G75*
G02*
X7345240I195240J0D01*
G01*
X7359200D01*
Y821000D01*
X6653000D01*
G75*
G02*
X6363000I-145000J0D01*
G01*
X6344240D01*
G75*
G02*
X6163760I-90240J0D01*
G01*
X5836240D01*
G75*
G02*
X5655760I-90240J0D01*
G01*
X5637000D01*
G75*
G02*
X5347000I-145000J0D01*
G01*
X4925047D01*
G75*
G02*
X4752953I-86047J91000D01*
G01*
X3147047D01*
G75*
G02*
X2974953I-86047J91000D01*
G01*
X2553000D01*
G75*
G02*
X2263000I-145000J0D01*
G01*
X2244240D01*
G75*
G02*
X2063760I-90240J0D01*
G01*
X1736240D01*
G75*
G02*
X1555760I-90240J0D01*
G01*
X1537000D01*
G75*
G02*
X1247000I-145000J0D01*
G01*
X540800D01*
G37*
X6572884Y1204673D02*
G36*
X6572884Y1204673D02*
G75*
G02*
X6653000Y1075000I-64884J-129673D01*
G01*
G75*
G02*
X6577971Y948000I-145000J0D01*
G01*
G75*
G02*
X6653000Y821000I-69971J-127000D01*
G01*
X7359200D01*
Y1420000D01*
X6614706D01*
G75*
G02*
X6648240Y1329000I-106706J-91000D01*
G01*
G75*
G02*
X6572884Y1204673I-140240J0D01*
G01*
G37*
X540800Y1928000D02*
G36*
X540800Y1928000D02*
Y1420000D01*
X1251760D01*
Y1429000D01*
G75*
G02*
X1292000Y1469240I40240J0D01*
G01*
X1492000D01*
G75*
G02*
X1532240Y1429000I0J-40240D01*
G01*
Y1420000D01*
X2301294D01*
G75*
G02*
X2514706I106706J-91000D01*
G01*
X2931000D01*
G75*
G02*
X3048438Y1549392I130000J0D01*
G01*
G75*
G02*
X2935760Y1674000I12562J124608D01*
G01*
G75*
G02*
X3186240I125240J0D01*
G01*
G75*
G02*
X3073562Y1549392I-125240J0D01*
G01*
G75*
G02*
X3191000Y1420000I-12562J-129392D01*
G01*
X4709000D01*
G75*
G02*
X4826438Y1549392I130000J0D01*
G01*
G75*
G02*
X4713760Y1674000I12562J124608D01*
G01*
G75*
G02*
X4964240I125240J0D01*
G01*
G75*
G02*
X4851562Y1549392I-125240J0D01*
G01*
G75*
G02*
X4969000Y1420000I-12562J-129392D01*
G01*
X5351760D01*
Y1429000D01*
G75*
G02*
X5392000Y1469240I40240J0D01*
G01*
X5592000D01*
G75*
G02*
X5632240Y1429000I0J-40240D01*
G01*
Y1420000D01*
X6401294D01*
G75*
G02*
X6614706I106706J-91000D01*
G01*
X7359200D01*
Y1928000D01*
X4964240D01*
G75*
G02*
X4713760I-125240J0D01*
G01*
X3186240D01*
G75*
G02*
X2935760I-125240J0D01*
G01*
X540800D01*
G37*
Y2221000D02*
G36*
X540800Y2221000D02*
Y1928000D01*
X2935760D01*
G75*
G02*
X3186240I125240J0D01*
G01*
X4713760D01*
G75*
G02*
X4964240I125240J0D01*
G01*
X7359200D01*
Y2221000D01*
X6653000D01*
G75*
G02*
X6363000I-145000J0D01*
G01*
X6344240D01*
G75*
G02*
X6163760I-90240J0D01*
G01*
X5836240D01*
G75*
G02*
X5655760I-90240J0D01*
G01*
X5637000D01*
G75*
G02*
X5347000I-145000J0D01*
G01*
X4958013D01*
G75*
G02*
X4964240Y2182000I-119013J-39000D01*
G01*
G75*
G02*
X4713760I-125240J0D01*
G01*
G75*
G02*
X4719987Y2221000I125240J0D01*
G01*
X3180013D01*
G75*
G02*
X3186240Y2182000I-119013J-39000D01*
G01*
G75*
G02*
X2935760I-125240J0D01*
G01*
G75*
G02*
X2941987Y2221000I125240J0D01*
G01*
X2553000D01*
G75*
G02*
X2263000I-145000J0D01*
G01*
X2244240D01*
G75*
G02*
X2063760I-90240J0D01*
G01*
X1736240D01*
G75*
G02*
X1555760I-90240J0D01*
G01*
X1537000D01*
G75*
G02*
X1247000I-145000J0D01*
G01*
X540800D01*
G37*
X6572884Y2604673D02*
G36*
X6572884Y2604673D02*
G75*
G02*
X6653000Y2475000I-64884J-129673D01*
G01*
G75*
G02*
X6577971Y2348000I-145000J0D01*
G01*
G75*
G02*
X6653000Y2221000I-69971J-127000D01*
G01*
X7359200D01*
Y2841500D01*
X6591732D01*
G75*
G02*
X6648240Y2729000I-83732J-112500D01*
G01*
G75*
G02*
X6572884Y2604673I-140240J0D01*
G01*
G37*
X4910963Y2841500D02*
G36*
X4910963Y2841500D02*
X5353751D01*
G75*
G02*
X5392000Y2869240I38249J-12500D01*
G01*
X5592000D01*
G75*
G02*
X5630249Y2841500I0J-40240D01*
G01*
X6424268D01*
G75*
G02*
X6591732I83732J-112500D01*
G01*
X7359200D01*
Y3275000D01*
X5976810D01*
X5721858Y3020048D01*
G75*
G02*
X5670674Y2998963I-50905J50905D01*
G01*
X4951535D01*
G75*
G02*
X4964240Y2944000I-112535J-54963D01*
G01*
G75*
G02*
X4910963Y2841500I-125240J1D01*
G01*
G37*
X5976810Y3275000D02*
G36*
X5976810Y3275000D02*
X7359200D01*
Y3452000D01*
X6153810D01*
X5976810Y3275000D01*
G37*
X6153810Y3452000D02*
G36*
X6153810Y3452000D02*
X7359200D01*
Y4185000D01*
X6571990D01*
Y3900279D01*
X6571991Y3900000D01*
G75*
G02*
X6550905Y3849095I-71991J1D01*
G01*
X6153810Y3452000D01*
G37*
X6571990Y4272518D02*
G36*
X6571990Y4272518D02*
Y4185000D01*
X7359200D01*
Y4468000D01*
X6583881D01*
G75*
G02*
X6625240Y4375000I-83881J-93000D01*
G01*
G75*
G02*
X6571990Y4272518I-125240J0D01*
G01*
G37*
X6507750Y4500000D02*
G36*
X6507750Y4500000D02*
G75*
G02*
X6583881Y4468000I-7750J-125000D01*
G01*
X7359200D01*
Y4722000D01*
X6579221D01*
G75*
G02*
X6625240Y4625000I-79221J-97000D01*
G01*
G75*
G02*
X6507750Y4500000I-125240J0D01*
G01*
G37*
X6525722Y4747570D02*
G36*
X6525722Y4747570D02*
G75*
G02*
X6579221Y4722000I-25722J-122570D01*
G01*
X7359200D01*
Y4875000D01*
X6630000D01*
G75*
G02*
X6525722Y4747570I-130000J0D01*
G01*
G37*
X6371990Y5065000D02*
G36*
X6371990Y5065000D02*
Y4897659D01*
G75*
G02*
X6630000Y4875000I128010J-22659D01*
G01*
X7359200D01*
Y5065000D01*
X6371990D01*
G37*
X4782328Y5595684D02*
G36*
X4782328Y5595684D02*
G75*
G02*
X4964240Y5484000I56672J-111684D01*
G01*
G75*
G02*
X4851562Y5359392I-125240J0D01*
G01*
G75*
G02*
X4969000Y5230000I-12562J-129392D01*
G01*
G75*
G02*
X4851562Y5100608I-130000J0D01*
G01*
G75*
G02*
X4927114Y5065000I-12561J-124608D01*
G01*
X5597260D01*
G75*
G02*
X6002740I202740J0D01*
G01*
X6228010D01*
Y5129180D01*
X5945180Y5412010D01*
X5471875D01*
G75*
G02*
X5374760Y5484000I-21875J71990D01*
G01*
G75*
G02*
X5471875Y5555990I75240J0D01*
G01*
X5974721D01*
G75*
G02*
X6025905Y5534905I279J-71990D01*
G01*
X6350905Y5209905D01*
G75*
G02*
X6371991Y5159000I-50905J-50906D01*
G01*
X6371990Y5158721D01*
Y5065000D01*
X7359200D01*
Y5625000D01*
X7345240D01*
G75*
G02*
X6954760I-195240J0D01*
G01*
X4892999D01*
G75*
G02*
X4804306Y5617662I-53999J113000D01*
G01*
X4782328Y5595684D01*
G37*
X4892999Y5625000D02*
G36*
X4892999Y5625000D02*
X6954760D01*
G75*
G02*
X7345240I195240J0D01*
G01*
X7359200D01*
G75*
G03*
X7150000Y5834200I-209200J0D01*
G01*
X4919191D01*
G75*
G02*
X4964240Y5738000I-80191J-96200D01*
G01*
G75*
G02*
X4892999Y5625000I-125240J1D01*
G01*
G37*
D02*
D15*
X1280000Y4625000D02*
X1220000D01*
X1307000Y821000D02*
X1247000D01*
X1307000Y2221000D02*
X1247000D01*
X1392000Y736000D02*
Y676000D01*
Y2136000D02*
Y2076000D01*
X1420000Y4625000D02*
X1480000D01*
X1477000Y821000D02*
X1537000D01*
X1477000Y2221000D02*
X1537000D01*
X1940000Y4025000D02*
X1880000D01*
X1940000Y5225000D02*
X1880000D01*
X2100000Y3865000D02*
Y3805000D01*
Y4185000D02*
Y4245000D01*
Y5065000D02*
Y5005000D01*
Y5385000D02*
Y5445000D01*
X2260000Y4025000D02*
X2320000D01*
X2260000Y5225000D02*
X2320000D01*
X2323000Y821000D02*
X2263000D01*
X2323000Y1075000D02*
X2263000D01*
X2323000Y2221000D02*
X2263000D01*
X2323000Y2475000D02*
X2263000D01*
X2408000Y736000D02*
Y676000D01*
Y2136000D02*
Y2076000D01*
X2493000Y821000D02*
X2553000D01*
X2493000Y1075000D02*
X2553000D01*
X2493000Y2221000D02*
X2553000D01*
X2493000Y2475000D02*
X2553000D01*
X2730000Y4875000D02*
X2670000D01*
X2800000Y4805000D02*
Y4745000D01*
Y4945000D02*
Y5005000D01*
X2870000Y4875000D02*
X2930000D01*
X2991000Y1420000D02*
X2931000D01*
X2991000Y2690000D02*
X2931000D01*
X2991000Y3960000D02*
X2931000D01*
X2991000Y5230000D02*
X2931000D01*
X3131000Y1420000D02*
X3191000D01*
X3131000Y2690000D02*
X3191000D01*
X3131000Y3960000D02*
X3191000D01*
X3131000Y5230000D02*
X3191000D01*
X3499000Y2841500D02*
X3439000D01*
X3569000Y2771500D02*
Y2711500D01*
Y2911500D02*
Y2971500D01*
X4331000Y4844750D02*
Y4784750D01*
Y5005250D02*
Y5065250D01*
X4769000Y1420000D02*
X4709000D01*
X4769000Y2690000D02*
X4709000D01*
X4909000Y1420000D02*
X4969000D01*
X4909000Y2690000D02*
X4969000D01*
X4909000Y3960000D02*
X4969000D01*
X4909000Y5230000D02*
X4969000D01*
X5407000Y821000D02*
X5347000D01*
X5407000Y2221000D02*
X5347000D01*
X5492000Y736000D02*
Y676000D01*
Y2136000D02*
Y2076000D01*
X5577000Y821000D02*
X5637000D01*
X5577000Y2221000D02*
X5637000D01*
X6423000Y821000D02*
X6363000D01*
X6423000Y1075000D02*
X6363000D01*
X6423000Y2221000D02*
X6363000D01*
X6423000Y2475000D02*
X6363000D01*
X6500000Y4945000D02*
Y5005000D01*
X6508000Y736000D02*
Y676000D01*
Y2136000D02*
Y2076000D01*
X6570000Y4875000D02*
X6630000D01*
X6593000Y821000D02*
X6653000D01*
X6593000Y1075000D02*
X6653000D01*
X6593000Y2221000D02*
X6653000D01*
X6593000Y2475000D02*
X6653000D01*
D02*
D17*
X545800Y1085000D03*
Y1545000D03*
Y2005000D03*
Y2465000D03*
Y2925000D03*
Y3385000D03*
Y3845000D03*
Y4305000D03*
Y4765000D03*
Y5225000D03*
X962008Y420800D03*
X1210000Y5829200D03*
X1422008Y420800D03*
X1670000Y5829200D03*
X1882008Y420800D03*
X2130000Y5829200D03*
X2342008Y420800D03*
X2590000Y5829200D03*
X3262008Y420800D03*
X3400000Y3775000D03*
Y3950000D03*
X3510000Y5829200D03*
X3600000Y925000D03*
Y1925000D03*
X3722008Y420800D03*
X3775000Y4275000D03*
X3950000D03*
X3970000Y5829200D03*
X4182008Y420800D03*
X4250000Y2100000D03*
Y2275000D03*
X4300000Y825000D03*
Y1025000D03*
X4430000Y5829200D03*
X4500000Y3175000D03*
X4642008Y420800D03*
X4650000Y3175000D03*
X5562008Y420800D03*
X5600000Y3275000D03*
Y3500000D03*
Y3700000D03*
X5810000Y5829200D03*
X6022008Y420800D03*
X6270000Y5829200D03*
X6482008Y420800D03*
X6730000Y5829200D03*
X6942008Y420800D03*
X7354200Y795558D03*
Y1255558D03*
Y1715558D03*
Y2175558D03*
Y2635558D03*
Y3095558D03*
Y3555558D03*
Y4015558D03*
Y4475558D03*
Y4935558D03*
Y5395558D03*
D02*
D18*
X5450000Y5484000D03*
D02*
D19*
X4077000Y3275000D02*
X4281048Y3070953D01*
X4802884D01*
X4077000Y3275000D02*
Y3706000D01*
X3061000Y4722000D01*
X4077000Y3275000D02*
Y3095500D01*
X3823000Y2841500D01*
X4900000Y3070953D02*
X5670953D01*
X6500000Y3900000D01*
Y4375000D01*
X6300000Y4575000D01*
Y5159000D01*
X5975000Y5484000D01*
X5450000D01*
D02*
D70*
X4500000Y3175000D02*
Y5399000D01*
X4839000Y5738000D01*
X4650000Y3175000D02*
Y5295000D01*
X4839000Y5484000D01*
X4802884Y3070953D02*
X4900000D01*
D02*
D23*
X1350000Y4375000D03*
Y4625000D03*
Y4875000D03*
X2800000Y4375000D03*
Y4875000D03*
X3061000Y912000D03*
Y1166000D03*
Y1420000D03*
Y1674000D03*
Y1928000D03*
Y2182000D03*
Y2436000D03*
Y2690000D03*
Y2944000D03*
Y3198000D03*
Y3452000D03*
Y3706000D03*
Y3960000D03*
Y4214000D03*
Y4468000D03*
Y4722000D03*
Y4976000D03*
Y5230000D03*
Y5484000D03*
Y5738000D03*
X3569000Y2841500D03*
X3823000D03*
Y3275000D03*
X4077000Y2841500D03*
Y3275000D03*
X4331000Y2841500D03*
X4839000Y912000D03*
Y1166000D03*
Y1420000D03*
Y1674000D03*
Y1928000D03*
Y2182000D03*
Y2436000D03*
Y2690000D03*
Y2944000D03*
Y3198000D03*
Y3452000D03*
Y3706000D03*
Y3960000D03*
Y4214000D03*
Y4468000D03*
Y4722000D03*
Y4976000D03*
Y5230000D03*
Y5484000D03*
Y5738000D03*
X6500000Y4375000D03*
Y4625000D03*
Y4875000D03*
D02*
D26*
X2100000Y4025000D03*
Y5225000D03*
D02*
D27*
X3569000Y4925000D03*
D02*
D28*
X3823000D03*
X4077000D03*
X4331000D03*
D02*
D72*
X1392000Y1329000D03*
Y2729000D03*
X5492000Y1329000D03*
Y2729000D03*
D02*
D73*
X1392000Y821000D03*
Y1075000D03*
Y2221000D03*
Y2475000D03*
X2408000Y821000D03*
Y1075000D03*
Y1329000D03*
Y2221000D03*
Y2475000D03*
Y2729000D03*
X5492000Y821000D03*
Y1075000D03*
Y2221000D03*
Y2475000D03*
X6508000Y821000D03*
Y1075000D03*
Y1329000D03*
Y2221000D03*
Y2475000D03*
Y2729000D03*
D02*
D75*
X5800000Y4185000D03*
Y5065000D03*
X0Y0D02*
M02*
