G04 GENERATED BY PULSONIX 12.5 GERBER.DLL 9449*
G04 #@! TF.GenerationSoftware,Pulsonix,Pulsonix,12.5.9449*
G04 #@! TF.CreationDate,2025-01-20T21:22:03--1:00*
G04 #@! TF.Part,Single*
%FSLAX35Y35*%
%LPD*%
%MOMM*%
G04 #@! TF.FileFunction,Legend,Top*
G04 #@! TF.FilePolarity,Positive*
G04 #@! TA.AperFunction,Profile*
%ADD10C,0.30000*%
G04 #@! TD.AperFunction*
%ADD11C,0.00001*%
G04 #@! TA.AperFunction,Material*
%ADD12C,0.20000*%
G04 #@! TD.AperFunction*
%ADD13C,0.20000*%
G04 #@! TA.AperFunction,Material*
%ADD76C,0.20320*%
G04 #@! TD.AperFunction*
%ADD77C,0.25400*%
%ADD78C,0.25000*%
G04 #@! TD.AperFunction*
X0Y0D02*
D02*
D10*
X750000Y5925000D02*
X7150000D01*
G75*
G02*
X7450000Y5625000I0J-300000D01*
G01*
Y625000D01*
G75*
G02*
X7150000Y325000I-300000J0D01*
G01*
X750000D01*
G75*
G02*
X450000Y625000I0J300000D01*
G01*
Y5625000D01*
G75*
G02*
X750000Y5925000I300000J0D01*
G01*
D02*
D11*
X883008Y1754102D02*
X1072266D01*
Y1762891D01*
X1073438Y1770508D01*
X1074609Y1775781D01*
X1076367Y1779297D01*
X1079883Y1782813D01*
X1083984Y1785156D01*
X1088672Y1786914D01*
X1093945Y1787500D01*
X1099805Y1786914D01*
X1105078Y1785742D01*
X1109180Y1782813D01*
X1112109Y1779883D01*
X1113281Y1777539D01*
X1114453Y1775195D01*
X1115625Y1772266D01*
X1116211Y1768750D01*
X1116797Y1764063D01*
X1117383Y1759375D01*
Y1753516D01*
Y1747656D01*
Y1701367D01*
Y1691992D01*
X1116211Y1684375D01*
X1114453Y1678516D01*
X1112109Y1673828D01*
X1109180Y1670898D01*
X1105078Y1668555D01*
X1100391Y1666797D01*
X1094531D01*
X1088086Y1667383D01*
X1083398Y1669141D01*
X1078711Y1671484D01*
X1075195Y1675586D01*
X1073438Y1680273D01*
X1072266Y1686133D01*
X1071680Y1693164D01*
X1071094Y1701367D01*
Y1704883D01*
X1010156D01*
Y1600000D01*
X1071094D01*
Y1608203D01*
X1071680Y1614648D01*
X1072266Y1620508D01*
X1074023Y1625781D01*
X1076367Y1629883D01*
X1079883Y1633984D01*
X1083984Y1636328D01*
X1088672Y1638086D01*
X1093945Y1638672D01*
X1099805Y1638086D01*
X1105078Y1636914D01*
X1109180Y1634570D01*
X1112109Y1631641D01*
X1114453Y1627539D01*
X1116211Y1621680D01*
X1117383Y1614648D01*
Y1606445D01*
Y1547266D01*
Y1539648D01*
X1116211Y1532617D01*
X1113867Y1527344D01*
X1111523Y1523828D01*
X1108008Y1520898D01*
X1103906Y1519141D01*
X1099219Y1517969D01*
X1093945Y1517383D01*
X1088086Y1517969D01*
X1083398Y1519727D01*
X1079297Y1522070D01*
X1076367Y1525000D01*
X1074609Y1529102D01*
X1073438Y1534375D01*
X1072266Y1541992D01*
Y1550781D01*
X883008D01*
X882422Y1541992D01*
X881250Y1534375D01*
X879492Y1529102D01*
X877734Y1525000D01*
X874805Y1522070D01*
X870703Y1519727D01*
X865430Y1517969D01*
X859570Y1517383D01*
X854297Y1517969D01*
X849609Y1519141D01*
X846094Y1520898D01*
X842578Y1523828D01*
X839648Y1527930D01*
X837891Y1533203D01*
X836719Y1540234D01*
Y1548438D01*
Y1604102D01*
Y1613477D01*
X837891Y1620508D01*
X839063Y1626367D01*
X841406Y1630469D01*
X844336Y1633984D01*
X848438Y1636914D01*
X853711Y1638086D01*
X859570Y1638672D01*
X865430Y1638086D01*
X870703Y1636328D01*
X874805Y1633398D01*
X878320Y1629297D01*
X880078Y1624609D01*
X881836Y1618750D01*
X882422Y1611133D01*
X883008Y1602930D01*
Y1600000D01*
X965625D01*
Y1704883D01*
X883008D01*
Y1696680D01*
X882422Y1689648D01*
X881250Y1683789D01*
X880078Y1679102D01*
X877734Y1675000D01*
X874219Y1670898D01*
X870117Y1668555D01*
X865430Y1667383D01*
X859570Y1666797D01*
X853711Y1667383D01*
X848438Y1668555D01*
X844336Y1670898D01*
X841406Y1675000D01*
X839063Y1679102D01*
X837891Y1684961D01*
X836719Y1693164D01*
Y1703711D01*
Y1757031D01*
Y1765234D01*
X837891Y1771680D01*
X839648Y1776953D01*
X842578Y1781055D01*
X846094Y1783984D01*
X849609Y1785742D01*
X854297Y1786914D01*
X859570Y1787500D01*
X865430Y1786914D01*
X870117Y1785742D01*
X874219Y1782813D01*
X877734Y1779883D01*
X879492Y1775781D01*
X881250Y1770508D01*
X882422Y1762891D01*
X883008Y1754102D01*
G36*
X883008Y1754102D02*
X1072266D01*
Y1762891D01*
X1073438Y1770508D01*
X1074609Y1775781D01*
X1076367Y1779297D01*
X1079883Y1782813D01*
X1083984Y1785156D01*
X1088672Y1786914D01*
X1093945Y1787500D01*
X1099805Y1786914D01*
X1105078Y1785742D01*
X1109180Y1782813D01*
X1112109Y1779883D01*
X1113281Y1777539D01*
X1114453Y1775195D01*
X1115625Y1772266D01*
X1116211Y1768750D01*
X1116797Y1764063D01*
X1117383Y1759375D01*
Y1753516D01*
Y1747656D01*
Y1701367D01*
Y1691992D01*
X1116211Y1684375D01*
X1114453Y1678516D01*
X1112109Y1673828D01*
X1109180Y1670898D01*
X1105078Y1668555D01*
X1100391Y1666797D01*
X1094531D01*
X1088086Y1667383D01*
X1083398Y1669141D01*
X1078711Y1671484D01*
X1075195Y1675586D01*
X1073438Y1680273D01*
X1072266Y1686133D01*
X1071680Y1693164D01*
X1071094Y1701367D01*
Y1704883D01*
X1010156D01*
Y1600000D01*
X1071094D01*
Y1608203D01*
X1071680Y1614648D01*
X1072266Y1620508D01*
X1074023Y1625781D01*
X1076367Y1629883D01*
X1079883Y1633984D01*
X1083984Y1636328D01*
X1088672Y1638086D01*
X1093945Y1638672D01*
X1099805Y1638086D01*
X1105078Y1636914D01*
X1109180Y1634570D01*
X1112109Y1631641D01*
X1114453Y1627539D01*
X1116211Y1621680D01*
X1117383Y1614648D01*
Y1606445D01*
Y1547266D01*
Y1539648D01*
X1116211Y1532617D01*
X1113867Y1527344D01*
X1111523Y1523828D01*
X1108008Y1520898D01*
X1103906Y1519141D01*
X1099219Y1517969D01*
X1093945Y1517383D01*
X1088086Y1517969D01*
X1083398Y1519727D01*
X1079297Y1522070D01*
X1076367Y1525000D01*
X1074609Y1529102D01*
X1073438Y1534375D01*
X1072266Y1541992D01*
Y1550781D01*
X883008D01*
X882422Y1541992D01*
X881250Y1534375D01*
X879492Y1529102D01*
X877734Y1525000D01*
X874805Y1522070D01*
X870703Y1519727D01*
X865430Y1517969D01*
X859570Y1517383D01*
X854297Y1517969D01*
X849609Y1519141D01*
X846094Y1520898D01*
X842578Y1523828D01*
X839648Y1527930D01*
X837891Y1533203D01*
X836719Y1540234D01*
Y1548438D01*
Y1604102D01*
Y1613477D01*
X837891Y1620508D01*
X839063Y1626367D01*
X841406Y1630469D01*
X844336Y1633984D01*
X848438Y1636914D01*
X853711Y1638086D01*
X859570Y1638672D01*
X865430Y1638086D01*
X870703Y1636328D01*
X874805Y1633398D01*
X878320Y1629297D01*
X880078Y1624609D01*
X881836Y1618750D01*
X882422Y1611133D01*
X883008Y1602930D01*
Y1600000D01*
X965625D01*
Y1704883D01*
X883008D01*
Y1696680D01*
X882422Y1689648D01*
X881250Y1683789D01*
X880078Y1679102D01*
X877734Y1675000D01*
X874219Y1670898D01*
X870117Y1668555D01*
X865430Y1667383D01*
X859570Y1666797D01*
X853711Y1667383D01*
X848438Y1668555D01*
X844336Y1670898D01*
X841406Y1675000D01*
X839063Y1679102D01*
X837891Y1684961D01*
X836719Y1693164D01*
Y1703711D01*
Y1757031D01*
Y1765234D01*
X837891Y1771680D01*
X839648Y1776953D01*
X842578Y1781055D01*
X846094Y1783984D01*
X849609Y1785742D01*
X854297Y1786914D01*
X859570Y1787500D01*
X865430Y1786914D01*
X870117Y1785742D01*
X874219Y1782813D01*
X877734Y1779883D01*
X879492Y1775781D01*
X881250Y1770508D01*
X882422Y1762891D01*
X883008Y1754102D01*
G37*
X1091016Y2051172D02*
X1096289Y2050586D01*
X1100977Y2049414D01*
X1104492Y2047070D01*
X1108008Y2044141D01*
X1110938Y2040039D01*
X1112695Y2035938D01*
X1113867Y2031250D01*
Y2025391D01*
Y1990820D01*
Y1986719D01*
X1112695Y1982617D01*
X1110938Y1979102D01*
X1109180Y1975586D01*
X1102148Y1970898D01*
X1092773Y1967969D01*
X1098047Y1960938D01*
X1102734Y1952734D01*
X1106836Y1945117D01*
X1110352Y1936328D01*
X1114453Y1925195D01*
X1117383Y1914063D01*
X1119141Y1902344D01*
X1119727Y1890039D01*
X1119141Y1881250D01*
X1118555Y1873047D01*
X1116797Y1865430D01*
X1114453Y1857813D01*
X1111523Y1850781D01*
X1108008Y1843750D01*
X1103906Y1837891D01*
X1099219Y1832031D01*
X1093945Y1826758D01*
X1088086Y1822070D01*
X1082227Y1817969D01*
X1075781Y1815039D01*
X1068750Y1812695D01*
X1061719Y1810938D01*
X1054102Y1809766D01*
X1046484Y1809180D01*
X1037109Y1809766D01*
X1027734Y1810938D01*
X1019531Y1813281D01*
X1011914Y1816797D01*
X1004297Y1820898D01*
X997852Y1826172D01*
X991406Y1832617D01*
X986133Y1839648D01*
X981445Y1847266D01*
X976758Y1855469D01*
X973242Y1864258D01*
X970313Y1873633D01*
X968555Y1883594D01*
X966797Y1894727D01*
X965625Y1906445D01*
Y1918750D01*
Y1932227D01*
X966797Y1945703D01*
X969727Y1964453D01*
X962109Y1963281D01*
X955664Y1960938D01*
X949805Y1958008D01*
X945117Y1953906D01*
X941016Y1948633D01*
X937500Y1941016D01*
X935742Y1932227D01*
X935156Y1921680D01*
X935742Y1914063D01*
X937500Y1905273D01*
X939844Y1895898D01*
X943945Y1885938D01*
X948047Y1875391D01*
X950977Y1867188D01*
X952734Y1860156D01*
X953320Y1854883D01*
X952734Y1850195D01*
X951563Y1846094D01*
X949219Y1841992D01*
X946289Y1839063D01*
X942188Y1836133D01*
X938086Y1834375D01*
X932813Y1833203D01*
X927539Y1832617D01*
X923438Y1833203D01*
X918750Y1834375D01*
X915234Y1836719D01*
X911133Y1840234D01*
X907617Y1844336D01*
X904688Y1849609D01*
X901758Y1855469D01*
X898828Y1862500D01*
X894727Y1875977D01*
X891797Y1891797D01*
X890039Y1908789D01*
X889453Y1928125D01*
X890039Y1938086D01*
X891211Y1947461D01*
X892383Y1956250D01*
X895313Y1964453D01*
X898242Y1972070D01*
X901758Y1979102D01*
X906445Y1985547D01*
X911133Y1991406D01*
X916992Y1996680D01*
X923438Y2001367D01*
X930469Y2004883D01*
X938086Y2007813D01*
X946289Y2010742D01*
X955078Y2011914D01*
X964453Y2013086D01*
X975000Y2013672D01*
X1068164D01*
Y2017188D01*
X1068750Y2025391D01*
X1069336Y2032422D01*
X1070508Y2037695D01*
X1072266Y2042383D01*
X1075781Y2045898D01*
X1079883Y2048828D01*
X1084570Y2050586D01*
X1091016Y2051172D01*
X1010156Y1946875D02*
X1008984Y1936328D01*
X1008398Y1925195D01*
X1009570Y1909961D01*
X1011328Y1897070D01*
X1014258Y1885352D01*
X1018945Y1875391D01*
X1024219Y1868359D01*
X1030078Y1863672D01*
X1036523Y1860156D01*
X1043555Y1859570D01*
X1049414Y1860156D01*
X1054102Y1861914D01*
X1058203Y1864844D01*
X1062305Y1868945D01*
X1066406Y1874219D01*
X1068750Y1880664D01*
X1070508Y1887695D01*
X1071094Y1895313D01*
X1070508Y1908203D01*
X1067578Y1920508D01*
X1063477Y1932813D01*
X1057031Y1943945D01*
X1054102Y1948633D01*
X1051172Y1952734D01*
X1047656Y1956250D01*
X1044727Y1959180D01*
X1041797Y1961523D01*
X1038867Y1963281D01*
X1035938Y1963867D01*
X1033008Y1964453D01*
X1013672D01*
X1010156Y1946875D01*
X889941Y1912011D02*
G36*
X889941Y1912011D02*
X890039Y1908789D01*
X891797Y1891797D01*
X894727Y1875977D01*
X898828Y1862500D01*
X901758Y1855469D01*
X904688Y1849609D01*
X907617Y1844336D01*
X911133Y1840234D01*
X915234Y1836719D01*
X918750Y1834375D01*
X923438Y1833203D01*
X927539Y1832617D01*
X932813Y1833203D01*
X938086Y1834375D01*
X942188Y1836133D01*
X946289Y1839063D01*
X949219Y1841992D01*
X951563Y1846094D01*
X952734Y1850195D01*
X953320Y1854883D01*
X952734Y1860156D01*
X950977Y1867188D01*
X948047Y1875391D01*
X943945Y1885938D01*
X939844Y1895898D01*
X937500Y1905273D01*
X936152Y1912011D01*
X889941D01*
G37*
X889453Y1928125D02*
G36*
X889453Y1928125D02*
X889941Y1912011D01*
X936152D01*
X935742Y1914063D01*
X935156Y1921680D01*
X935742Y1932227D01*
X937500Y1941016D01*
X941016Y1948633D01*
X945117Y1953906D01*
X949805Y1958008D01*
X955664Y1960938D01*
X962109Y1963281D01*
X969727Y1964453D01*
X966797Y1945703D01*
X965625Y1932227D01*
Y1918750D01*
Y1912011D01*
X1009412D01*
X1008398Y1925195D01*
X1008984Y1936328D01*
X1010156Y1946875D01*
X1013672Y1964453D01*
X1033008D01*
X1035938Y1963867D01*
X1038867Y1963281D01*
X1041797Y1961523D01*
X1044727Y1959180D01*
X1047656Y1956250D01*
X1051172Y1952734D01*
X1054102Y1948633D01*
X1057031Y1943945D01*
X1063477Y1932813D01*
X1067578Y1920508D01*
X1069601Y1912011D01*
X1117691D01*
X1117383Y1914063D01*
X1114453Y1925195D01*
X1110352Y1936328D01*
X1106836Y1945117D01*
X1102734Y1952734D01*
X1098047Y1960938D01*
X1092773Y1967969D01*
X1102148Y1970898D01*
X1109180Y1975586D01*
X1110938Y1979102D01*
X1112695Y1982617D01*
X1113867Y1986719D01*
Y1990820D01*
Y2025391D01*
Y2031250D01*
X1112695Y2035938D01*
X1110938Y2040039D01*
X1108008Y2044141D01*
X1104492Y2047070D01*
X1100977Y2049414D01*
X1096289Y2050586D01*
X1091016Y2051172D01*
X1084570Y2050586D01*
X1079883Y2048828D01*
X1075781Y2045898D01*
X1072266Y2042383D01*
X1070508Y2037695D01*
X1069336Y2032422D01*
X1068750Y2025391D01*
X1068164Y2017188D01*
Y2013672D01*
X975000D01*
X964453Y2013086D01*
X955078Y2011914D01*
X946289Y2010742D01*
X938086Y2007813D01*
X930469Y2004883D01*
X923438Y2001367D01*
X916992Y1996680D01*
X911133Y1991406D01*
X906445Y1985547D01*
X901758Y1979102D01*
X898242Y1972070D01*
X895313Y1964453D01*
X892383Y1956250D01*
X891211Y1947461D01*
X890039Y1938086D01*
X889453Y1928125D01*
G37*
X965625Y1912011D02*
G36*
X965625Y1912011D02*
Y1906445D01*
X966797Y1894727D01*
X968555Y1883594D01*
X970313Y1873633D01*
X973242Y1864258D01*
X976758Y1855469D01*
X981445Y1847266D01*
X986133Y1839648D01*
X991406Y1832617D01*
X997852Y1826172D01*
X1004297Y1820898D01*
X1011914Y1816797D01*
X1019531Y1813281D01*
X1027734Y1810938D01*
X1037109Y1809766D01*
X1046484Y1809180D01*
X1054102Y1809766D01*
X1061719Y1810938D01*
X1068750Y1812695D01*
X1075781Y1815039D01*
X1082227Y1817969D01*
X1088086Y1822070D01*
X1093945Y1826758D01*
X1099219Y1832031D01*
X1103906Y1837891D01*
X1108008Y1843750D01*
X1111523Y1850781D01*
X1114453Y1857813D01*
X1116797Y1865430D01*
X1118555Y1873047D01*
X1119141Y1881250D01*
X1119727Y1890039D01*
X1119141Y1902344D01*
X1117691Y1912011D01*
X1069601D01*
X1070508Y1908203D01*
X1071094Y1895313D01*
X1070508Y1887695D01*
X1068750Y1880664D01*
X1066406Y1874219D01*
X1062305Y1868945D01*
X1058203Y1864844D01*
X1054102Y1861914D01*
X1049414Y1860156D01*
X1043555Y1859570D01*
X1036523Y1860156D01*
X1030078Y1863672D01*
X1024219Y1868359D01*
X1018945Y1875391D01*
X1014258Y1885352D01*
X1011328Y1897070D01*
X1009570Y1909961D01*
X1009412Y1912011D01*
X965625D01*
G37*
X859570Y2330664D02*
X865430Y2330078D01*
X870703Y2328320D01*
X874805Y2325977D01*
X878320Y2322461D01*
X880078Y2318359D01*
X881836Y2313086D01*
X882422Y2306055D01*
X883008Y2297266D01*
Y2276172D01*
X1017773D01*
X1030664Y2275586D01*
X1042383Y2274414D01*
X1053516Y2272656D01*
X1064063Y2270313D01*
X1073438Y2266797D01*
X1081641Y2262695D01*
X1089258Y2258008D01*
X1095703Y2252734D01*
X1101563Y2246289D01*
X1106250Y2238672D01*
X1110938Y2231055D01*
X1114453Y2221680D01*
X1116797Y2212305D01*
X1119141Y2201172D01*
X1120313Y2190039D01*
Y2177734D01*
Y2166602D01*
X1119141Y2156055D01*
X1117969Y2146094D01*
X1115625Y2136133D01*
X1113281Y2126758D01*
X1109180Y2116797D01*
X1105078Y2106836D01*
X1099805Y2096875D01*
X1097461Y2092188D01*
X1094531Y2088672D01*
X1092188Y2085742D01*
X1089258Y2083984D01*
X1085742Y2082813D01*
X1081641Y2081641D01*
X1076367Y2081055D01*
X1070508D01*
X1018359D01*
X1009570D01*
X1003125Y2082227D01*
X997852Y2083398D01*
X994336Y2085742D01*
X991406Y2088672D01*
X989063Y2092773D01*
X987891Y2096875D01*
X987305Y2101563D01*
X988477Y2109180D01*
X990820Y2115039D01*
X994922Y2120313D01*
X1000781Y2123242D01*
X1003711Y2124414D01*
X1007227Y2125586D01*
X1009570D01*
X1012500Y2126172D01*
X1015430D01*
X1019531D01*
X1021875D01*
X1034180Y2126758D01*
X1045313Y2128516D01*
X1052344Y2130859D01*
X1058789Y2134961D01*
X1064063Y2139063D01*
X1069336Y2144336D01*
X1072852Y2151367D01*
X1075781Y2158398D01*
X1076953Y2166602D01*
X1077539Y2175391D01*
X1076953Y2188281D01*
X1074023Y2198828D01*
X1069336Y2207617D01*
X1062891Y2214648D01*
X1058789Y2216992D01*
X1054688Y2219922D01*
X1048828Y2221680D01*
X1042969Y2223438D01*
X1035938Y2224609D01*
X1028906Y2225781D01*
X1020703Y2226367D01*
X1011914D01*
X883008D01*
Y2194141D01*
X882422Y2184766D01*
X881836Y2177734D01*
X880078Y2172461D01*
X878320Y2168359D01*
X874805Y2164844D01*
X870703Y2161914D01*
X865430Y2160742D01*
X859570Y2160156D01*
X854297D01*
X849609Y2161328D01*
X846094Y2163672D01*
X842578Y2166016D01*
X839648Y2169531D01*
X837891Y2173633D01*
X836719Y2178320D01*
Y2183594D01*
Y2307813D01*
Y2313086D01*
X837891Y2317773D01*
X840234Y2321289D01*
X843164Y2324805D01*
X846680Y2327148D01*
X850195Y2328906D01*
X854883Y2330078D01*
X859570Y2330664D01*
G36*
X859570Y2330664D02*
X865430Y2330078D01*
X870703Y2328320D01*
X874805Y2325977D01*
X878320Y2322461D01*
X880078Y2318359D01*
X881836Y2313086D01*
X882422Y2306055D01*
X883008Y2297266D01*
Y2276172D01*
X1017773D01*
X1030664Y2275586D01*
X1042383Y2274414D01*
X1053516Y2272656D01*
X1064063Y2270313D01*
X1073438Y2266797D01*
X1081641Y2262695D01*
X1089258Y2258008D01*
X1095703Y2252734D01*
X1101563Y2246289D01*
X1106250Y2238672D01*
X1110938Y2231055D01*
X1114453Y2221680D01*
X1116797Y2212305D01*
X1119141Y2201172D01*
X1120313Y2190039D01*
Y2177734D01*
Y2166602D01*
X1119141Y2156055D01*
X1117969Y2146094D01*
X1115625Y2136133D01*
X1113281Y2126758D01*
X1109180Y2116797D01*
X1105078Y2106836D01*
X1099805Y2096875D01*
X1097461Y2092188D01*
X1094531Y2088672D01*
X1092188Y2085742D01*
X1089258Y2083984D01*
X1085742Y2082813D01*
X1081641Y2081641D01*
X1076367Y2081055D01*
X1070508D01*
X1018359D01*
X1009570D01*
X1003125Y2082227D01*
X997852Y2083398D01*
X994336Y2085742D01*
X991406Y2088672D01*
X989063Y2092773D01*
X987891Y2096875D01*
X987305Y2101563D01*
X988477Y2109180D01*
X990820Y2115039D01*
X994922Y2120313D01*
X1000781Y2123242D01*
X1003711Y2124414D01*
X1007227Y2125586D01*
X1009570D01*
X1012500Y2126172D01*
X1015430D01*
X1019531D01*
X1021875D01*
X1034180Y2126758D01*
X1045313Y2128516D01*
X1052344Y2130859D01*
X1058789Y2134961D01*
X1064063Y2139063D01*
X1069336Y2144336D01*
X1072852Y2151367D01*
X1075781Y2158398D01*
X1076953Y2166602D01*
X1077539Y2175391D01*
X1076953Y2188281D01*
X1074023Y2198828D01*
X1069336Y2207617D01*
X1062891Y2214648D01*
X1058789Y2216992D01*
X1054688Y2219922D01*
X1048828Y2221680D01*
X1042969Y2223438D01*
X1035938Y2224609D01*
X1028906Y2225781D01*
X1020703Y2226367D01*
X1011914D01*
X883008D01*
Y2194141D01*
X882422Y2184766D01*
X881836Y2177734D01*
X880078Y2172461D01*
X878320Y2168359D01*
X874805Y2164844D01*
X870703Y2161914D01*
X865430Y2160742D01*
X859570Y2160156D01*
X854297D01*
X849609Y2161328D01*
X846094Y2163672D01*
X842578Y2166016D01*
X839648Y2169531D01*
X837891Y2173633D01*
X836719Y2178320D01*
Y2183594D01*
Y2307813D01*
Y2313086D01*
X837891Y2317773D01*
X840234Y2321289D01*
X843164Y2324805D01*
X846680Y2327148D01*
X850195Y2328906D01*
X854883Y2330078D01*
X859570Y2330664D01*
G37*
X1004297Y2567969D02*
X1016602Y2567383D01*
X1028320Y2566211D01*
X1040039Y2563281D01*
X1050586Y2559766D01*
X1060547Y2554492D01*
X1069922Y2548633D01*
X1079297Y2541602D01*
X1087500Y2533398D01*
X1095117Y2524609D01*
X1101563Y2515234D01*
X1106836Y2504688D01*
X1111523Y2494141D01*
X1115039Y2482422D01*
X1117383Y2470703D01*
X1119141Y2457813D01*
X1119727Y2444336D01*
X1119141Y2430859D01*
X1117383Y2418555D01*
X1115039Y2406250D01*
X1111523Y2395117D01*
X1106836Y2384570D01*
X1101563Y2374023D01*
X1095117Y2364648D01*
X1087500Y2355859D01*
X1079297Y2347656D01*
X1069922Y2340625D01*
X1060547Y2334766D01*
X1050586Y2329492D01*
X1040039Y2325977D01*
X1028906Y2323047D01*
X1017188Y2321875D01*
X1004883Y2321289D01*
X992578Y2321875D01*
X980273Y2323047D01*
X969141Y2325977D01*
X958594Y2329492D01*
X948633Y2334766D01*
X939258Y2340625D01*
X929883Y2347656D01*
X921680Y2355859D01*
X914063Y2364648D01*
X907617Y2374023D01*
X902344Y2384570D01*
X897656Y2395117D01*
X894141Y2406250D01*
X891797Y2418555D01*
X890039Y2431445D01*
X889453Y2444336D01*
X890039Y2457813D01*
X891797Y2470703D01*
X894141Y2482422D01*
X897656Y2494141D01*
X902344Y2504688D01*
X907617Y2515234D01*
X914063Y2524609D01*
X921680Y2533398D01*
X929883Y2541602D01*
X939258Y2548633D01*
X948633Y2554492D01*
X958594Y2559766D01*
X969141Y2563281D01*
X980273Y2566211D01*
X991992Y2567383D01*
X1004297Y2567969D01*
Y2374609D02*
X1011914Y2375195D01*
X1018945Y2375781D01*
X1025977Y2377539D01*
X1032422Y2379297D01*
X1038281Y2382227D01*
X1044141Y2385742D01*
X1049414Y2389844D01*
X1054688Y2393945D01*
X1059375Y2399219D01*
X1063477Y2404492D01*
X1066406Y2410352D01*
X1069336Y2416211D01*
X1071680Y2423242D01*
X1072852Y2429688D01*
X1074023Y2437305D01*
Y2444922D01*
Y2451953D01*
X1072852Y2459570D01*
X1071680Y2466602D01*
X1069336Y2473047D01*
X1066406Y2478906D01*
X1063477Y2484766D01*
X1059375Y2490039D01*
X1054688Y2495313D01*
X1049414Y2500000D01*
X1044141Y2504102D01*
X1038281Y2507617D01*
X1032422Y2509961D01*
X1025977Y2512305D01*
X1019531Y2514063D01*
X1011914Y2514648D01*
X1004883Y2515234D01*
X997266Y2514648D01*
X990234Y2514063D01*
X983203Y2512305D01*
X976758Y2509961D01*
X970898Y2507617D01*
X965039Y2504102D01*
X959180Y2500000D01*
X954492Y2495313D01*
X949805Y2490039D01*
X945703Y2484766D01*
X942188Y2478906D01*
X939258Y2473047D01*
X937500Y2466602D01*
X935742Y2459570D01*
X935156Y2451953D01*
X934570Y2444922D01*
X935156Y2437305D01*
X935742Y2429688D01*
X937500Y2423242D01*
X939258Y2416211D01*
X942188Y2410352D01*
X945703Y2404492D01*
X949805Y2399219D01*
X954492Y2393945D01*
X959180Y2389844D01*
X965039Y2385742D01*
X970313Y2382227D01*
X976758Y2379297D01*
X983203Y2377539D01*
X989648Y2375781D01*
X996680Y2375195D01*
X1004297Y2374609D01*
X889478Y2444921D02*
G36*
X889478Y2444921D02*
X934570D01*
Y2444922D01*
X935156Y2451953D01*
X935742Y2459570D01*
X937500Y2466602D01*
X939258Y2473047D01*
X942188Y2478906D01*
X945703Y2484766D01*
X949805Y2490039D01*
X954492Y2495313D01*
X959180Y2500000D01*
X965039Y2504102D01*
X970898Y2507617D01*
X976758Y2509961D01*
X983203Y2512305D01*
X990234Y2514063D01*
X997266Y2514648D01*
X1004883Y2515234D01*
X1011914Y2514648D01*
X1019531Y2514063D01*
X1025977Y2512305D01*
X1032422Y2509961D01*
X1038281Y2507617D01*
X1044141Y2504102D01*
X1049414Y2500000D01*
X1054688Y2495313D01*
X1059375Y2490039D01*
X1063477Y2484766D01*
X1066406Y2478906D01*
X1069336Y2473047D01*
X1071680Y2466602D01*
X1072852Y2459570D01*
X1074023Y2451953D01*
Y2444922D01*
Y2444921D01*
X1119702D01*
X1119141Y2457813D01*
X1117383Y2470703D01*
X1115039Y2482422D01*
X1111523Y2494141D01*
X1106836Y2504688D01*
X1101563Y2515234D01*
X1095117Y2524609D01*
X1087500Y2533398D01*
X1079297Y2541602D01*
X1069922Y2548633D01*
X1060547Y2554492D01*
X1050586Y2559766D01*
X1040039Y2563281D01*
X1028320Y2566211D01*
X1016602Y2567383D01*
X1004297Y2567969D01*
X991992Y2567383D01*
X980273Y2566211D01*
X969141Y2563281D01*
X958594Y2559766D01*
X948633Y2554492D01*
X939258Y2548633D01*
X929883Y2541602D01*
X921680Y2533398D01*
X914063Y2524609D01*
X907617Y2515234D01*
X902344Y2504688D01*
X897656Y2494141D01*
X894141Y2482422D01*
X891797Y2470703D01*
X890039Y2457813D01*
X889478Y2444921D01*
G37*
X889453Y2444336D02*
G36*
X889453Y2444336D02*
X890039Y2431445D01*
X891797Y2418555D01*
X894141Y2406250D01*
X897656Y2395117D01*
X902344Y2384570D01*
X907617Y2374023D01*
X914063Y2364648D01*
X921680Y2355859D01*
X929883Y2347656D01*
X939258Y2340625D01*
X948633Y2334766D01*
X958594Y2329492D01*
X969141Y2325977D01*
X980273Y2323047D01*
X992578Y2321875D01*
X1004883Y2321289D01*
X1017188Y2321875D01*
X1028906Y2323047D01*
X1040039Y2325977D01*
X1050586Y2329492D01*
X1060547Y2334766D01*
X1069922Y2340625D01*
X1079297Y2347656D01*
X1087500Y2355859D01*
X1095117Y2364648D01*
X1101563Y2374023D01*
X1106836Y2384570D01*
X1111523Y2395117D01*
X1115039Y2406250D01*
X1117383Y2418555D01*
X1119141Y2430859D01*
X1119727Y2444336D01*
X1119702Y2444921D01*
X1074023D01*
Y2437305D01*
X1072852Y2429688D01*
X1071680Y2423242D01*
X1069336Y2416211D01*
X1066406Y2410352D01*
X1063477Y2404492D01*
X1059375Y2399219D01*
X1054688Y2393945D01*
X1049414Y2389844D01*
X1044141Y2385742D01*
X1038281Y2382227D01*
X1032422Y2379297D01*
X1025977Y2377539D01*
X1018945Y2375781D01*
X1011914Y2375195D01*
X1004297Y2374609D01*
X996680Y2375195D01*
X989648Y2375781D01*
X983203Y2377539D01*
X976758Y2379297D01*
X970313Y2382227D01*
X965039Y2385742D01*
X959180Y2389844D01*
X954492Y2393945D01*
X949805Y2399219D01*
X945703Y2404492D01*
X942188Y2410352D01*
X939258Y2416211D01*
X937500Y2423242D01*
X935742Y2429688D01*
X935156Y2437305D01*
X934570Y2444921D01*
X889478D01*
X889453Y2444336D01*
G37*
X1040625Y1421875D02*
X1037109Y1428320D01*
X1035352Y1434766D01*
X1034766Y1442383D01*
X1035352Y1449414D01*
X1037109Y1456445D01*
X1040625Y1462891D01*
X1045313Y1468164D01*
X1051172Y1472852D01*
X1057617Y1476367D01*
X1064648Y1478125D01*
X1071680Y1479297D01*
X1078711Y1478125D01*
X1086328Y1476367D01*
X1092188Y1472852D01*
X1098047Y1468750D01*
X1102734Y1462891D01*
X1106250Y1456445D01*
X1108008Y1449414D01*
X1108594Y1442383D01*
X1108008Y1434766D01*
X1103906Y1424805D01*
X1108594Y1411914D01*
X1112109Y1399609D01*
X1115039Y1387891D01*
X1116797Y1375586D01*
X1117383Y1363281D01*
Y1351563D01*
X1116797Y1338672D01*
X1115625Y1326367D01*
X1113281Y1315234D01*
X1109766Y1304102D01*
X1105664Y1294141D01*
X1100391Y1284766D01*
X1094531Y1275391D01*
X1087500Y1267188D01*
X1075195Y1256641D01*
X1061133Y1247852D01*
X1045313Y1241406D01*
X1027734Y1236719D01*
X1020703Y1230859D01*
X1012500Y1226758D01*
X1003125Y1225586D01*
X993164Y1226172D01*
X986719Y1228516D01*
X980273Y1231445D01*
X975000Y1235547D01*
X970313Y1240820D01*
X957422Y1245508D01*
X945117Y1251953D01*
X933984Y1260156D01*
X923438Y1269531D01*
X916406Y1278320D01*
X909961Y1287695D01*
X904688Y1297656D01*
X900586Y1308203D01*
X897070Y1319336D01*
X894727Y1331641D01*
X892969Y1343945D01*
X892383Y1356836D01*
X892969Y1369141D01*
X894141Y1380273D01*
X896484Y1390820D01*
X900000Y1401367D01*
X904102Y1411328D01*
X908789Y1420117D01*
X914648Y1428906D01*
X921680Y1437109D01*
X929297Y1444727D01*
X937500Y1451172D01*
X946289Y1457031D01*
X955078Y1461719D01*
X964453Y1465234D01*
X973828Y1467578D01*
X984375Y1469336D01*
X994336D01*
X1001367D01*
X1007227Y1468164D01*
X1011328Y1465820D01*
X1014844Y1462891D01*
X1017188Y1458789D01*
X1018359Y1451758D01*
X1019531Y1442969D01*
Y1431250D01*
Y1294141D01*
X1024805Y1290625D01*
X1029492Y1285938D01*
X1038867Y1288281D01*
X1047070Y1292383D01*
X1054688Y1297070D01*
X1061133Y1303516D01*
X1068164Y1313477D01*
X1073438Y1325195D01*
X1076367Y1339258D01*
X1076953Y1355078D01*
X1076367Y1366211D01*
X1074023Y1379102D01*
X1070508Y1391992D01*
X1065234Y1405469D01*
X1064648D01*
X1057617Y1407813D01*
X1050586Y1411328D01*
X1045313Y1416016D01*
X1040625Y1421875D01*
X946289Y1309961D02*
X952148Y1303516D01*
X959180Y1297656D01*
X966211Y1292969D01*
X975000Y1288867D01*
X980859Y1294141D01*
X981445Y1418945D01*
X971484Y1416602D01*
X962109Y1412500D01*
X953906Y1406641D01*
X946875Y1399609D01*
X940430Y1390234D01*
X936328Y1380273D01*
X933398Y1369141D01*
X932227Y1356836D01*
X933398Y1343359D01*
X935742Y1331055D01*
X940430Y1319922D01*
X946289Y1309961D01*
X1016016Y1272461D02*
X1013672Y1275391D01*
X1010742Y1277734D01*
X1007813Y1279492D01*
X1004297Y1280664D01*
X1000781D01*
X997266D01*
X993750Y1279492D01*
X990820Y1277734D01*
X987891Y1275391D01*
X985547Y1272461D01*
X983789Y1269531D01*
X983203Y1266016D01*
X982617Y1262500D01*
X983203Y1258984D01*
X983789Y1255469D01*
X985547Y1251953D01*
X987891Y1249609D01*
X990234Y1247266D01*
X996680Y1244336D01*
X1000781D01*
X1004297D01*
X1007227Y1245508D01*
X1010742Y1247266D01*
X1013672Y1249023D01*
X1015430Y1251953D01*
X1017188Y1254883D01*
X1018359Y1258398D01*
X1018945Y1261914D01*
X1018359Y1265430D01*
X1017188Y1268945D01*
X1016016Y1272461D01*
X1086914Y1452344D02*
X1084570Y1455273D01*
X1081641Y1457031D01*
X1078711Y1458789D01*
X1074609Y1459961D01*
X1071094Y1460547D01*
X1067578Y1459961D01*
X1064648Y1458789D01*
X1061133Y1457617D01*
X1056445Y1452344D01*
X1053516Y1445898D01*
X1052930Y1441797D01*
X1053516Y1438281D01*
X1054688Y1434766D01*
X1056445Y1431836D01*
X1058789Y1428906D01*
X1061719Y1426563D01*
X1068164Y1424219D01*
X1071680Y1423633D01*
X1075195Y1424219D01*
X1078711Y1424805D01*
X1081641Y1427148D01*
X1084570Y1429492D01*
X1086914Y1432422D01*
X1088672Y1435352D01*
X1089258Y1438867D01*
X1089844Y1442383D01*
X1089258Y1445898D01*
X1088672Y1448828D01*
X1086914Y1452344D01*
X892383Y1356836D02*
G36*
X892383Y1356836D02*
X892516Y1353906D01*
X932482D01*
X932227Y1356836D01*
X933398Y1369141D01*
X936328Y1380273D01*
X940430Y1390234D01*
X946875Y1399609D01*
X953906Y1406641D01*
X962109Y1412500D01*
X971484Y1416602D01*
X981445Y1418945D01*
X981140Y1353906D01*
X1019531D01*
Y1431250D01*
Y1442090D01*
X926660D01*
X921680Y1437109D01*
X914648Y1428906D01*
X908789Y1420117D01*
X904102Y1411328D01*
X900000Y1401367D01*
X896484Y1390820D01*
X894141Y1380273D01*
X892969Y1369141D01*
X892383Y1356836D01*
G37*
X926660Y1442090D02*
G36*
X926660Y1442090D02*
X1019531D01*
Y1442969D01*
X1018359Y1451758D01*
X1017188Y1458789D01*
X1014844Y1462891D01*
X1011328Y1465820D01*
X1007227Y1468164D01*
X1001367Y1469336D01*
X994336D01*
X984375D01*
X973828Y1467578D01*
X964453Y1465234D01*
X955078Y1461719D01*
X946289Y1457031D01*
X937500Y1451172D01*
X929297Y1444727D01*
X926660Y1442090D01*
G37*
X931347Y1262500D02*
G36*
X931347Y1262500D02*
X933984Y1260156D01*
X945117Y1251953D01*
X957422Y1245508D01*
X970313Y1240820D01*
X975000Y1235547D01*
X980273Y1231445D01*
X986719Y1228516D01*
X993164Y1226172D01*
X1003125Y1225586D01*
X1012500Y1226758D01*
X1020703Y1230859D01*
X1027734Y1236719D01*
X1045313Y1241406D01*
X1061133Y1247852D01*
X1075195Y1256641D01*
X1082031Y1262500D01*
X1018847D01*
X1018945Y1261914D01*
X1018359Y1258398D01*
X1017188Y1254883D01*
X1015430Y1251953D01*
X1013672Y1249023D01*
X1010742Y1247266D01*
X1007227Y1245508D01*
X1004297Y1244336D01*
X1000781D01*
X996680D01*
X990234Y1247266D01*
X987891Y1249609D01*
X985547Y1251953D01*
X983789Y1255469D01*
X983203Y1258984D01*
X982617Y1262500D01*
X931347D01*
G37*
X1034766Y1442383D02*
G36*
X1034766Y1442383D02*
X1034789Y1442090D01*
X1052972D01*
X1053516Y1445898D01*
X1056445Y1452344D01*
X1061133Y1457617D01*
X1064648Y1458789D01*
X1067578Y1459961D01*
X1071094Y1460547D01*
X1074609Y1459961D01*
X1078711Y1458789D01*
X1081641Y1457031D01*
X1084570Y1455273D01*
X1086914Y1452344D01*
X1088672Y1448828D01*
X1089258Y1445898D01*
X1089844Y1442383D01*
X1089795Y1442090D01*
X1108571D01*
X1108594Y1442383D01*
X1108008Y1449414D01*
X1106250Y1456445D01*
X1102734Y1462891D01*
X1098047Y1468750D01*
X1092188Y1472852D01*
X1086328Y1476367D01*
X1078711Y1478125D01*
X1071680Y1479297D01*
X1064648Y1478125D01*
X1057617Y1476367D01*
X1051172Y1472852D01*
X1045313Y1468164D01*
X1040625Y1462891D01*
X1037109Y1456445D01*
X1035352Y1449414D01*
X1034766Y1442383D01*
G37*
X892516Y1353906D02*
G36*
X892516Y1353906D02*
X892969Y1343945D01*
X894727Y1331641D01*
X897070Y1319336D01*
X900586Y1308203D01*
X904688Y1297656D01*
X909961Y1287695D01*
X916406Y1278320D01*
X923438Y1269531D01*
X931347Y1262500D01*
X982617D01*
X983203Y1266016D01*
X983789Y1269531D01*
X985547Y1272461D01*
X987891Y1275391D01*
X990820Y1277734D01*
X993750Y1279492D01*
X997266Y1280664D01*
X1000781D01*
X1004297D01*
X1007813Y1279492D01*
X1010742Y1277734D01*
X1013672Y1275391D01*
X1016016Y1272461D01*
X1017188Y1268945D01*
X1018359Y1265430D01*
X1018847Y1262500D01*
X1082031D01*
X1087500Y1267188D01*
X1094531Y1275391D01*
X1100391Y1284766D01*
X1105664Y1294141D01*
X1109766Y1304102D01*
X1113281Y1315234D01*
X1115625Y1326367D01*
X1116797Y1338672D01*
X1117383Y1351563D01*
Y1353906D01*
X1076910D01*
X1076367Y1339258D01*
X1073438Y1325195D01*
X1068164Y1313477D01*
X1061133Y1303516D01*
X1054688Y1297070D01*
X1047070Y1292383D01*
X1038867Y1288281D01*
X1029492Y1285938D01*
X1024805Y1290625D01*
X1019531Y1294141D01*
Y1353906D01*
X981140D01*
X980859Y1294141D01*
X975000Y1288867D01*
X966211Y1292969D01*
X959180Y1297656D01*
X952148Y1303516D01*
X946289Y1309961D01*
X940430Y1319922D01*
X935742Y1331055D01*
X933398Y1343359D01*
X932482Y1353906D01*
X892516D01*
G37*
X1034789Y1442090D02*
G36*
X1034789Y1442090D02*
X1035352Y1434766D01*
X1037109Y1428320D01*
X1040625Y1421875D01*
X1045313Y1416016D01*
X1050586Y1411328D01*
X1057617Y1407813D01*
X1064648Y1405469D01*
X1065234D01*
X1070508Y1391992D01*
X1074023Y1379102D01*
X1076367Y1366211D01*
X1076953Y1355078D01*
X1076910Y1353906D01*
X1117383D01*
Y1363281D01*
X1116797Y1375586D01*
X1115039Y1387891D01*
X1112109Y1399609D01*
X1108594Y1411914D01*
X1103906Y1424805D01*
X1108008Y1434766D01*
X1108571Y1442090D01*
X1089795D01*
X1089258Y1438867D01*
X1088672Y1435352D01*
X1086914Y1432422D01*
X1084570Y1429492D01*
X1081641Y1427148D01*
X1078711Y1424805D01*
X1075195Y1424219D01*
X1071680Y1423633D01*
X1068164Y1424219D01*
X1061719Y1426563D01*
X1058789Y1428906D01*
X1056445Y1431836D01*
X1054688Y1434766D01*
X1053516Y1438281D01*
X1052930Y1441797D01*
X1052972Y1442090D01*
X1034789D01*
G37*
D02*
D12*
X1300000Y475000D02*
X2500000D01*
Y1675000D01*
X1300000D01*
Y475000D01*
Y1875000D02*
X2500000D01*
Y3075000D01*
X1300000D01*
Y1875000D01*
X1787500Y3390000D02*
Y3460000D01*
X1912500Y3390000D02*
Y3460000D01*
X2037500Y3390000D02*
Y3460000D01*
X2100000Y5875000D02*
G75*
G03*
Y3375000I0J-1250000D01*
G01*
G75*
G03*
Y5875000I0J1250000D01*
G01*
X2162500Y3390000D02*
Y3460000D01*
X2287500Y3390000D02*
Y3460000D01*
X2412500Y3390000D02*
Y3460000D01*
X2675000Y2481500D02*
X5225000D01*
Y1181500D01*
X2675000D01*
Y2481500D01*
Y2991500D02*
X5225000D01*
Y401500D01*
X2675000D01*
Y2991500D01*
X2765000Y849500D02*
X2835000D01*
X2765000Y974500D02*
X2835000D01*
X2765000Y1103500D02*
X2835000D01*
X2765000Y1228500D02*
X2835000D01*
X2765000Y1611500D02*
X2835000D01*
X2765000Y1736500D02*
X2835000D01*
X2765000Y1865500D02*
X2835000D01*
X2765000Y1990500D02*
X2835000D01*
X2765000Y2119500D02*
X2835000D01*
X2765000Y2244500D02*
X2835000D01*
X2765000Y2373500D02*
X2835000D01*
X2765000Y2498500D02*
X2835000D01*
X3337500Y3510000D02*
Y3440000D01*
X3385000Y849500D02*
X3315000D01*
X3385000Y974500D02*
X3315000D01*
X3385000Y1865500D02*
X3315000D01*
X3385000Y1990500D02*
X3315000D01*
X3435000Y5421500D02*
X3365000D01*
X3435000Y5546500D02*
X3365000D01*
X3462500Y3510000D02*
Y3440000D01*
X3487500Y4190000D02*
Y4260000D01*
Y4610000D02*
Y4540000D01*
X3612500Y4190000D02*
Y4260000D01*
Y4610000D02*
Y4540000D01*
X3687500Y3710000D02*
Y3640000D01*
X3812500Y3710000D02*
Y3640000D01*
X3887500D02*
Y3710000D01*
X3890000Y5359000D02*
X4010000D01*
X3890000Y5609000D02*
X4010000D01*
X3890000D02*
X3950000D01*
Y5359000D01*
X3890000D01*
Y5609000D01*
G36*
X3890000Y5609000D02*
X3950000D01*
Y5359000D01*
X3890000D01*
Y5609000D01*
G37*
X4012500Y3640000D02*
Y3710000D01*
X4087500D02*
Y3640000D01*
X4212500Y3710000D02*
Y3640000D01*
X4585000Y849500D02*
X4515000D01*
X4585000Y974500D02*
X4515000D01*
X4585000Y2119500D02*
X4515000D01*
X4585000Y2244500D02*
X4515000D01*
X5065000Y849500D02*
X5135000D01*
X5065000Y974500D02*
X5135000D01*
X5065000Y1103500D02*
X5135000D01*
X5065000Y1228500D02*
X5135000D01*
X5065000Y1611500D02*
X5135000D01*
X5065000Y1736500D02*
X5135000D01*
X5065000Y2119500D02*
X5135000D01*
X5065000Y2244500D02*
X5135000D01*
X5065000Y2373500D02*
X5135000D01*
X5065000Y2498500D02*
X5135000D01*
X5065000Y2881500D02*
X5135000D01*
X5065000Y3006500D02*
X5135000D01*
Y3135500D02*
X5065000D01*
X5135000Y3260500D02*
X5065000D01*
X5135000Y3389500D02*
X5065000D01*
X5135000Y3514500D02*
X5065000D01*
X5135000Y3643500D02*
X5065000D01*
X5135000Y3768500D02*
X5065000D01*
X5165000Y5421500D02*
X5235000D01*
X5165000Y5546500D02*
X5235000D01*
X5165000Y5675500D02*
X5235000D01*
X5165000Y5800500D02*
X5235000D01*
X5400000Y475000D02*
X6600000D01*
Y1675000D01*
X5400000D01*
Y475000D01*
Y1875000D02*
X6600000D01*
Y3075000D01*
X5400000D01*
Y1875000D01*
X5546000Y4625000D02*
G75*
G03*
X6054000I254000J0D01*
G01*
G75*
G03*
X5546000I-254000J0D01*
G01*
X5547500Y4135000D02*
X5250000D01*
Y5115000D01*
X5547500D01*
X5800000Y3375000D02*
G75*
G03*
Y5875000I0J1250000D01*
G01*
G75*
G03*
Y3375000I0J-1250000D01*
G01*
X6100000Y4135000D02*
X6500000D01*
Y4244000D01*
X6100000Y5115000D02*
X6500000D01*
Y5006000D01*
X6885000Y4562500D02*
X6815000D01*
X6885000Y4687500D02*
X6815000D01*
D02*
D13*
X1427059Y3292075D02*
X1335294Y3292075D01*
Y3345604D01*
X1342941Y3360899D01*
X1358235Y3368546D01*
X1373529Y3360899D01*
X1381176Y3345604D01*
Y3292075D01*
Y3345604D02*
X1427059Y3368546D01*
Y3412669D02*
X1427059Y3443257D01*
Y3427963D02*
X1335294Y3427963D01*
X1350588Y3412669D01*
X1427059Y3485775D02*
X1335294Y3546951D01*
Y3485775D01*
X1450000Y5320882D02*
X1457647Y5305588D01*
X1472941Y5297941D01*
X1503529D01*
X1518824Y5305588D01*
X1526471Y5320882D01*
X1518824Y5336176D01*
X1503529Y5343824D01*
X1472941D01*
X1457647Y5351471D01*
X1450000Y5366765D01*
X1457647Y5382059D01*
X1472941Y5389706D01*
X1503529D01*
X1518824Y5382059D01*
X1526471Y5366765D01*
X1555300Y5389706D02*
X1562947Y5297941D01*
X1593535Y5343824D01*
X1624124Y5297941D01*
X1631771Y5389706D01*
X1675894Y5297941D02*
X1706482Y5297941D01*
X1691188D02*
X1691188Y5389706D01*
X1675894Y5374412D01*
X1577059Y3292075D02*
X1485294Y3292075D01*
Y3345604D01*
X1492941Y3360899D01*
X1508235Y3368546D01*
X1523529Y3360899D01*
X1531176Y3345604D01*
Y3292075D01*
Y3345604D02*
X1577059Y3368546D01*
Y3412669D02*
X1577059Y3443257D01*
Y3427963D02*
X1485294Y3427963D01*
X1500588Y3412669D01*
X1554118Y3485775D02*
X1538824Y3493422D01*
X1531176Y3508716D01*
Y3524010D01*
X1538824Y3539304D01*
X1554118Y3546951D01*
X1569412Y3539304D01*
X1577059Y3524010D01*
Y3508716D01*
X1569412Y3493422D01*
X1554118Y3485775D01*
X1531176D01*
X1508235Y3493422D01*
X1492941Y3508716D01*
X1485294Y3524010D01*
X1727059Y3292075D02*
X1635294Y3292075D01*
Y3345604D01*
X1642941Y3360899D01*
X1658235Y3368546D01*
X1673529Y3360899D01*
X1681176Y3345604D01*
Y3292075D01*
Y3345604D02*
X1727059Y3368546D01*
Y3412669D02*
X1727059Y3443257D01*
Y3427963D02*
X1635294Y3427963D01*
X1650588Y3412669D01*
X1719412Y3485775D02*
X1727059Y3501069D01*
Y3524010D01*
X1719412Y3539304D01*
X1704118Y3546951D01*
X1696471D01*
X1681176Y3539304D01*
X1673529Y3524010D01*
Y3485775D01*
X1635294D01*
Y3546951D01*
X1758625Y1720882D02*
X1766272Y1705588D01*
X1781566Y1697941D01*
X1812154D01*
X1827449Y1705588D01*
X1835096Y1720882D01*
X1827449Y1736176D01*
X1812154Y1743824D01*
X1781566D01*
X1766272Y1751471D01*
X1758625Y1766765D01*
X1766272Y1782059D01*
X1781566Y1789706D01*
X1812154D01*
X1827449Y1782059D01*
X1835096Y1766765D01*
X1863925Y1789706D02*
X1871572Y1697941D01*
X1902160Y1743824D01*
X1932749Y1697941D01*
X1940396Y1789706D01*
X2007460Y1697941D02*
X2007460Y1789706D01*
X1969225Y1728529D01*
X2030401D01*
X1758625Y3120882D02*
X1766272Y3105588D01*
X1781566Y3097941D01*
X1812154D01*
X1827449Y3105588D01*
X1835096Y3120882D01*
X1827449Y3136176D01*
X1812154Y3143824D01*
X1781566D01*
X1766272Y3151471D01*
X1758625Y3166765D01*
X1766272Y3182059D01*
X1781566Y3189706D01*
X1812154D01*
X1827449Y3182059D01*
X1835096Y3166765D01*
X1863925Y3189706D02*
X1871572Y3097941D01*
X1902160Y3143824D01*
X1932749Y3097941D01*
X1940396Y3189706D01*
X1969225Y3105588D02*
X1984519Y3097941D01*
X2007460D01*
X2022754Y3105588D01*
X2030401Y3120882D01*
Y3128529D01*
X2022754Y3143824D01*
X2007460Y3151471D01*
X1969225D01*
Y3189706D01*
X2030401D01*
X2667075Y1297941D02*
X2667075Y1389706D01*
X2720604D01*
X2735899Y1382059D01*
X2743546Y1366765D01*
X2735899Y1351471D01*
X2720604Y1343824D01*
X2667075D01*
X2720604D02*
X2743546Y1297941D01*
X2833551D02*
X2772375Y1297941D01*
X2825904Y1351471D01*
X2833551Y1366765D01*
X2825904Y1382059D01*
X2810610Y1389706D01*
X2787669D01*
X2772375Y1382059D01*
X2868422Y1305588D02*
X2883716Y1297941D01*
X2899010D01*
X2914304Y1305588D01*
X2921951Y1320882D01*
Y1366765D01*
X2914304Y1382059D01*
X2899010Y1389706D01*
X2883716D01*
X2868422Y1382059D01*
X2860775Y1366765D01*
Y1320882D01*
X2868422Y1305588D01*
X2914304Y1382059D01*
X2667075Y1447941D02*
X2667075Y1539706D01*
X2720604D01*
X2735899Y1532059D01*
X2743546Y1516765D01*
X2735899Y1501471D01*
X2720604Y1493824D01*
X2667075D01*
X2720604D02*
X2743546Y1447941D01*
X2787669D02*
X2818257Y1447941D01*
X2802963D02*
X2802963Y1539706D01*
X2787669Y1524412D01*
X2899010Y1447941D02*
X2899010Y1539706D01*
X2860775Y1478529D01*
X2921951D01*
X2667075Y2547941D02*
X2667075Y2639706D01*
X2720604D01*
X2735899Y2632059D01*
X2743546Y2616765D01*
X2735899Y2601471D01*
X2720604Y2593824D01*
X2667075D01*
X2720604D02*
X2743546Y2547941D01*
X2787669D02*
X2818257Y2547941D01*
X2802963D02*
X2802963Y2639706D01*
X2787669Y2624412D01*
X2868422Y2555588D02*
X2883716Y2547941D01*
X2899010D01*
X2914304Y2555588D01*
X2921951Y2570882D01*
X2914304Y2586176D01*
X2899010Y2593824D01*
X2883716D01*
X2899010D02*
X2914304Y2601471D01*
X2921951Y2616765D01*
X2914304Y2632059D01*
X2899010Y2639706D01*
X2883716D01*
X2868422Y2632059D01*
X2667075Y2697941D02*
X2667075Y2789706D01*
X2720604D01*
X2735899Y2782059D01*
X2743546Y2766765D01*
X2735899Y2751471D01*
X2720604Y2743824D01*
X2667075D01*
X2720604D02*
X2743546Y2697941D01*
X2833551D02*
X2772375Y2697941D01*
X2825904Y2751471D01*
X2833551Y2766765D01*
X2825904Y2782059D01*
X2810610Y2789706D01*
X2787669D01*
X2772375Y2782059D01*
X2876069Y2697941D02*
X2906657Y2697941D01*
X2891363D02*
X2891363Y2789706D01*
X2876069Y2774412D01*
X2667075Y2847941D02*
X2667075Y2939706D01*
X2720604D01*
X2735899Y2932059D01*
X2743546Y2916765D01*
X2735899Y2901471D01*
X2720604Y2893824D01*
X2667075D01*
X2720604D02*
X2743546Y2847941D01*
X2787669D02*
X2818257Y2847941D01*
X2802963D02*
X2802963Y2939706D01*
X2787669Y2924412D01*
X2921951Y2847941D02*
X2860775Y2847941D01*
X2914304Y2901471D01*
X2921951Y2916765D01*
X2914304Y2932059D01*
X2899010Y2939706D01*
X2876069D01*
X2860775Y2932059D01*
X2667075Y2997941D02*
X2667075Y3089706D01*
X2720604D01*
X2735899Y3082059D01*
X2743546Y3066765D01*
X2735899Y3051471D01*
X2720604Y3043824D01*
X2667075D01*
X2720604D02*
X2743546Y2997941D01*
X2787669D02*
X2818257Y2997941D01*
X2802963D02*
X2802963Y3089706D01*
X2787669Y3074412D01*
X2876069Y2997941D02*
X2906657Y2997941D01*
X2891363D02*
X2891363Y3089706D01*
X2876069Y3074412D01*
X3293546Y720235D02*
X3285899Y712588D01*
X3270604Y704941D01*
X3247663D01*
X3232369Y712588D01*
X3224722Y720235D01*
X3217075Y735529D01*
Y766118D01*
X3224722Y781412D01*
X3232369Y789059D01*
X3247663Y796706D01*
X3270604D01*
X3285899Y789059D01*
X3293546Y781412D01*
X3337669Y704941D02*
X3368257Y704941D01*
X3352963D02*
X3352963Y796706D01*
X3337669Y781412D01*
X3471951Y704941D02*
X3410775Y704941D01*
X3464304Y758471D01*
X3471951Y773765D01*
X3464304Y789059D01*
X3449010Y796706D01*
X3426069D01*
X3410775Y789059D01*
X3293546Y1736235D02*
X3285899Y1728588D01*
X3270604Y1720941D01*
X3247663D01*
X3232369Y1728588D01*
X3224722Y1736235D01*
X3217075Y1751529D01*
Y1782118D01*
X3224722Y1797412D01*
X3232369Y1805059D01*
X3247663Y1812706D01*
X3270604D01*
X3285899Y1805059D01*
X3293546Y1797412D01*
X3337669Y1720941D02*
X3368257Y1720941D01*
X3352963D02*
X3352963Y1812706D01*
X3337669Y1797412D01*
X3418422Y1728588D02*
X3433716Y1720941D01*
X3449010D01*
X3464304Y1728588D01*
X3471951Y1743882D01*
X3464304Y1759176D01*
X3449010Y1766824D01*
X3433716D01*
X3449010D02*
X3464304Y1774471D01*
X3471951Y1789765D01*
X3464304Y1805059D01*
X3449010Y1812706D01*
X3433716D01*
X3418422Y1805059D01*
X3377059Y4875000D02*
X3285294Y4951471D01*
Y4875000D02*
X3377059Y4951471D01*
Y4995594D02*
X3377059Y5026182D01*
Y5010888D02*
X3285294Y5010888D01*
X3300588Y4995594D01*
X3258625Y5276941D02*
X3258625Y5368706D01*
X3335096D01*
X3319801Y5322824D02*
X3258625Y5322824D01*
X3417454D02*
X3432749Y5315176D01*
X3440396Y5299882D01*
X3432749Y5284588D01*
X3417454Y5276941D01*
X3363925D01*
Y5368706D01*
X3417454D01*
X3432749Y5361059D01*
X3440396Y5345765D01*
X3432749Y5330471D01*
X3417454Y5322824D01*
X3363925D01*
X3484519Y5276941D02*
X3515107Y5276941D01*
X3499813D02*
X3499813Y5368706D01*
X3484519Y5353412D01*
X3411765Y4212746D02*
X3419412Y4205099D01*
X3427059Y4189804D01*
Y4166863D01*
X3419412Y4151569D01*
X3411765Y4143922D01*
X3396471Y4136275D01*
X3365882D01*
X3350588Y4143922D01*
X3342941Y4151569D01*
X3335294Y4166863D01*
Y4189804D01*
X3342941Y4205099D01*
X3350588Y4212746D01*
X3419412Y4249222D02*
X3427059Y4264516D01*
Y4279810D01*
X3419412Y4295104D01*
X3404118Y4302751D01*
X3388824Y4295104D01*
X3381176Y4279810D01*
Y4264516D01*
Y4279810D02*
X3373529Y4295104D01*
X3358235Y4302751D01*
X3342941Y4295104D01*
X3335294Y4279810D01*
Y4264516D01*
X3342941Y4249222D01*
X3411765Y4562746D02*
X3419412Y4555099D01*
X3427059Y4539804D01*
Y4516863D01*
X3419412Y4501569D01*
X3411765Y4493922D01*
X3396471Y4486275D01*
X3365882D01*
X3350588Y4493922D01*
X3342941Y4501569D01*
X3335294Y4516863D01*
Y4539804D01*
X3342941Y4555099D01*
X3350588Y4562746D01*
X3419412Y4591575D02*
X3427059Y4606869D01*
Y4629810D01*
X3419412Y4645104D01*
X3404118Y4652751D01*
X3396471D01*
X3381176Y4645104D01*
X3373529Y4629810D01*
Y4591575D01*
X3335294D01*
Y4652751D01*
X3607059Y3342075D02*
X3515294Y3342075D01*
Y3395604D01*
X3522941Y3410899D01*
X3538235Y3418546D01*
X3553529Y3410899D01*
X3561176Y3395604D01*
Y3342075D01*
Y3395604D02*
X3607059Y3418546D01*
Y3508551D02*
X3607059Y3447375D01*
X3553529Y3500904D01*
X3538235Y3508551D01*
X3522941Y3500904D01*
X3515294Y3485610D01*
Y3462669D01*
X3522941Y3447375D01*
X3607059Y3596951D02*
X3607059Y3535775D01*
X3553529Y3589304D01*
X3538235Y3596951D01*
X3522941Y3589304D01*
X3515294Y3574010D01*
Y3551069D01*
X3522941Y3535775D01*
X3500000Y5105588D02*
X3515294Y5097941D01*
X3538235D01*
X3553529Y5105588D01*
X3561176Y5120882D01*
Y5128529D01*
X3553529Y5143824D01*
X3538235Y5151471D01*
X3500000D01*
Y5189706D01*
X3561176D01*
X3588400D02*
X3626635Y5097941D01*
X3664871Y5189706D01*
X3788235Y5097941D02*
X3788235Y5189706D01*
X3750000D02*
X3826471Y5189706D01*
X3855300Y5097941D02*
X3916476Y5159118D01*
Y5097941D02*
X3855300Y5159118D01*
X3861275Y5711691D02*
X3861275Y5803456D01*
X3907157D01*
X3922451Y5795809D01*
X3930099Y5788162D01*
X3937746Y5772868D01*
Y5742279D01*
X3930099Y5726985D01*
X3922451Y5719338D01*
X3907157Y5711691D01*
X3861275D01*
X3981869D02*
X4012457Y5711691D01*
X3997163D02*
X3997163Y5803456D01*
X3981869Y5788162D01*
X3778025Y2597941D02*
X3778025Y2689706D01*
X3823907D01*
X3839201Y2682059D01*
X3846849Y2674412D01*
X3854496Y2659118D01*
Y2628529D01*
X3846849Y2613235D01*
X3839201Y2605588D01*
X3823907Y2597941D01*
X3778025D01*
X3883325D02*
X3913913Y2597941D01*
X3898619D02*
X3898619Y2689706D01*
X3883325D02*
X3913913Y2689706D01*
X3939225Y2620882D02*
X3946872Y2605588D01*
X3962166Y2597941D01*
X3992754D01*
X4008049Y2605588D01*
X4015696Y2620882D01*
X4008049Y2636176D01*
X3992754Y2643824D01*
X3962166D01*
X3946872Y2651471D01*
X3939225Y2666765D01*
X3946872Y2682059D01*
X3962166Y2689706D01*
X3992754D01*
X4008049Y2682059D01*
X4015696Y2666765D01*
X4044525Y2597941D02*
X4044525Y2689706D01*
X4098054D01*
X4113349Y2682059D01*
X4120996Y2666765D01*
X4113349Y2651471D01*
X4098054Y2643824D01*
X4044525D01*
X4165119Y2597941D02*
X4195707Y2597941D01*
X4180413D02*
X4180413Y2689706D01*
X4165119Y2674412D01*
X4000000Y5097941D02*
X4000000Y5189706D01*
X4053529D01*
X4068824Y5182059D01*
X4076471Y5166765D01*
X4068824Y5151471D01*
X4053529Y5143824D01*
X4000000D01*
X4053529D02*
X4076471Y5097941D01*
X4105300D02*
X4166476Y5159118D01*
Y5097941D02*
X4105300Y5159118D01*
X4357059Y3125175D02*
X4265294Y3125175D01*
Y3178704D01*
X4272941Y3193999D01*
X4288235Y3201646D01*
X4303529Y3193999D01*
X4311176Y3178704D01*
Y3125175D01*
X4265294Y3230475D02*
X4357059Y3238122D01*
X4311176Y3268710D01*
X4357059Y3299299D01*
X4265294Y3306946D01*
X4357059Y3335775D02*
X4265294Y3335775D01*
Y3389304D01*
X4272941Y3404599D01*
X4288235Y3412246D01*
X4303529Y3404599D01*
X4311176Y3389304D01*
Y3335775D01*
Y3389304D02*
X4357059Y3412246D01*
X4341765Y3662746D02*
X4349412Y3655099D01*
X4357059Y3639804D01*
Y3616863D01*
X4349412Y3601569D01*
X4341765Y3593922D01*
X4326471Y3586275D01*
X4295882D01*
X4280588Y3593922D01*
X4272941Y3601569D01*
X4265294Y3616863D01*
Y3639804D01*
X4272941Y3655099D01*
X4280588Y3662746D01*
X4357059Y3706869D02*
X4357059Y3737457D01*
Y3722163D02*
X4265294Y3722163D01*
X4280588Y3706869D01*
X4357059Y4158325D02*
X4357059Y4188913D01*
Y4173619D02*
X4265294Y4173619D01*
Y4158325D02*
X4265294Y4188913D01*
X4341765Y4290696D02*
X4349412Y4283049D01*
X4357059Y4267754D01*
Y4244813D01*
X4349412Y4229519D01*
X4341765Y4221872D01*
X4326471Y4214225D01*
X4295882D01*
X4280588Y4221872D01*
X4272941Y4229519D01*
X4265294Y4244813D01*
Y4267754D01*
X4272941Y4283049D01*
X4280588Y4290696D01*
X4357059Y4334819D02*
X4357059Y4365407D01*
Y4350113D02*
X4265294Y4350113D01*
X4280588Y4334819D01*
X4303529Y5136176D02*
X4326471Y5136176D01*
Y5128529D01*
X4318824Y5113235D01*
X4311176Y5105588D01*
X4295882Y5097941D01*
X4280588D01*
X4265294Y5105588D01*
X4257647Y5113235D01*
X4250000Y5128529D01*
Y5159118D01*
X4257647Y5174412D01*
X4265294Y5182059D01*
X4280588Y5189706D01*
X4295882D01*
X4311176Y5182059D01*
X4318824Y5174412D01*
X4326471Y5159118D01*
X4355300Y5097941D02*
X4355300Y5189706D01*
X4431771Y5097941D01*
Y5189706D01*
X4460600Y5097941D02*
X4460600Y5189706D01*
X4506482D01*
X4521776Y5182059D01*
X4529424Y5174412D01*
X4537071Y5159118D01*
Y5128529D01*
X4529424Y5113235D01*
X4521776Y5105588D01*
X4506482Y5097941D01*
X4460600D01*
X4591765Y3662746D02*
X4599412Y3655099D01*
X4607059Y3639804D01*
Y3616863D01*
X4599412Y3601569D01*
X4591765Y3593922D01*
X4576471Y3586275D01*
X4545882D01*
X4530588Y3593922D01*
X4522941Y3601569D01*
X4515294Y3616863D01*
Y3639804D01*
X4522941Y3655099D01*
X4530588Y3662746D01*
X4607059Y3729810D02*
X4515294Y3729810D01*
X4576471Y3691575D01*
Y3752751D01*
X4461765Y3662746D02*
X4469412Y3655099D01*
X4477059Y3639804D01*
Y3616863D01*
X4469412Y3601569D01*
X4461765Y3593922D01*
X4446471Y3586275D01*
X4415882D01*
X4400588Y3593922D01*
X4392941Y3601569D01*
X4385294Y3616863D01*
Y3639804D01*
X4392941Y3655099D01*
X4400588Y3662746D01*
X4477059Y3752751D02*
X4477059Y3691575D01*
X4423529Y3745104D01*
X4408235Y3752751D01*
X4392941Y3745104D01*
X4385294Y3729810D01*
Y3706869D01*
X4392941Y3691575D01*
X4493546Y720235D02*
X4485899Y712588D01*
X4470604Y704941D01*
X4447663D01*
X4432369Y712588D01*
X4424722Y720235D01*
X4417075Y735529D01*
Y766118D01*
X4424722Y781412D01*
X4432369Y789059D01*
X4447663Y796706D01*
X4470604D01*
X4485899Y789059D01*
X4493546Y781412D01*
X4537669Y704941D02*
X4568257Y704941D01*
X4552963D02*
X4552963Y796706D01*
X4537669Y781412D01*
X4626069Y704941D02*
X4656657Y704941D01*
X4641363D02*
X4641363Y796706D01*
X4626069Y781412D01*
X4493546Y1990235D02*
X4485899Y1982588D01*
X4470604Y1974941D01*
X4447663D01*
X4432369Y1982588D01*
X4424722Y1990235D01*
X4417075Y2005529D01*
Y2036118D01*
X4424722Y2051412D01*
X4432369Y2059059D01*
X4447663Y2066706D01*
X4470604D01*
X4485899Y2059059D01*
X4493546Y2051412D01*
X4537669Y1974941D02*
X4568257Y1974941D01*
X4552963D02*
X4552963Y2066706D01*
X4537669Y2051412D01*
X4618422Y1982588D02*
X4633716Y1974941D01*
X4649010D01*
X4664304Y1982588D01*
X4671951Y1997882D01*
Y2043765D01*
X4664304Y2059059D01*
X4649010Y2066706D01*
X4633716D01*
X4618422Y2059059D01*
X4610775Y2043765D01*
Y1997882D01*
X4618422Y1982588D01*
X4664304Y2059059D01*
X4967075Y1297941D02*
X4967075Y1389706D01*
X5020604D01*
X5035899Y1382059D01*
X5043546Y1366765D01*
X5035899Y1351471D01*
X5020604Y1343824D01*
X4967075D01*
X5020604D02*
X5043546Y1297941D01*
X5087669D02*
X5118257Y1297941D01*
X5102963D02*
X5102963Y1389706D01*
X5087669Y1374412D01*
X5183716Y1297941D02*
X5199010Y1305588D01*
X5214304Y1320882D01*
X5221951Y1343824D01*
Y1366765D01*
X5214304Y1382059D01*
X5199010Y1389706D01*
X5183716D01*
X5168422Y1382059D01*
X5160775Y1366765D01*
X5168422Y1351471D01*
X5183716Y1343824D01*
X5199010D01*
X5214304Y1351471D01*
X5221951Y1366765D01*
X4967075Y1447941D02*
X4967075Y1539706D01*
X5020604D01*
X5035899Y1532059D01*
X5043546Y1516765D01*
X5035899Y1501471D01*
X5020604Y1493824D01*
X4967075D01*
X5020604D02*
X5043546Y1447941D01*
X5087669D02*
X5118257Y1447941D01*
X5102963D02*
X5102963Y1539706D01*
X5087669Y1524412D01*
X5168422Y1455588D02*
X5183716Y1447941D01*
X5199010D01*
X5214304Y1455588D01*
X5221951Y1470882D01*
Y1516765D01*
X5214304Y1532059D01*
X5199010Y1539706D01*
X5183716D01*
X5168422Y1532059D01*
X5160775Y1516765D01*
Y1470882D01*
X5168422Y1455588D01*
X5214304Y1532059D01*
X5011275Y1796941D02*
X5011275Y1888706D01*
X5064804D01*
X5080099Y1881059D01*
X5087746Y1865765D01*
X5080099Y1850471D01*
X5064804Y1842824D01*
X5011275D01*
X5064804D02*
X5087746Y1796941D01*
X5139516D02*
X5154810Y1804588D01*
X5170104Y1819882D01*
X5177751Y1842824D01*
Y1865765D01*
X5170104Y1881059D01*
X5154810Y1888706D01*
X5139516D01*
X5124222Y1881059D01*
X5116575Y1865765D01*
X5124222Y1850471D01*
X5139516Y1842824D01*
X5154810D01*
X5170104Y1850471D01*
X5177751Y1865765D01*
X4967075Y2547941D02*
X4967075Y2639706D01*
X5020604D01*
X5035899Y2632059D01*
X5043546Y2616765D01*
X5035899Y2601471D01*
X5020604Y2593824D01*
X4967075D01*
X5020604D02*
X5043546Y2547941D01*
X5087669D02*
X5118257Y2547941D01*
X5102963D02*
X5102963Y2639706D01*
X5087669Y2624412D01*
X5183716Y2593824D02*
X5199010Y2593824D01*
X5214304Y2601471D01*
X5221951Y2616765D01*
X5214304Y2632059D01*
X5199010Y2639706D01*
X5183716D01*
X5168422Y2632059D01*
X5160775Y2616765D01*
X5168422Y2601471D01*
X5183716Y2593824D01*
X5168422Y2586176D01*
X5160775Y2570882D01*
X5168422Y2555588D01*
X5183716Y2547941D01*
X5199010D01*
X5214304Y2555588D01*
X5221951Y2570882D01*
X5214304Y2586176D01*
X5199010Y2593824D01*
X5011275Y2697941D02*
X5011275Y2789706D01*
X5064804D01*
X5080099Y2782059D01*
X5087746Y2766765D01*
X5080099Y2751471D01*
X5064804Y2743824D01*
X5011275D01*
X5064804D02*
X5087746Y2697941D01*
X5139516Y2743824D02*
X5154810Y2743824D01*
X5170104Y2751471D01*
X5177751Y2766765D01*
X5170104Y2782059D01*
X5154810Y2789706D01*
X5139516D01*
X5124222Y2782059D01*
X5116575Y2766765D01*
X5124222Y2751471D01*
X5139516Y2743824D01*
X5124222Y2736176D01*
X5116575Y2720882D01*
X5124222Y2705588D01*
X5139516Y2697941D01*
X5154810D01*
X5170104Y2705588D01*
X5177751Y2720882D01*
X5170104Y2736176D01*
X5154810Y2743824D01*
X5111275Y5147941D02*
X5111275Y5239706D01*
X5164804D01*
X5180099Y5232059D01*
X5187746Y5216765D01*
X5180099Y5201471D01*
X5164804Y5193824D01*
X5111275D01*
X5164804D02*
X5187746Y5147941D01*
X5224222Y5155588D02*
X5239516Y5147941D01*
X5254810D01*
X5270104Y5155588D01*
X5277751Y5170882D01*
X5270104Y5186176D01*
X5254810Y5193824D01*
X5239516D01*
X5254810D02*
X5270104Y5201471D01*
X5277751Y5216765D01*
X5270104Y5232059D01*
X5254810Y5239706D01*
X5239516D01*
X5224222Y5232059D01*
X5111275Y5297941D02*
X5111275Y5389706D01*
X5164804D01*
X5180099Y5382059D01*
X5187746Y5366765D01*
X5180099Y5351471D01*
X5164804Y5343824D01*
X5111275D01*
X5164804D02*
X5187746Y5297941D01*
X5277751D02*
X5216575Y5297941D01*
X5270104Y5351471D01*
X5277751Y5366765D01*
X5270104Y5382059D01*
X5254810Y5389706D01*
X5231869D01*
X5216575Y5382059D01*
X5207059Y4536275D02*
X5115294Y4536275D01*
Y4589804D01*
X5122941Y4605099D01*
X5138235Y4612746D01*
X5153529Y4605099D01*
X5161176Y4589804D01*
Y4536275D01*
Y4589804D02*
X5207059Y4612746D01*
Y4656869D02*
X5207059Y4687457D01*
Y4672163D02*
X5115294Y4672163D01*
X5130588Y4656869D01*
X5311275Y3117941D02*
X5311275Y3209706D01*
X5364804D01*
X5380099Y3202059D01*
X5387746Y3186765D01*
X5380099Y3171471D01*
X5364804Y3163824D01*
X5311275D01*
X5364804D02*
X5387746Y3117941D01*
X5416575D02*
X5477751Y3209706D01*
X5416575D01*
X5387746Y3283235D02*
X5380099Y3275588D01*
X5364804Y3267941D01*
X5341863D01*
X5326569Y3275588D01*
X5318922Y3283235D01*
X5311275Y3298529D01*
Y3329118D01*
X5318922Y3344412D01*
X5326569Y3352059D01*
X5341863Y3359706D01*
X5364804D01*
X5380099Y3352059D01*
X5387746Y3344412D01*
X5439516Y3267941D02*
X5454810Y3275588D01*
X5470104Y3290882D01*
X5477751Y3313824D01*
Y3336765D01*
X5470104Y3352059D01*
X5454810Y3359706D01*
X5439516D01*
X5424222Y3352059D01*
X5416575Y3336765D01*
X5424222Y3321471D01*
X5439516Y3313824D01*
X5454810D01*
X5470104Y3321471D01*
X5477751Y3336765D01*
X5387746Y3483235D02*
X5380099Y3475588D01*
X5364804Y3467941D01*
X5341863D01*
X5326569Y3475588D01*
X5318922Y3483235D01*
X5311275Y3498529D01*
Y3529118D01*
X5318922Y3544412D01*
X5326569Y3552059D01*
X5341863Y3559706D01*
X5364804D01*
X5380099Y3552059D01*
X5387746Y3544412D01*
X5416575Y3467941D02*
X5477751Y3559706D01*
X5416575D01*
X5387746Y3683235D02*
X5380099Y3675588D01*
X5364804Y3667941D01*
X5341863D01*
X5326569Y3675588D01*
X5318922Y3683235D01*
X5311275Y3698529D01*
Y3729118D01*
X5318922Y3744412D01*
X5326569Y3752059D01*
X5341863Y3759706D01*
X5364804D01*
X5380099Y3752059D01*
X5387746Y3744412D01*
X5439516Y3713824D02*
X5454810Y3713824D01*
X5470104Y3721471D01*
X5477751Y3736765D01*
X5470104Y3752059D01*
X5454810Y3759706D01*
X5439516D01*
X5424222Y3752059D01*
X5416575Y3736765D01*
X5424222Y3721471D01*
X5439516Y3713824D01*
X5424222Y3706176D01*
X5416575Y3690882D01*
X5424222Y3675588D01*
X5439516Y3667941D01*
X5454810D01*
X5470104Y3675588D01*
X5477751Y3690882D01*
X5470104Y3706176D01*
X5454810Y3713824D01*
X5858625Y1720882D02*
X5866272Y1705588D01*
X5881566Y1697941D01*
X5912154D01*
X5927449Y1705588D01*
X5935096Y1720882D01*
X5927449Y1736176D01*
X5912154Y1743824D01*
X5881566D01*
X5866272Y1751471D01*
X5858625Y1766765D01*
X5866272Y1782059D01*
X5881566Y1789706D01*
X5912154D01*
X5927449Y1782059D01*
X5935096Y1766765D01*
X5963925Y1789706D02*
X5971572Y1697941D01*
X6002160Y1743824D01*
X6032749Y1697941D01*
X6040396Y1789706D01*
X6076872Y1705588D02*
X6092166Y1697941D01*
X6107460D01*
X6122754Y1705588D01*
X6130401Y1720882D01*
X6122754Y1736176D01*
X6107460Y1743824D01*
X6092166D01*
X6107460D02*
X6122754Y1751471D01*
X6130401Y1766765D01*
X6122754Y1782059D01*
X6107460Y1789706D01*
X6092166D01*
X6076872Y1782059D01*
X5858625Y3120882D02*
X5866272Y3105588D01*
X5881566Y3097941D01*
X5912154D01*
X5927449Y3105588D01*
X5935096Y3120882D01*
X5927449Y3136176D01*
X5912154Y3143824D01*
X5881566D01*
X5866272Y3151471D01*
X5858625Y3166765D01*
X5866272Y3182059D01*
X5881566Y3189706D01*
X5912154D01*
X5927449Y3182059D01*
X5935096Y3166765D01*
X5963925Y3189706D02*
X5971572Y3097941D01*
X6002160Y3143824D01*
X6032749Y3097941D01*
X6040396Y3189706D01*
X6130401Y3097941D02*
X6069225Y3097941D01*
X6122754Y3151471D01*
X6130401Y3166765D01*
X6122754Y3182059D01*
X6107460Y3189706D01*
X6084519D01*
X6069225Y3182059D01*
X6837746Y4433235D02*
X6830099Y4425588D01*
X6814804Y4417941D01*
X6791863D01*
X6776569Y4425588D01*
X6768922Y4433235D01*
X6761275Y4448529D01*
Y4479118D01*
X6768922Y4494412D01*
X6776569Y4502059D01*
X6791863Y4509706D01*
X6814804D01*
X6830099Y4502059D01*
X6837746Y4494412D01*
X6866575Y4440882D02*
X6874222Y4456176D01*
X6889516Y4463824D01*
X6904810D01*
X6920104Y4456176D01*
X6927751Y4440882D01*
X6920104Y4425588D01*
X6904810Y4417941D01*
X6889516D01*
X6874222Y4425588D01*
X6866575Y4440882D01*
Y4463824D01*
X6874222Y4486765D01*
X6889516Y4502059D01*
X6904810Y4509706D01*
D02*
D76*
X1430000Y4000000D02*
X1880000D01*
X1430000Y5250000D02*
Y4000000D01*
Y5250000D02*
X1880000D01*
X2400000Y4625000D02*
G75*
G03*
X1800000I-300000J0D01*
G01*
G75*
G03*
X2400000I300000J0D01*
G01*
X2770000Y4000000D02*
Y4250000D01*
Y4000000D02*
X2300000D01*
X2770000Y4775000D02*
Y4475000D01*
Y5250000D02*
Y5000000D01*
Y5250000D02*
X2300000D01*
X3442000Y4829750D02*
X3473750Y4798000D01*
X3442000Y5020250D02*
X3473750Y5052000D01*
X3442000Y5020250D02*
Y4829750D01*
X3473750Y4798000D02*
X3632500D01*
X3473750Y5052000D02*
X3664250D01*
X3696000Y5020250D01*
X3727750Y5052000D01*
X3918250D01*
X3632500Y4798000D02*
X3664250D01*
X3696000Y4829750D01*
X3727750Y4798000D01*
X3918250D01*
X3700000Y4375000D02*
G75*
G02*
Y4175000I0J-100000D01*
G01*
Y4500000D02*
Y4050000D01*
X3727750Y5052000D02*
X3918250D01*
X3950000Y5020250D01*
X3981750Y5052000D01*
X4172250D01*
X3886500Y4798000D02*
X3918250D01*
X3950000Y4829750D01*
X3981750Y4798000D01*
X4172250D01*
X3918250D02*
X3950000Y4829750D01*
X3918250Y5052000D02*
X3950000Y5020250D01*
Y3082500D02*
G75*
G03*
Y3467500I0J192500D01*
G01*
G75*
G03*
X3800000Y3395649I0J-192500D01*
G01*
Y3154351D01*
G75*
G03*
X3950000Y3082500I150000J120649D01*
G01*
Y3125000D02*
G75*
G03*
Y3425000I0J150000D01*
G01*
G75*
G03*
Y3125000I0J-150000D01*
G01*
X3981750Y5052000D02*
X4172250D01*
X4204000Y5020250D01*
X4235750Y5052000D01*
X4426250D01*
X4140500Y4798000D02*
X4172250D01*
X4204000Y4829750D01*
X4235750Y4798000D01*
X4426250D01*
X4172250D02*
X4204000Y4829750D01*
X4172250Y5052000D02*
X4204000Y5020250D01*
X4200000Y4500000D02*
Y4050000D01*
X4426250Y4798000D02*
X4458000Y4829750D01*
X4426250Y5052000D02*
X4458000Y5020250D01*
Y4829750D01*
D02*
D77*
X3478065Y1440147D02*
X3522888Y1417735D01*
X3567712D01*
X3612535Y1440147D01*
X3634947Y1484971D01*
Y1619441D01*
X3612535Y1664265D01*
X3567712Y1686676D01*
X3522888D01*
X3478065Y1664265D01*
X3455653Y1619441D01*
Y1484971D01*
X3478065Y1440147D01*
X3612535Y1664265D01*
X3714733Y1417735D02*
X3737145Y1440147D01*
Y1462559D01*
X3877218Y1417735D02*
X3922042Y1440147D01*
X3966865Y1484971D01*
X3989277Y1552206D01*
Y1619441D01*
X3966865Y1664265D01*
X3922042Y1686676D01*
X3877218D01*
X3832395Y1664265D01*
X3809983Y1619441D01*
X3832395Y1574618D01*
X3877218Y1552206D01*
X3922042D01*
X3966865Y1574618D01*
X3989277Y1619441D01*
X4069063Y1484971D02*
X4091475Y1529794D01*
X4136298Y1552206D01*
X4181122D01*
X4225945Y1529794D01*
X4248357Y1484971D01*
X4225945Y1440147D01*
X4181122Y1417735D01*
X4136298D01*
X4091475Y1440147D01*
X4069063Y1484971D01*
Y1552206D01*
X4091475Y1619441D01*
X4136298Y1664265D01*
X4181122Y1686676D01*
X4328143Y1641853D02*
X4328143Y1686676D01*
X4417790D02*
X4417790Y1641853D01*
X3356593Y2088382D02*
X3356593Y2178029D01*
X3379005Y2222853D01*
X3401417Y2245265D01*
X3446240Y2267676D01*
X3491064D01*
X3535887Y2245265D01*
X3558299Y2222853D01*
X3580711Y2178029D01*
Y2088382D01*
X3558299Y2043559D01*
X3535887Y2021147D01*
X3491064Y1998735D01*
X3446240D01*
X3401417Y2021147D01*
X3379005Y2043559D01*
X3356593Y2088382D01*
X3665203Y2267676D02*
X3665203Y1998735D01*
X3889321D01*
X3973813D02*
X3973813Y2267676D01*
X4197931D01*
X4153107Y2133206D02*
X3973813Y2133206D01*
Y1998735D02*
X4197931Y1998735D01*
X4282423D02*
X4282423Y2267676D01*
X4416894D01*
X4461717Y2245265D01*
X4484129Y2222853D01*
X4506541Y2178029D01*
Y2088382D01*
X4484129Y2043559D01*
X4461717Y2021147D01*
X4416894Y1998735D01*
X4282423D01*
D02*
D78*
X6823529Y1125000D02*
X6964706Y1183824D01*
X6823529Y1242647D01*
X6964706Y1287000D02*
X6870588Y1287000D01*
X6835294D02*
X6835295Y1287001D01*
X6952941Y1373000D02*
X6964706Y1396529D01*
Y1443588D01*
X6952941Y1467118D01*
X6929412D01*
X6917647Y1443588D01*
Y1396529D01*
X6905882Y1373000D01*
X6882353D01*
X6870588Y1396529D01*
Y1443588D01*
X6882353Y1467118D01*
Y1603118D02*
X6870588Y1579588D01*
Y1544294D01*
X6882353Y1520765D01*
X6905882Y1509000D01*
X6929412D01*
X6952941Y1520765D01*
X6964706Y1544294D01*
Y1579588D01*
X6952941Y1603118D01*
X6882353Y1645000D02*
X6870588Y1668529D01*
Y1703824D01*
X6882353Y1727353D01*
X6905882Y1739118D01*
X6941176D01*
X6952941Y1727353D01*
X6964706Y1703824D01*
Y1680294D01*
X6952941Y1656765D01*
X6941176Y1645000D01*
X6929412D01*
X6917647Y1656765D01*
X6905882Y1680294D01*
Y1703824D01*
X6917647Y1727353D01*
X6929412Y1739118D01*
X6941176D02*
X6964706Y1739118D01*
X6917647Y1781000D02*
X6917647Y1875118D01*
X6941176Y2034647D02*
X6952941Y2022882D01*
X6964706Y1999353D01*
Y1964059D01*
X6952941Y1940529D01*
X6941176Y1928765D01*
X6917647Y1917000D01*
X6870588D01*
X6847059Y1928765D01*
X6835294Y1940529D01*
X6823529Y1964059D01*
Y1999353D01*
X6835294Y2022882D01*
X6847059Y2034647D01*
X6929412Y2079000D02*
X6952941Y2090765D01*
X6964706Y2114294D01*
Y2137824D01*
X6952941Y2161353D01*
X6929412Y2173118D01*
X6905882D01*
X6882353Y2161353D01*
X6870588Y2137824D01*
Y2114294D01*
X6882353Y2090765D01*
X6905882Y2079000D01*
X6929412D01*
X6964706Y2215000D02*
X6870588Y2215000D01*
X6905882D02*
X6882353Y2226765D01*
X6870588Y2250294D01*
Y2273824D01*
X6882353Y2297353D01*
X6905882Y2309118D01*
X6964706D01*
X6870588Y2351000D02*
X6870588Y2398059D01*
X6847059Y2374529D02*
X6952941Y2374529D01*
X6964706Y2386294D01*
Y2398059D01*
X6952941Y2409824D01*
X6964706Y2451000D02*
X6870588Y2451000D01*
X6905882D02*
X6882353Y2462765D01*
X6870588Y2486294D01*
Y2509824D01*
X6882353Y2533353D01*
X6929412Y2575000D02*
X6952941Y2586765D01*
X6964706Y2610294D01*
Y2633824D01*
X6952941Y2657353D01*
X6929412Y2669118D01*
X6905882D01*
X6882353Y2657353D01*
X6870588Y2633824D01*
Y2610294D01*
X6882353Y2586765D01*
X6905882Y2575000D01*
X6929412D01*
X6964706Y2722765D02*
X6964706Y2711000D01*
X6823529D01*
X6964706Y2772765D02*
X6964706Y2761000D01*
X6823529D01*
X6952941Y2905118D02*
X6964706Y2893353D01*
Y2869824D01*
Y2846294D01*
X6952941Y2822765D01*
X6929412Y2811000D01*
X6894118D01*
X6882353Y2822765D01*
X6870588Y2846294D01*
Y2869824D01*
X6882353Y2893353D01*
X6894118Y2905118D01*
X6905882D01*
X6917647Y2893353D01*
X6929412Y2869824D01*
Y2846294D01*
X6917647Y2822765D01*
X6905882Y2811000D01*
X6964706Y2947000D02*
X6870588Y2947000D01*
X6905882D02*
X6882353Y2958765D01*
X6870588Y2982294D01*
Y3005824D01*
X6882353Y3029353D01*
X6870588Y3157000D02*
X6964706Y3204059D01*
X6870588Y3251118D01*
X6964706Y3316529D02*
X6964706Y3363588D01*
Y3340059D02*
X6823529Y3340059D01*
X6847059Y3316529D01*
X6964706Y3440765D02*
X6952941Y3452529D01*
X6941176Y3440765D01*
X6952941Y3429000D01*
X6964706Y3440765D01*
X6952941Y3502765D02*
X6964706Y3526294D01*
Y3549824D01*
X6952941Y3573353D01*
X6929412Y3585118D01*
X6858824D01*
X6835294Y3573353D01*
X6823529Y3549824D01*
Y3526294D01*
X6835294Y3502765D01*
X6858824Y3491000D01*
X6929412D01*
X6952941Y3502765D01*
X6835294Y3573353D01*
X7164706Y1148529D02*
X7047059Y1148529D01*
X7035294Y1160294D01*
Y1172059D01*
X7047059Y1183824D01*
X7082353Y1125000D02*
X7082353Y1172059D01*
X7129412Y1225000D02*
X7152941Y1236765D01*
X7164706Y1260294D01*
Y1283824D01*
X7152941Y1307353D01*
X7129412Y1319118D01*
X7105882D01*
X7082353Y1307353D01*
X7070588Y1283824D01*
Y1260294D01*
X7082353Y1236765D01*
X7105882Y1225000D01*
X7129412D01*
X7164706Y1361000D02*
X7070588Y1361000D01*
X7105882D02*
X7082353Y1372765D01*
X7070588Y1396294D01*
Y1419824D01*
X7082353Y1443353D01*
X7117647Y1571000D02*
X7070588Y1571000D01*
X7047059Y1582765D01*
X7035294Y1594529D01*
X7023529Y1618059D01*
Y1641588D01*
X7035294Y1665118D01*
X7047059Y1676882D01*
X7070588Y1688647D01*
X7117647D01*
X7141176Y1676882D01*
X7152941Y1665118D01*
X7164706Y1641588D01*
Y1618059D01*
X7152941Y1594529D01*
X7141176Y1582765D01*
X7117647Y1571000D01*
X7070588Y1733000D02*
X7200000Y1733000D01*
X7129412D02*
X7152941Y1744765D01*
X7164706Y1768294D01*
Y1791824D01*
X7152941Y1815353D01*
X7129412Y1827118D01*
X7105882D01*
X7082353Y1815353D01*
X7070588Y1791824D01*
Y1768294D01*
X7082353Y1744765D01*
X7105882Y1733000D01*
X7129412D01*
X7070588Y1869000D02*
X7070588Y1916059D01*
X7047059Y1892529D02*
X7152941Y1892529D01*
X7164706Y1904294D01*
Y1916059D01*
X7152941Y1927824D01*
X7164706Y1969000D02*
X7070588Y1969000D01*
X7035294D02*
X7035295Y1969001D01*
X7164706Y2066765D02*
X7164706Y2055000D01*
X7023529D01*
X7164706Y2105000D02*
X7070588Y2105000D01*
X7035294D02*
X7035295Y2105001D01*
X7082353Y2191000D02*
X7070588Y2214529D01*
Y2249824D01*
X7082353Y2273353D01*
X7105882Y2285118D01*
X7141176D01*
X7152941Y2273353D01*
X7164706Y2249824D01*
Y2226294D01*
X7152941Y2202765D01*
X7141176Y2191000D01*
X7129412D01*
X7117647Y2202765D01*
X7105882Y2226294D01*
Y2249824D01*
X7117647Y2273353D01*
X7129412Y2285118D01*
X7141176D02*
X7164706Y2285118D01*
Y2413000D02*
X7023529Y2413000D01*
X7094118Y2471824D01*
X7023529Y2530647D01*
X7164706D01*
Y2575000D02*
X7070588Y2575000D01*
X7035294D02*
X7035295Y2575001D01*
X7082353Y2755118D02*
X7070588Y2731588D01*
Y2696294D01*
X7082353Y2672765D01*
X7105882Y2661000D01*
X7129412D01*
X7152941Y2672765D01*
X7164706Y2696294D01*
Y2731588D01*
X7152941Y2755118D01*
X7164706Y2797000D02*
X7070588Y2797000D01*
X7105882D02*
X7082353Y2808765D01*
X7070588Y2832294D01*
Y2855824D01*
X7082353Y2879353D01*
X7129412Y2921000D02*
X7152941Y2932765D01*
X7164706Y2956294D01*
Y2979824D01*
X7152941Y3003353D01*
X7129412Y3015118D01*
X7105882D01*
X7082353Y3003353D01*
X7070588Y2979824D01*
Y2956294D01*
X7082353Y2932765D01*
X7105882Y2921000D01*
X7129412D01*
X7152941Y3057000D02*
X7164706Y3080529D01*
Y3127588D01*
X7152941Y3151118D01*
X7129412D01*
X7117647Y3127588D01*
Y3080529D01*
X7105882Y3057000D01*
X7082353D01*
X7070588Y3080529D01*
Y3127588D01*
X7082353Y3151118D01*
Y3287118D02*
X7070588Y3263588D01*
Y3228294D01*
X7082353Y3204765D01*
X7105882Y3193000D01*
X7129412D01*
X7152941Y3204765D01*
X7164706Y3228294D01*
Y3263588D01*
X7152941Y3287118D01*
X7129412Y3329000D02*
X7152941Y3340765D01*
X7164706Y3364294D01*
Y3387824D01*
X7152941Y3411353D01*
X7129412Y3423118D01*
X7105882D01*
X7082353Y3411353D01*
X7070588Y3387824D01*
Y3364294D01*
X7082353Y3340765D01*
X7105882Y3329000D01*
X7129412D01*
X7070588Y3465000D02*
X7200000Y3465000D01*
X7129412D02*
X7152941Y3476765D01*
X7164706Y3500294D01*
Y3523824D01*
X7152941Y3547353D01*
X7129412Y3559118D01*
X7105882D01*
X7082353Y3547353D01*
X7070588Y3523824D01*
Y3500294D01*
X7082353Y3476765D01*
X7105882Y3465000D01*
X7129412D01*
X7152941Y3695118D02*
X7164706Y3683353D01*
Y3659824D01*
Y3636294D01*
X7152941Y3612765D01*
X7129412Y3601000D01*
X7094118D01*
X7082353Y3612765D01*
X7070588Y3636294D01*
Y3659824D01*
X7082353Y3683353D01*
X7094118Y3695118D01*
X7105882D01*
X7117647Y3683353D01*
X7129412Y3659824D01*
Y3636294D01*
X7117647Y3612765D01*
X7105882Y3601000D01*
X0Y0D02*
M02*
