G04 GENERATED BY PULSONIX 12.5 GERBER.DLL 9449*
G04 #@! TF.GenerationSoftware,Pulsonix,Pulsonix,12.5.9449*
G04 #@! TF.CreationDate,2025-01-20T21:22:03--1:00*
G04 #@! TF.Part,Single*
%FSLAX35Y35*%
%LPD*%
%MOMM*%
G04 #@! TF.FileFunction,Soldermask,Bot*
G04 #@! TF.FilePolarity,Negative*
G04 #@! TA.AperFunction,ViaPad*
%ADD76C,0.85400*%
%ADD77C,0.95400*%
G04 #@! TA.AperFunction,ComponentPad*
%ADD78C,1.95400*%
%ADD79C,3.75400*%
%ADD80R,2.15900X2.15900*%
%AMT81*0 Octagon pad*4,1,8,0.44714,1.07950,-0.44714,1.07950,-1.07950,0.44714,-1.07950,-0.44714,-0.44714,-1.07950,0.44714,-1.07950,1.07950,-0.44714,1.07950,0.44714,0.44714,1.07950,0*%
%ADD81T81*%
%ADD82R,2.25400X2.25400*%
%ADD83C,2.25400*%
%ADD84C,3.50400*%
G04 #@! TD.AperFunction*
X0Y0D02*
D02*
D76*
X545800Y1085000D03*
Y1545000D03*
Y2005000D03*
Y2465000D03*
Y2925000D03*
Y3385000D03*
Y3845000D03*
Y4305000D03*
Y4765000D03*
Y5225000D03*
X962008Y420800D03*
X1210000Y5829200D03*
X1422008Y420800D03*
X1670000Y5829200D03*
X1882008Y420800D03*
X2130000Y5829200D03*
X2342008Y420800D03*
X2590000Y5829200D03*
X3262008Y420800D03*
X3400000Y3775000D03*
Y3950000D03*
X3510000Y5829200D03*
X3600000Y925000D03*
Y1925000D03*
X3722008Y420800D03*
X3775000Y4275000D03*
X3950000D03*
X3970000Y5829200D03*
X4182008Y420800D03*
X4250000Y2100000D03*
Y2275000D03*
X4300000Y825000D03*
Y1025000D03*
X4430000Y5829200D03*
X4500000Y3175000D03*
X4642008Y420800D03*
X4650000Y3175000D03*
X5562008Y420800D03*
X5600000Y3275000D03*
Y3500000D03*
Y3700000D03*
X5810000Y5829200D03*
X6022008Y420800D03*
X6270000Y5829200D03*
X6482008Y420800D03*
X6730000Y5829200D03*
X6942008Y420800D03*
X7354200Y795558D03*
Y1255558D03*
Y1715558D03*
Y2175558D03*
Y2635558D03*
Y3095558D03*
Y3555558D03*
Y4015558D03*
Y4475558D03*
Y4935558D03*
Y5395558D03*
D02*
D77*
X5450000Y5484000D03*
D02*
D78*
X1350000Y4375000D03*
Y4625000D03*
Y4875000D03*
X2800000Y4375000D03*
Y4875000D03*
X3061000Y912000D03*
Y1166000D03*
Y1420000D03*
Y1674000D03*
Y1928000D03*
Y2182000D03*
Y2436000D03*
Y2690000D03*
Y2944000D03*
Y3198000D03*
Y3452000D03*
Y3706000D03*
Y3960000D03*
Y4214000D03*
Y4468000D03*
Y4722000D03*
Y4976000D03*
Y5230000D03*
Y5484000D03*
Y5738000D03*
X3569000Y2841500D03*
X3823000D03*
Y3275000D03*
X4077000Y2841500D03*
Y3275000D03*
X4331000Y2841500D03*
X4839000Y912000D03*
Y1166000D03*
Y1420000D03*
Y1674000D03*
Y1928000D03*
Y2182000D03*
Y2436000D03*
Y2690000D03*
Y2944000D03*
Y3198000D03*
Y3452000D03*
Y3706000D03*
Y3960000D03*
Y4214000D03*
Y4468000D03*
Y4722000D03*
Y4976000D03*
Y5230000D03*
Y5484000D03*
Y5738000D03*
X6500000Y4375000D03*
Y4625000D03*
Y4875000D03*
D02*
D79*
X2100000Y4025000D03*
Y5225000D03*
D02*
D80*
X3569000Y4925000D03*
D02*
D81*
X3823000D03*
X4077000D03*
X4331000D03*
D02*
D82*
X1392000Y1329000D03*
Y2729000D03*
X5492000Y1329000D03*
Y2729000D03*
D02*
D83*
X1392000Y821000D03*
Y1075000D03*
Y2221000D03*
Y2475000D03*
X2408000Y821000D03*
Y1075000D03*
Y1329000D03*
Y2221000D03*
Y2475000D03*
Y2729000D03*
X5492000Y821000D03*
Y1075000D03*
Y2221000D03*
Y2475000D03*
X6508000Y821000D03*
Y1075000D03*
Y1329000D03*
Y2221000D03*
Y2475000D03*
Y2729000D03*
D02*
D84*
X5800000Y4185000D03*
Y5065000D03*
X0Y0D02*
M02*
