M48
FMAT,1
METRIC
T01C000.30000
T02C000.40000
T03C001.00000
T04C001.00000
T05C001.10000
T06C001.20000
T07C002.00000
T08C002.50000
T09C002.60000
T10C003.10000
%
G81
M71
T01
X545800Y1085000
X545800Y1545000
X545800Y2005000
X545800Y2465000
X545800Y2925000
X545800Y3385000
X545800Y3845000
X545800Y4305000
X545800Y4765000
X545800Y5225000
X962008Y420800
X1210000Y5829200
X1422008Y420800
X1670000Y5829200
X1882008Y420800
X2130000Y5829200
X2342008Y420800
X2590000Y5829200
X3262008Y420800
X3400000Y3775000
X3400000Y3950000
X3510000Y5829200
X3600000Y925000
X3600000Y1925000
X3722008Y420800
X3775000Y4275000
X3950000Y4275000
X3970000Y5829200
X4182008Y420800
X4250000Y2100000
X4250000Y2275000
X4300000Y825000
X4300000Y1025000
X4430000Y5829200
X4500000Y3175000
X4642008Y420800
X4650000Y3175000
X5562008Y420800
X5600000Y3275000
X5600000Y3500000
X5600000Y3700000
X5810000Y5829200
X6022008Y420800
X6270000Y5829200
X6482008Y420800
X6730000Y5829200
X6942008Y420800
X7354200Y795558
X7354200Y1255558
X7354200Y1715558
X7354200Y2175558
X7354200Y2635558
X7354200Y3095558
X7354200Y3555558
X7354200Y4015558
X7354200Y4475558
X7354200Y4935558
X7354200Y5395558
T02
X5450000Y5484000
T03
X1350000Y4375000
X1350000Y4625000
X1350000Y4875000
X2800000Y4375000
X2800000Y4875000
X3061000Y912000
X3061000Y1166000
X3061000Y1420000
X3061000Y1674000
X3061000Y1928000
X3061000Y2182000
X3061000Y2436000
X3061000Y2690000
X3061000Y2944000
X3061000Y3198000
X3061000Y3452000
X3061000Y3706000
X3061000Y3960000
X3061000Y4214000
X3061000Y4468000
X3061000Y4722000
X3061000Y4976000
X3061000Y5230000
X3061000Y5484000
X3061000Y5738000
X3569000Y2841500
X3823000Y2841500
X3823000Y3275000
X4077000Y2841500
X4077000Y3275000
X4331000Y2841500
X4839000Y912000
X4839000Y1166000
X4839000Y1420000
X4839000Y1674000
X4839000Y1928000
X4839000Y2182000
X4839000Y2436000
X4839000Y2690000
X4839000Y2944000
X4839000Y3198000
X4839000Y3452000
X4839000Y3706000
X4839000Y3960000
X4839000Y4214000
X4839000Y4468000
X4839000Y4722000
X4839000Y4976000
X4839000Y5230000
X4839000Y5484000
X4839000Y5738000
X6500000Y4375000
X6500000Y4625000
X6500000Y4875000
T04
X1646000Y821000
X1646000Y2221000
X2154000Y821000
X2154000Y2221000
X5746000Y821000
X5746000Y2221000
X6254000Y821000
X6254000Y2221000
T05
X3569000Y4925000
X3823000Y4925000
X4077000Y4925000
X4331000Y4925000
T06
X1392000Y821000
X1392000Y1075000
X1392000Y1329000
X1392000Y2221000
X1392000Y2475000
X1392000Y2729000
X2408000Y821000
X2408000Y1075000
X2408000Y1329000
X2408000Y2221000
X2408000Y2475000
X2408000Y2729000
X5492000Y821000
X5492000Y1075000
X5492000Y1329000
X5492000Y2221000
X5492000Y2475000
X5492000Y2729000
X6508000Y821000
X6508000Y1075000
X6508000Y1329000
X6508000Y2221000
X6508000Y2475000
X6508000Y2729000
T07
X5800000Y4185000
X5800000Y5065000
T08
X2900000Y601500
X5000000Y601500
T09
X2100000Y4025000
X2100000Y5225000
T10
X750000Y625000
X750000Y5625000
X7150000Y625000
X7150000Y5625000
M30
